<svg width="172" height="238" viewBox="0 0 172 238" fill="none" xmlns="http://www.w3.org/2000/svg">
<path d="M135.06 66.87C136.48 68.34 138.1 68.3 139.93 68.29C142.03 68.28 144.14 69.09 146.24 69.55C146.88 69.69 147.52 69.8 148.16 69.96C149.79 70.35 151.11 70.97 152.24 72.47C153.48 74.12 154.99 75.67 156.28 77.27C157.17 78.37 158.24 79.21 159.13 80.26C160.39 81.75 160.38 83.61 159.82 85.27C158.64 88.77 158.57 92.48 157.22 95.99C155.98 99.21 153.8 100.78 150.83 101.51C149.31 101.88 147.7 102.27 146.06 102.09C145.03 101.98 144.6 103.15 143.57 103.24C139.61 103.57 135.92 105.4 131.79 105.14C130.09 105.03 128.42 106.2 126.48 106.23C123.19 106.28 120.14 105.16 116.93 104.92C114.6 104.74 112.31 104.89 110.07 105.49C107.64 106.13 105.11 105.99 102.66 106.47C102.37 106.53 102.02 106.4 101.77 106.51C99.26 107.65 96.54 108 93.92 108.73C93.66 108.8 93.38 109.05 93.26 109.3C92.13 111.6 90.44 113.5 89.56 116.07C88.84 118.17 88.03 119.96 88.56 122.18C88.64 122.5 88.32 122.97 88.08 123.3C87.14 124.57 87.01 125.89 87.16 127.5C87.34 129.52 86.58 131.55 86.64 133.65C86.73 136.5 86.14 139.36 86.28 142.23C86.33 143.31 85.87 144.06 85.11 144.88C83.15 147 81.9 149.64 80.55 152.17C80.05 153.11 80.96 153.55 81.78 153.65C85.98 154.12 90.12 155.03 94.3 155.61C97.3 156.03 99.98 156.54 102.01 158.92C102.13 159.05 102.27 159.18 102.42 159.27C103.18 159.72 102.11 161.1 103.27 161.16C104.05 161.2 104.93 160.5 105.69 160.81C107.71 161.65 109.8 160.85 111.87 161.26C114.17 161.72 116.22 162.32 117.74 164.2C117.93 164.43 118.09 164.76 118.33 164.86C121.55 166.17 121.45 169.25 122.09 171.91C122.27 172.64 122.75 173.23 122.63 174.12C122.42 175.59 122.02 176.69 120.06 176.56C121.24 177.07 121.57 179.16 120.58 179.72C119.83 180.15 119.56 180.8 119.49 181.31C119.16 183.57 117.14 184.07 115.7 185.09C114.96 185.62 114.04 185.98 113.26 186.52C113.02 186.69 112.72 187.06 112.55 187.01C111.12 186.58 110.71 187.82 110.05 188.58C109.47 188.24 109.94 187.71 109.65 187.41C109.55 187.31 109.27 187.22 109.17 187.28C108.67 187.59 109.43 187.49 109.33 187.71C109.23 187.91 109.19 188.18 109.04 188.32C107.02 190.08 104.61 191.05 102.04 191.61C100.27 191.99 98.4 191.78 97.04 193.49C95.77 195.08 94.06 196.11 91.99 196.61C90.18 197.05 89.46 198.75 88.55 200.24C86.91 202.93 84.44 205.01 82.84 207.75C80.96 210.96 78.83 214.02 76.27 216.69C74.2 218.84 71.96 220.94 69.01 222C68.11 222.32 67.67 224.18 68.35 224.82C68.9 225.33 68.7 225.7 68.64 226.33C68.47 228.11 68.91 229.86 69.44 231.58C70.08 233.65 69.57 234.38 67.41 234.39C58.91 234.41 50.42 234.41 41.92 234.39C39.89 234.39 39.11 233.63 39.07 231.57C39.02 228.46 39.25 225.33 39.01 222.23C38.44 214.9 39.76 207.78 41.07 200.65C41.16 200.19 41.26 199.66 41.12 199.23C39.47 194.27 40.65 189.25 40.77 184.26C40.83 181.99 40.12 179.79 39.72 177.57C39.31 175.33 39.29 173.02 39.57 170.85C40.04 167.15 39.54 163.57 38.93 160C38.59 158.02 38.65 156.1 38.72 154.14C38.9 149.21 38.78 144.29 38.47 139.36C38.3 136.76 38.16 134.13 39.17 131.61C40.4 128.53 40.75 125.43 39.32 122.28C38.33 120.09 38.14 117.71 38.77 115.46C39.96 111.2 39.22 106.89 39.47 102.61C39.75 97.82 39.5 93 39.75 88.2C39.91 85.07 39.32 81.93 39.54 78.77C39.92 73.41 38.72 68.13 38.44 62.8C38.37 61.57 38.48 60.24 38.88 59.09C39.54 57.23 39.34 55.5 38.93 53.64C38.41 51.28 38.65 48.95 39.51 46.62C40.67 43.47 40.38 40.22 40.09 36.91C39.8 33.65 38.87 30.52 38.67 27.26C38.58 25.89 38.79 24.57 39.59 23.52C40.62 22.17 40.62 20.67 40.3 19.27C39.98 17.86 40.35 16.54 40.37 15.2C40.39 14.42 41.08 13.5 42.22 13.69C43.2 13.85 43.74 14.12 43.71 15.51C43.66 18.04 44.09 20.59 44.46 23.11C44.59 24.01 44.55 24.68 43.97 25.42C42.42 27.4 42.04 29.64 42.94 32.01C43.68 33.95 43.53 36.01 43.86 38.01C44.68 42.87 43.99 47.61 42.64 52.28C42.23 53.68 42.25 55.07 42.81 56.46C43.42 57.96 43.51 59.55 42.8 61C41.98 62.68 42.17 64.35 42.33 66.08C42.75 70.51 43.31 74.95 43.46 79.39C43.54 81.8 42.84 84.23 43.56 86.64C43.66 86.97 43.57 87.43 43.95 87.58C44.49 87.79 44.63 87.22 44.9 86.96C46.79 85.14 48.86 83.64 51.26 82.47C53.75 81.25 55.02 78.7 56.27 76.35C57.24 74.52 58.64 73.22 60.23 72.08C61.27 71.33 61.96 70.44 62.33 69.28C63.44 65.89 65.78 63.49 68.57 61.44C70.53 59.99 72.56 58.61 74.12 56.67C75.08 55.47 76.29 54.73 77.86 54.41C79.95 53.98 81.43 52.59 82.57 50.83C83.65 49.16 84.9 47.76 86.9 47.07C88.47 46.54 89.95 45.71 91.01 44.33C92.06 42.96 93.43 42.28 95.17 42.26C97.26 42.23 98.86 41.13 100.34 39.79C101.11 39.09 101.88 38.65 103.04 38.71C104.06 38.77 105.04 38.1 106.03 37.75C107.46 37.26 108.76 36.65 110.47 36.73C112.98 36.84 115.52 36.27 118 35.34C119.67 34.71 121.56 35.59 123.34 36.14C124.59 36.53 126.02 36.95 127.39 36.34C127.59 36.25 127.73 36 127.93 35.92C129.06 35.5 129.22 36.62 129.82 37.08C130.29 37.44 131.09 35.62 131.65 37.36C131.94 38.24 133.37 38.06 134.16 38.82C135.12 39.74 136.44 40.31 137.39 41.33C137.82 41.8 138.39 41.64 138.92 41.59C140.72 41.4 141.98 42.27 142.63 43.8C143.3 45.39 143.82 46.97 143.95 48.85C144.06 50.48 142.74 51.93 143.66 53.48C143.7 53.55 143.61 53.71 143.56 53.81C142.6 55.58 142.47 57.1 142.69 59.27C142.81 60.49 141.97 61.39 141.09 62.28C140.47 62.9 138.39 62.72 139.51 64.69C139.66 64.96 138.13 65.54 137.37 65.77C136.53 66.01 135.79 66.29 135.06 66.87ZM70.38 62.63C70.59 63.9 70.2 64.37 69.62 64.83C68.65 65.6 67.81 66.49 66.99 67.46C65.65 69.04 64.63 70.86 63.19 72.35C59.24 76.41 55.65 80.79 51.98 85.1C51.3 85.9 50.71 87.24 49.21 86.71C48.73 86.54 48.87 86.9 48.86 87.01C48.61 89.02 46.77 90.1 45.55 90.97C44.1 92 43.81 93.14 43.45 94.48C42.97 96.29 43.33 98.15 43.27 99.99C43.16 103.46 43.26 106.95 43.11 110.42C43.03 112.31 43.67 114.28 42.82 116.08C41.21 119.48 42.28 122.64 43.62 125.72C44.74 128.3 44.28 130.71 43.2 133.01C42.72 134.03 42.47 134.96 42.42 136.04C42.16 141.5 42.7 146.94 42.61 152.39C42.58 154.12 43.38 155.94 42.71 157.52C42.09 158.98 42.29 160.51 42.65 161.58C43.76 164.86 43.35 168.13 43.4 171.43C43.43 173.34 42.42 175.23 42.99 177.05C43.79 179.62 43.85 182.08 43.71 184.77C43.45 189.84 43.33 194.99 44.55 200.02C44.65 200.42 44.66 200.86 44.59 201.27C44.14 203.9 43.82 206.57 43.14 209.15C42.63 211.05 43.19 212.4 44.44 213.65C44.86 214.07 45.11 214.67 45.47 215.02C46.66 216.21 47.31 218.46 49.08 218.44C51.51 218.41 53.94 218.74 56.35 218.56C57.05 218.51 57.77 217.95 58.39 217.5C60.71 215.84 63.27 214.43 64.54 211.66C64.68 211.36 65.03 211.15 65.31 210.94C70.26 207.44 73.32 202.55 75.55 197.05C76.04 195.85 76.34 194.52 77.04 193.46C79.23 190.13 81.69 186.95 83.87 183.66C85.83 180.7 87.86 178.89 91.23 177.99C93.64 177.34 95.5 175.41 97.41 173.79C99.6 171.93 100.71 169.48 100.79 166.57C100.85 164.2 99.57 162.26 97.32 161.2C96.61 160.86 95.63 160.76 95.57 159.55C95.54 158.8 94.9 158.53 94.12 158.59C93.36 158.64 92.58 158.6 91.81 158.55C91.6 158.54 90.99 158.52 91.42 158.11C92.21 157.36 91.33 157.37 91.12 157.49C89.98 158.13 89.09 157.17 88.09 157.12C83.97 156.89 80.05 157.7 76.52 159.9C74.35 161.25 72.45 163.03 69.91 163.76C69.37 163.91 68.81 164.32 68.46 164.76C67.33 166.21 65.77 167.16 64.46 168.4C62.65 170.11 60.58 171.54 59.5 173.94C58.19 176.86 56.47 179.48 53.4 180.91C53.02 181.09 52.67 181.59 52.53 182.01C51.75 184.45 49.74 186.34 49.56 189.29C48.11 187.83 46.51 186.68 47.06 184.74C47.8 182.13 49.01 179.71 50.94 177.65C52.17 176.34 54.28 175.87 54.86 174.11C56.55 169.04 60.94 166.57 64.68 163.48C67.42 161.21 71.05 160.49 73.41 157.19C75.29 154.57 77.18 152.17 78.23 149.08C79.36 145.75 80.69 142.48 83.01 139.74C83.29 139.41 83.57 139.07 83.54 138.63C83.3 135.12 84.83 131.69 83.98 128.14C83.78 127.29 83.82 126.34 84.55 125.62C85.06 125.11 84.85 124.53 84.71 123.94C84.42 122.64 84.21 121.33 85.5 120.37C85.97 120.02 85.6 119.76 85.51 119.37C85.17 118.05 84.18 116.68 85.38 115.34C86.12 114.51 86.53 113.57 86.86 112.54C88.07 108.65 91.24 106.41 94.52 104.79C96.19 103.96 98.23 103.23 100.29 102.92C101.68 102.71 103.1 102.61 104.5 102.38C106.91 101.97 109.13 100.92 111.59 100.68C112.69 100.57 113.62 101.29 114.71 100.92C116.57 100.28 118.43 101.01 120.12 101.48C122.4 102.12 124.58 102.48 126.9 102.08C129.07 101.7 131.11 100.77 133.4 100.8C134.27 100.81 135.16 101.11 136.16 100.68C139.53 99.21 143.14 98.38 146.77 98.12C148.9 97.97 150.61 96.53 152.77 96.78C153.22 96.83 153.41 96.16 153.56 95.69C153.8 94.96 154.08 94.24 154.33 93.51C155.22 90.88 156.5 88.38 156.14 85.43C155.98 84.14 155.53 83 155.13 81.84C153.74 77.88 151.61 74.86 147.08 73.74C143.39 72.83 139.59 72.57 135.95 71.42C134.46 70.95 132.75 71.16 131.16 71.61C128.45 72.38 128.01 72.21 126.58 69.81C126.3 69.33 125.94 69.11 125.41 69.2C125.11 69.25 124.83 69.37 124.91 69.78C125.17 71.25 123.98 71.09 123.2 71.18C122.08 71.31 120.74 71.16 119.87 71.51C117.62 72.41 115.36 73.26 113.09 74.11C109.62 75.41 106.23 76.96 102.71 78.14C99.04 79.38 95.47 80.69 92.55 83.35C91.89 83.95 91.04 84.46 90.15 84.47C88.49 84.49 87.49 86.08 85.86 86.12C85.43 86.13 85.37 86.69 85.42 86.99C85.7 88.64 84.63 89.18 83.43 89.85C82.86 90.17 82.11 90.31 81.68 90.96C80.08 93.37 78.02 95.47 76.86 98.18C76.29 99.5 76.41 100.84 73.98 99.47C71.99 98.35 72.76 97.58 73.14 96.54C74.18 93.72 76.49 91.7 77.95 89.14C78.58 88.04 79.52 87.41 80.79 87.21C81.78 87.05 82.47 86.52 82.92 85.52C83.65 83.89 84.83 82.76 86.63 82.15C88.03 81.68 89.39 81.18 90.86 80.88C93.33 80.37 95.04 78.47 97 77.09C98.03 76.37 98.93 75.61 100.19 75.26C101.43 74.92 102.75 74.61 103.78 73.76C105.77 72.12 108.06 71.07 110.56 70.73C113.31 70.35 115.77 69.46 118.28 68.24C120.65 67.1 123.24 66.23 126.09 66.3C129.79 66.38 133.17 65.07 136.14 62.76C136.66 62.35 136.67 61.53 137.43 61.35C139.23 60.91 139.46 59.24 139.5 57.93C139.6 55.05 139.99 52.23 140.79 49.49C141.16 48.21 140.77 47.67 139.66 47.43C137.36 46.93 136.5 44.13 134.01 43.95C133.93 43.94 133.82 43.8 133.79 43.69C132.88 41.19 130.86 39.8 128.67 38.61C127.78 38.13 126.32 38.29 126.29 39.06C126.2 41.02 125.06 40.27 124.22 40.14C122.66 39.9 121.12 39.63 119.53 39.57C117.37 39.49 115.28 40.29 113.12 40.02C111.7 39.84 110.52 40.41 109.26 40.93C107.63 41.6 106.18 43.1 104.1 42.16C103.56 41.92 103.06 42.51 102.65 43C101.52 44.34 100.25 45.39 98.31 45.44C96.19 45.5 94.29 46.4 92.63 47.65C91.35 48.62 89.92 49.17 88.46 49.74C87.65 50.05 86.37 50.6 86.31 51.16C86.06 53.36 83.58 53.55 82.95 55.32C82.78 55.81 81.43 55.2 81.85 55.89C82.67 57.25 81.57 57.14 80.99 57.38C79.43 58.03 77.67 58.35 76.32 59.28C74.96 60.21 73.59 61.3 72.73 62.86C72.21 63.74 71.43 64.4 70.38 62.63ZM106.68 188.15C106.48 187.26 106.46 186.37 107.32 185.91C108.58 185.24 109.62 184.21 111.04 183.81C112.53 183.39 113.83 182.35 114.89 181.44C117.79 178.95 118.15 175.05 118.81 171.59C119.18 169.64 117.45 167.61 116.31 165.76C114.35 162.58 110.94 163.58 108.19 163.12C105.78 162.72 103.16 165.97 103.18 168.5C103.2 171.87 102.11 174.9 99.88 177.31C98.32 178.99 96.33 180.28 94.33 181.5C91.74 183.07 88.57 183.57 86.86 186.74C85.36 189.53 83.08 191.93 81.24 194.56C77.67 199.65 76.49 206.14 71.97 210.75C70.78 211.96 69.8 213.67 68.48 214.42C67.16 215.18 66.74 215.7 66.96 217.03C66.99 217.18 66.87 217.38 66.79 217.53C66.6 217.89 65.89 218.21 66.62 218.66C67.17 218.99 67.44 218.39 67.83 218.16C70.47 216.58 71.96 213.68 74.64 212.16C75.3 211.78 75.61 211.18 76.07 210.66C77.76 208.78 78.21 206.07 80.24 204.45C82.97 202.28 83.93 199.01 85.28 196.05C86.12 194.2 87.45 193.08 88.87 191.81C91.05 189.87 94.17 191.2 96.34 189.25C97.43 188.27 99.06 188.05 100.58 188.2C101.47 188.29 102.18 187.05 102.87 187.68C103.83 188.56 104.9 188.14 105.36 187.68C106.37 186.67 106.26 187.93 106.68 188.15ZM42.64 216.21C42.52 216.6 42.42 216.82 42.39 217.05C41.86 221.33 42.23 225.64 42.12 229.93C42.08 231.28 42.96 231.28 43.91 231.28C51.02 231.27 58.13 231.28 65.24 231.27C66.85 231.27 67 230.97 66.24 229.51C64.93 227.02 64.83 224.15 63.73 221.59C63.53 221.13 63.62 220.53 63.07 220.27C62.5 220 62.25 220.6 61.86 220.81C61.04 221.25 60.8 222.44 59.62 222.43C58.21 222.41 56.84 222.88 55.38 222.59C54.11 222.34 52.77 222.41 51.56 223.15C50.27 223.95 49.18 223.41 48.14 222.57C45.98 220.8 44.28 218.63 42.64 216.21Z" fill="black"/>
<path d="M52.37 137.6C51.42 135 53.06 131.94 51.7 129.07C51.5 128.64 51.57 128.07 51.99 127.75C52.97 127.01 52.58 126.23 52.4 125.24C52.24 124.33 52.69 123.18 53.19 122.32C53.58 121.64 54.32 122.49 54.94 122.49C57.76 122.52 58.29 125.28 59.84 126.8C60.06 127.02 59.81 128.18 59.45 128.42C58.52 129.05 58.29 130.36 57.3 130.74C54.88 131.69 54.99 133.83 54.9 135.74C54.82 137.32 55.24 138.93 55.44 140.52C55.5 140.98 55.76 141.33 56.24 141.35C56.94 141.38 57.31 140.85 57.57 140.32C57.89 139.67 57.93 138.55 59 139.02C59.86 139.39 60.18 140.37 59.95 141.33C59.7 142.38 59.31 143.3 58.21 143.88C56.96 144.54 55.56 144.97 54.53 146.04C54.17 146.42 53.64 146.36 53.18 146.18C51.38 145.47 49.78 144.45 48.5 142.99C48.02 142.45 47.79 141.83 48.35 141.23C48.94 140.6 49.69 140.33 50.38 141.04C51.85 142.56 52 141.31 52.18 140.21C52.31 139.44 52.3 138.66 52.37 137.6Z" fill="black"/>
<path d="M66.39 123.68C66.87 123.59 66.99 123.81 67.1 124.13C67.36 124.92 67.61 125.72 67.96 126.47C68.33 127.25 68.27 127.69 67.45 128.2C66.91 128.53 66.57 129.32 66.33 129.97C65.99 130.88 65.32 131.42 64.59 131.93C64 132.34 63.47 132.73 62.68 132.19C61.97 131.71 61.72 130.99 61.89 130.34C62.36 128.48 62.52 126.49 64 124.98C64.72 124.25 65.68 124.13 66.39 123.68Z" fill="black"/>
<path d="M46.17 122.32C44.78 122.66 44.78 122.23 44.58 120.92C44.15 118.17 45.62 116.57 47.17 114.88C47.71 114.29 48.37 113.56 49.27 114.39C50.15 115.2 51.16 116.12 50.5 117.43C49.7 119.01 48.67 120.47 47.69 121.95C47.31 122.52 46.68 122.47 46.17 122.32Z" fill="black"/>
</svg>
