<svg width="200" height="136" viewBox="0 0 200 136" fill="none" xmlns="http://www.w3.org/2000/svg">
<path d="M125.6 4.75134C126.582 5.6614 126.73 6.64552 126.698 7.91536C126.677 8.78309 126.55 9.91536 127.3 10.7937C128.039 11.6508 127.754 13.5132 126.624 14.6244C125.98 15.2593 126.223 16.1588 125.663 16.7513C125.632 16.7831 125.653 16.9312 125.695 16.963C127.353 18.1588 126.487 19.6085 126.149 21.0371C125.875 22.2117 125.801 23.4286 125.516 24.5926C125.273 25.5767 125.484 26.6773 124.344 27.4603C123.847 27.799 123.393 28.8572 123.467 29.8307C123.52 30.4339 123.467 31.164 123.161 31.672C122.496 32.8148 122.876 33.545 123.795 34.2328C125.6 35.5873 125.706 35.5027 127.311 34.6455C128.25 34.1376 129.158 33.6614 129.887 32.8995C130.478 32.2857 131.28 32.6561 131.893 32.6244C133.086 32.5503 134.057 32.0847 135.113 31.6826C134.902 31.2381 134.511 31.4921 134.216 31.3968C135.007 31.0371 135.926 31.5979 136.581 31.2593C138.259 30.381 140.35 31.2804 141.87 29.9259C142.187 29.6402 142.155 29.9894 142.271 30.1058C142.44 30.2963 142.641 30.2963 142.799 30.1058C143.581 29.1006 146.98 27.7249 148.269 27.6931C150.391 27.6508 152.471 28.1058 154.603 28.0529C157.021 27.9894 159.07 29.2487 161.044 30.5185C164.095 32.4868 166.65 34.9736 168.92 37.799C169.839 38.9524 170.916 40.0106 172.236 40.836C173.629 41.7249 174.78 42.9841 176.068 44.0424C178.929 46.3704 181.21 49.2275 183.353 52.1799C184.546 53.8307 185.444 55.6931 186.5 57.4392C188.654 61.0159 190.691 64.635 192.423 68.4551C193.637 71.1323 194.767 73.8836 196.973 76.0424C198.293 77.3439 198.969 79.217 199.581 80.9842C199.887 81.8836 199.381 82.6138 198.504 83.0265C197.565 83.4709 196.815 83.09 196.34 82.3175C195.823 81.4709 195.474 80.5291 195.062 79.6191C194.387 78.1482 193.099 77.1535 192.191 75.8519C190.776 73.8413 190.026 71.5238 188.939 69.3545C188.21 67.9048 187.292 66.5397 186.637 65.09C185.476 62.4974 183.533 60.381 182.477 57.7672C181.96 56.4868 180.957 55.7037 180.059 54.7831C179.478 54.1905 178.602 53.799 178.75 52.7408C178.75 52.6879 178.666 52.5715 178.613 52.5609C177.04 52.3175 177.029 50.836 176.575 49.8095C176.079 48.6667 175.15 48.0741 174.294 47.3545C171.444 44.9418 168.656 42.4551 165.689 40.1905C164.201 39.0582 163.113 37.7461 162.079 36.2328C160.674 34.1693 158.499 33.1323 156.103 32.3598C153.526 31.5238 151.014 31.5133 148.427 31.9365C148.11 31.9894 147.804 32.1693 147.508 32.3175C146.453 32.8677 146.431 33.1006 147.318 33.8519C148.026 34.4445 148.828 34.963 149.398 35.6614C151.373 38.0424 150.993 41.7037 148.723 43.8307C147.498 44.9841 146.125 45.6931 144.531 46.1905C143.401 46.5397 142.377 47.2381 141.342 47.8519C140.466 48.3704 140.487 49.3651 140.445 50.2011C140.371 51.5979 139.484 52.5926 138.977 53.7778C138.523 54.8254 138.376 56.0424 138.777 57.1111C139.621 59.3545 139.41 61.7778 140.16 64.0212C141.216 67.1852 140.962 70.5609 141.67 73.7778C141.733 74.0635 141.733 74.3598 141.965 74.582C143.549 76.0741 144.087 78 144.225 80.0953C144.256 80.6244 144.647 80.9736 145.017 81.1852C146.885 82.2752 147.793 84.0106 147.888 86.0318C147.994 88.254 149.229 90.0212 149.863 92.0212C150.148 92.9313 150.211 93.8625 150.465 94.7725C151.214 97.5344 152.502 100.032 153.738 102.593C155.163 105.545 156.609 108.529 156.884 111.926C157.063 114.095 157.496 116.233 157.644 118.413C157.781 120.413 158.425 122.36 158.373 124.392C158.373 124.646 158.394 124.9 158.362 125.153C158.246 126.148 157.422 126.952 156.514 126.878C155.511 126.794 154.793 126.191 154.772 125.206C154.751 123.556 154.561 121.968 153.98 120.423C153.495 119.143 152.935 117.873 152.935 116.455C152.935 116.159 152.766 116.042 152.439 116.074C151.278 116.18 150.085 116.106 149.06 116.889C148.786 117.101 148.237 117.005 147.825 116.963C147.139 116.878 146.6 116.963 146.431 117.757C145.735 117.333 145.703 118.646 145.017 118.296C144.89 118.233 144.563 118.243 144.531 118.317C143.876 119.841 141.606 118.677 141.057 120.466C140.931 120.889 140.16 120.762 139.706 120.942C138.734 121.344 137.753 121.746 137.077 122.646C136.676 122.053 137.404 122.053 137.309 121.672C136.739 121.45 136.148 121.714 135.789 121.968C134.849 122.614 134.912 122.593 133.835 122.508C133.308 122.466 132.769 122.942 132.21 123.069C130.309 123.492 128.609 124.328 127.047 125.482C126.234 126.085 125.231 126.265 124.365 126.773C123.52 127.27 122 126.328 121.482 125.27C120.078 122.413 119.55 119.333 119.001 116.243C118.621 114.085 118.579 114.265 116.414 114.963C114.926 115.439 113.427 115.693 112.487 117.09C111.748 116.444 110.523 118.73 110.006 116.667C109.963 116.497 109.731 116.519 109.583 116.646C107.989 118.011 105.941 117.989 104.051 118.349C103.428 118.466 103.101 118.688 102.974 119.09C102.657 120.106 102.34 121.058 102.668 122.243C103.196 124.148 102.53 126.085 102.076 127.947C101.791 129.111 101.622 130.243 101.654 131.429C101.686 132.339 101.401 133.005 100.619 133.577C100.07 133.968 99.4686 134.36 99.0779 134.974C98.8773 135.291 98.4656 135.545 98.1277 135.482C96.9558 135.27 95.8155 135.566 94.7385 135.841C93.0915 136.265 91.5922 135.81 90.0507 135.503C86.6193 134.825 83.1562 134.328 79.672 133.968C77.5393 133.757 75.3854 133.524 73.2632 133.355C70.8665 133.164 68.4487 132.825 66.0097 132.995C63.9192 133.143 61.9448 132.423 59.8966 132.201C58.0489 132 56.3596 131.333 54.6703 130.667C53.4877 130.201 52.3897 130.762 51.2811 130.836C49.2539 130.963 47.3957 130.37 45.4741 130.011C45.2946 129.979 44.6928 129.725 44.8617 129.206C45.094 128.529 44.7772 128.064 44.4077 127.545C44.3127 127.418 43.8376 127.122 44.281 126.825C45.1045 126.265 45.0306 125.418 45.1045 124.582C45.1362 124.191 45.2946 123.884 44.8089 123.704C44.4394 123.566 44.3866 123.185 44.64 123.005C45.8858 122.159 44.9884 121.005 45.0095 120.042C45.0201 119.132 44.2493 119.577 43.7848 119.788C41.9371 120.677 40.1105 121.81 38.0728 121.947C35.0109 122.148 32.4347 123.968 29.4151 124.222C28.7182 124.286 28.0214 124.847 27.3457 125.026C25.9098 125.397 24.4739 125.947 22.9429 125.915C22.7845 125.915 22.5417 125.937 22.4678 125.841C21.602 124.815 21.5809 124.868 20.3034 124.349C18.7724 123.725 18.3184 122.392 18.2868 120.847C18.234 118.487 17.6216 116.254 16.8297 114.053C16.6397 113.513 16.5658 112.91 16.5447 112.328C16.513 111.609 16.2596 111.016 15.7422 110.54C14.7287 109.598 14.6548 108.212 14.2641 107.037C13.4089 104.444 12.6593 101.788 12.2158 99.1112C11.9307 97.3651 11.4239 95.6614 11.3289 93.8307C11.2339 91.9154 10.2203 90.0318 9.58683 88.1482C8.52045 84.9842 7.23235 81.8836 7.13733 78.4656C7.10565 77.1958 6.70444 75.9789 6.19765 74.8466C5.37411 73.0053 5.02569 71.0159 4.2655 69.1429C3.67424 67.6826 3.26248 65.9259 3.52643 64.3387C4.17048 60.508 2.11163 57.6826 0.33786 54.7302C-0.496236 53.3439 -0.0316762 51.6402 1.52038 51.3545C2.93517 51.1006 3.88541 50.1164 5.07848 49.5556C5.26853 49.4603 5.46913 49.1958 5.51137 48.9842C5.69086 48.127 5.95481 47.9683 6.59886 48.6879C6.92616 49.0476 7.28514 48.5926 7.60189 48.4551C10.0936 47.3545 12.6593 46.4868 15.3516 46C16.0907 45.8625 16.8403 46.0847 17.4421 45.3122C18.0123 44.582 19.0575 45.0371 19.7227 45.1429C20.7891 45.3122 21.8343 44.8995 22.4361 44.5503C24.1782 43.545 26.2054 43.4921 27.9264 42.5397C29.1195 41.8836 30.5659 41.7461 31.7168 40.9524C32.0124 40.7513 32.3397 40.6773 32.6776 40.7302C34.3669 41.0053 35.845 40.4762 37.2387 39.5767C37.4499 39.4392 37.6821 39.3228 37.925 39.2487C39.7515 38.7196 40.0261 38.2117 39.3292 36.4551C39.0864 35.8519 38.8963 35.2804 39.192 34.6455C39.2764 34.4656 39.3187 34.1693 39.2342 34.0318C37.7666 31.7461 38.8858 29.4921 39.2342 27.217C39.3292 26.6244 39.3926 25.9683 39.0969 25.3757C38.4107 24 39.023 21.8836 40.3006 21.0688C40.7546 20.7725 41.198 21.0688 41.4725 21.2593C42.1271 21.7037 42.8134 21.6402 43.5208 21.6931C47.2267 22 50.7426 21.3545 54.0896 19.7249C54.2374 19.6508 54.4169 19.6508 54.5858 19.6508C59.9071 19.672 65.2284 19.0476 70.5286 19.4498C72.5452 19.5979 74.3401 19.4286 76.2723 18.8148C78.0777 18.2434 80.126 18.4339 82.0054 18.9101C84.117 19.4498 86.197 18.9207 88.2453 18.7196C89.829 18.5609 91.3282 18.9101 92.8592 18.9524C93.7461 18.9841 94.3057 19.8625 94.2951 20.8995C94.2845 22.6349 94.2951 24.3704 94.2951 26.1058C94.2951 26.6984 94.3162 27.3228 95.0553 27.4921C95.7416 27.6508 96.1533 27.5662 96.5651 26.7619C97.6737 24.5926 99.1096 22.5926 101.359 21.4603C103.597 20.3386 105.941 19.4498 108.19 18.3386C109.488 17.7037 111.252 17.8095 111.927 16.1058C111.969 16.0106 112.107 15.8836 112.202 15.873C114.313 15.7566 115.021 13.873 116.119 12.5926C117.312 11.1958 117.988 9.47092 118.304 7.61907C118.494 6.55028 118.938 5.51325 119.909 4.85716C120.342 4.56087 120.944 4.16933 121.218 4.06351C122.908 3.46034 122.243 2.07409 122.538 1.01589C122.633 0.666686 122.105 1.90195e-05 122.961 0.021183C123.657 0.0423471 124.534 0.0740932 124.27 1.14288C124.111 1.7778 124.386 2.0106 124.84 2.1905C125.663 2.50796 125.737 3.42859 126.255 4.0106C126.709 4.52912 125.706 4.35981 125.505 4.77251L125.6 4.75134ZM30.5765 46.0847C29.3095 46.9312 28.0003 46.6984 26.7544 46.8995C25.9309 47.0265 25.3924 47.9789 24.4316 47.7461C24.4 47.7461 24.3577 47.7778 24.326 47.8095C22.4467 49.0794 20.1556 49.164 18.0967 49.9365C16.4708 50.5503 14.6548 50.2752 13.0182 50.709C11.9307 50.9947 10.7693 51.2381 9.67129 51.6297C7.90808 52.2646 6.29267 52.963 4.93067 54.254C4.45555 54.709 4.40276 54.9842 4.80397 55.5556C6.49328 57.9789 7.98198 60.5397 7.53854 63.672C7.21123 65.9894 7.93975 68.0953 8.60491 70.2223C9.25952 72.2963 10.0936 74.3175 10.5476 76.4339C11.0227 78.6244 10.8116 80.9524 11.9413 83.0159C12.0997 83.3016 12.2792 83.6614 12.2475 83.9577C12.0997 85.0688 12.6698 85.9683 13.0182 86.9313C13.7362 88.9736 14.6336 90.9947 15.0876 93.1006C15.8901 96.7831 16.0484 100.624 17.7061 104.106C18.4557 105.683 18.1812 107.513 18.9414 109.079C19.6065 110.444 19.6804 111.979 20.1556 113.407C20.504 114.444 20.8313 115.545 21.1269 116.614C21.4648 117.799 21.6337 118.942 21.5809 120.138C21.5492 120.794 21.6865 121.45 22.1722 121.841C22.6367 122.212 23.0907 121.725 23.5131 121.46C24.8117 120.656 26.0048 119.82 27.7469 119.894C31.1783 120.042 34.4091 118.783 37.6505 117.852C39.646 117.28 41.5148 116.159 43.5314 115.778C45.6958 115.365 47.723 114.519 49.9191 114.212C53.3188 113.735 56.4018 112.095 59.6748 111.175C62.4305 110.402 65.3235 110.159 68.0263 109.079C69.42 108.519 70.497 107.333 72.0596 107.143C72.4291 107.101 72.3974 106.773 72.2919 106.444C72.1652 106.053 72.0173 105.63 72.0173 105.228C72.0173 102.455 71.3416 99.7884 70.2225 97.3439C69.5256 95.8201 69.0083 94.1799 68.6387 92.6773C68.1214 90.5397 67.4245 88.4445 66.9072 86.2963C66.5904 84.9736 65.7563 83.6826 65.7775 82.3916C65.7986 80.2434 65.4607 78.1482 64.9434 76.1588C64.1621 73.1111 63.6975 69.9683 62.3988 67.0476C61.702 65.4815 61.438 63.7249 61.1424 62C60.6251 58.9736 59.8015 56 59.4953 52.9207C59.3792 51.6931 59.2842 50.3386 58.619 49.2064C57.3204 47.0159 56.3912 44.6773 55.7789 42.2117C55.2826 40.2117 55.2932 40.2117 53.4138 40.9207C53.2555 40.9841 53.0971 41.0265 52.9387 41.0582C49.1694 41.9154 45.3051 42.2963 41.6309 43.5979C38.5374 44.6984 35.1376 44.2963 32.0757 45.545C31.759 45.672 31.759 45.2699 31.6006 45.2804C31.1466 45.3122 30.6398 45.3016 30.2809 45.5238C29.9852 45.7143 30.5659 45.9471 30.5554 46.1058L30.5765 46.0847ZM119.497 83.4921C118.589 83.291 117.85 83.7672 117.08 83.2593C116.784 83.0688 116.615 83.545 116.436 83.7461C116.077 84.127 116.594 84.0318 116.7 84.1799C117.122 84.7937 117.027 85.3439 116.288 85.5133C115.876 85.6085 115.348 85.6191 115.243 85.9895C114.968 86.9947 114.229 86.8995 113.49 86.9101C113.331 86.9101 113.089 86.8254 113.025 86.9101C111.853 88.2963 110.132 88.1905 108.601 88.5715C107.588 88.8148 106.49 88.4551 105.487 89.0582C104.199 89.8201 102.721 89.0053 101.306 89.5133C99.5531 90.1482 97.6843 89.2593 95.7944 89.3969C94.1051 89.5238 92.2574 89.0794 90.4625 89.0688C90.0824 89.0688 89.7023 89.0688 89.3328 88.9842C84.6344 87.9048 80.126 86.4551 76.23 83.3969C75.0264 82.4445 73.9284 81.4815 73.0309 80.254C72.4185 79.418 71.7217 78.6455 70.8348 77.5768C70.7715 80.6667 72.5136 83.0053 72.3235 85.7355C72.2602 86.6561 73.126 87.4921 73.316 88.4022C73.8122 90.7196 75.1848 92.582 76.23 94.6138C76.6524 95.4498 77.4548 96.0847 78.0461 96.836C78.8907 97.9154 78.9541 99.418 79.6192 100.476C81.1502 102.889 81.9526 105.587 83.1668 108.106C83.6947 109.196 85.0145 110.011 86.197 109.767C86.6193 109.683 86.8727 109.884 87.105 110.053C88.2558 110.921 89.4172 111.661 90.9587 111.09C91.1276 111.026 91.3705 111.122 91.5711 111.175C92.6903 111.439 93.6827 112.011 94.7174 112.455C97.1775 113.524 99.8381 114.159 102.594 114.106C102.752 114.106 102.921 114.032 103.079 113.989C104.515 113.556 105.92 113.291 107.472 113.503C109.245 113.746 111.072 114.54 112.825 113.111C114.62 111.651 116.763 110.825 118.938 110.021C123.393 108.381 126.666 105.566 127.427 100.54C127.458 100.349 127.564 100.116 127.722 100.021C128.599 99.4286 129.095 98.7831 128.44 97.6826C128.314 97.4604 128.366 96.9524 128.704 96.6455C129.348 96.0529 129.697 95.291 129.728 94.4233C129.802 92.381 130.225 90.4974 131.882 89.1006C132.104 88.9101 132.21 88.582 132.21 88.2011C132.21 86.9947 132.241 85.7355 132.378 84.582C132.78 81.2805 132.927 77.9154 134.036 74.7196C134.575 73.1535 134.997 71.5238 135.683 70.0212C136.032 69.2487 136.412 68.6667 135.81 67.8942C135.62 67.6508 135.62 67.1429 135.261 67.1958C134.86 67.2487 134.648 67.7461 134.775 68.0847C135.071 68.8783 134.543 69.0159 133.994 69.1746C134.332 69.6508 134.955 70.3492 134.67 70.582C134.057 71.0794 134.047 71.7672 133.762 72.3387C133.191 73.4709 132.136 74.0953 131.27 74.9207C130.721 75.4498 129.887 75.7355 129.802 76.6984C129.749 77.2275 129.295 77.4921 128.81 77.4286C128.028 77.3228 127.258 77.0688 127.448 78.381C127.479 78.5609 127.11 78.7302 126.825 78.6773C126.656 78.6455 126.498 78.4021 126.318 78.7196C125.547 80.0318 124.143 80.2646 122.876 80.709C122.612 80.8043 122.148 80.7514 122.327 81.1641C122.633 81.873 122.095 82 121.715 82.1376C120.638 82.4974 119.888 83.2275 119.191 84.0741C119.096 84.1905 119.012 84.2328 118.811 83.926C119.022 83.8096 119.276 83.6826 119.529 83.545L119.497 83.4921ZM49.0744 125.101C48.916 125.989 49.275 126.339 50.1725 126.296C52.8015 126.169 55.3249 126.677 57.7427 127.714C59.8649 128.624 62.1982 128.646 64.3838 128.688C68.1319 128.773 71.8378 129.418 75.5966 129.397C77.3703 129.397 79.1652 129.788 80.9601 129.831C85.1095 129.937 89.1955 130.339 92.9753 132.265C93.1548 132.349 93.3871 132.36 93.5877 132.349C95.8155 132.201 98.2016 129.799 98.0221 127.492C97.811 124.741 98.3917 122.106 98.8985 119.482C99.1519 118.169 99.0146 117.894 97.7582 117.513C96.2695 117.058 94.8441 116.561 93.271 116.36C92.2574 116.233 91.096 116.254 90.1352 115.418C89.6178 114.963 88.5831 115.111 87.8018 114.931C86.387 114.603 84.8983 114.476 83.6102 113.746C81.2241 112.392 79.8937 110.201 79.0808 107.651C77.9722 104.191 76.0083 101.238 73.675 98.5291C73.3582 98.1693 73.221 97.2381 72.5769 97.5768C72.0279 97.873 72.957 98.2223 72.9148 98.709C72.8198 99.9577 73.1682 101.206 73.8439 102.18C74.5407 103.185 73.6116 104.392 74.6146 105.376C75.0898 105.841 75.2376 106.868 75.6388 107.619C75.8605 108.032 76.1562 108.762 75.2376 108.91C74.8364 108.974 74.9736 109.228 74.9208 109.46C74.7625 110.201 74.2557 110.635 73.6222 111.048C71.7428 112.254 69.5045 112.339 67.4984 113.164C65.3446 114.053 63.1062 114.709 60.8468 115.249C58.1333 115.905 55.5149 116.91 52.7275 117.228C51.2388 117.407 49.1166 119.037 49.2011 120.212C49.3278 121.862 49.3912 123.482 49.0744 125.09V125.101ZM62.9268 49.7461C63.0851 49.5238 63.2435 49.3757 63.3068 49.1958C64.1621 46.709 64.975 44.2328 66.3793 41.9577C67.6885 39.8519 68.9871 37.8307 70.8137 36.0953C75.7549 31.3863 81.5936 28.4233 88.1397 26.6984C88.8893 26.4974 89.9874 26.836 90.3358 26.1588C90.6842 25.4921 90.3358 24.4974 90.4519 23.6826C90.5997 22.6561 90.1563 22.5185 89.2694 22.4762C86.3131 22.3281 83.4413 23.1429 80.4956 23.0159C79.7459 22.9841 78.9963 23.1005 78.2467 23.164C76.1667 23.3439 74.0656 23.2487 72.0068 23.5979C71.2994 23.7143 71.2255 22.6879 70.5392 23.0053C69.9268 23.291 69.42 23.4074 68.6598 23.1429C67.8363 22.8572 66.8122 23.1535 65.8725 23.2064C65.693 23.217 65.429 22.963 65.3235 23.2487C64.8167 24.6455 64.0565 23.9894 63.2013 23.6402C62.9056 23.5238 62.0927 22.8043 61.9237 24C61.8921 24.2328 61.1635 24.7831 60.8679 24.0741C60.34 22.7937 59.3475 23.0794 58.4606 23.3122C56.0639 23.9259 53.9629 25.5662 51.3128 25.3228C50.7637 25.2699 50.4681 26.0529 49.7501 25.8519C49.1272 25.672 48.1981 24.6138 47.8497 26.2117C47.8391 26.2646 47.6174 26.2963 47.5013 26.2963C46.4771 26.3175 45.4213 26.4127 44.64 25.545C44.2282 25.09 43.732 25.5344 43.2674 25.4074C42.9084 25.3122 42.9823 25.9259 43.0035 26.2328C43.0563 27.1535 43.2146 28.0635 43.2357 28.9841C43.278 31.9683 43.0879 34.963 43.7531 37.9154C43.827 38.2434 43.7848 38.709 44.2599 38.6032C46.2448 38.1799 48.3987 38.3281 50.0563 36.7937C50.5631 36.3281 51.3444 35.672 51.9357 36.1905C53.0337 37.1535 53.7622 36.5185 54.6597 36C56.254 35.0794 56.8452 35.1429 57.8588 36.1376C58.3973 36.6667 58.4501 37.4074 58.6824 38.0741C59.1892 39.5344 58.978 41.164 59.5587 42.5609C60.5617 44.9736 61.7654 47.291 62.9162 49.7249L62.9268 49.7461ZM145.143 90.2963C145.228 89.0794 144.774 88.1164 144.89 87.09C144.964 86.4233 144.658 85.926 143.971 85.7884C143.264 85.6508 142.747 85.926 142.472 86.6244C141.986 87.8413 141.458 89.0477 141.015 90.2858C140.149 92.6455 138.323 93.7143 136.01 94.1376C135.356 94.254 134.796 94.4656 134.532 95.1323C133.878 96.7619 133.128 98.3598 132.6 100.021C131.872 102.296 130.742 104.402 129.654 106.476C128.535 108.593 126.286 109.831 124.428 111.344C123.467 112.127 121.905 112.571 122.274 114.222C122.76 116.381 123.404 118.497 123.71 120.698C123.837 121.609 124.069 121.82 125.009 121.333C126.783 120.423 128.335 118.963 130.52 119.005C131.249 119.016 131.977 119.005 132.727 118.836C135.102 118.296 137.341 117.376 139.526 116.37C143.581 114.508 147.519 112.381 152.091 112.042C152.46 112.011 152.861 111.683 152.65 111.397C151.806 110.254 152.175 108.656 151.425 107.63C150.085 105.81 149.535 103.598 148.142 101.81C147.002 100.349 146.22 98.6561 146.431 96.6667C146.484 96.1799 146.548 95.6508 146.294 95.1746C145.587 93.8625 145.956 92.2752 145.186 90.963C145.059 90.7408 145.164 90.381 145.164 90.2963H145.143ZM124.365 9.32277C124.513 8.66669 124.249 8.11642 124.133 7.54499C124.048 7.14288 123.985 6.5397 123.51 6.62436C123.119 6.69843 122.591 7.11113 122.728 7.72489C122.866 8.34923 122.876 8.82542 122.042 8.836C121.778 8.836 121.736 9.0688 121.725 9.29103C121.683 10.4656 120.807 11.164 120.194 12.0212C120.046 12.2222 119.624 12.2963 119.867 12.709C120.226 13.3122 120.004 14.1164 119.761 14.455C118.917 15.6085 117.608 16.3598 117.006 17.7566C116.467 18.9736 115.105 19.164 114.144 19.8625C112.065 21.3651 109.604 22.1693 107.503 23.6614C105.909 24.7937 104.156 25.7249 102.71 27.0476C101.422 28.2222 99.2152 28.6984 99.3208 31.09C99.3208 31.217 99.1202 31.3545 99.0146 31.4815C98.2544 32.3386 98.719 33.5873 98.0749 34.4762C99.1941 35.291 98.0433 35.9577 97.9482 36.6984C97.7793 37.9577 96.5545 38.4551 96.0689 39.5767C95.277 41.418 95.0025 43.3334 94.823 45.2064C94.6118 47.5133 94.3796 49.8201 94.0417 52.1164C93.6933 54.5397 94.4007 56.0318 96.3011 56.9947C96.9135 57.3016 97.1141 57.1429 97.2092 56.5291C97.3886 55.3228 98.1277 54.4339 98.7823 53.4392C99.5003 52.3492 100.725 51.5873 101 50.2222C101.147 49.4603 101.316 48.6138 101.865 48.1693C103.702 46.6879 103.597 44.2963 104.61 42.4233C105.328 41.1006 105.793 39.6297 107.334 39.4286C108.337 39.3016 108.591 38.7619 109.077 38.1693C109.362 37.8201 109.668 37.6508 109.594 37.0688C109.541 36.6138 110.058 36.2011 110.618 36.1376C110.945 36.0953 111.315 36.1693 111.537 35.8307C112.233 34.8043 113.353 34.3916 114.377 33.8201C116.731 32.5185 118.748 30.8889 119.783 28.2646C120.289 26.963 120.849 25.6931 121.451 24.4339C121.936 23.3968 122.675 22.4762 122.602 21.217C122.57 20.6561 122.633 19.9683 122.929 19.5133C123.562 18.5291 123.372 17.6508 122.992 16.6561C122.654 15.7566 122.58 14.8572 122.971 13.8413C123.541 12.3598 124.576 10.9841 124.333 9.31219L124.365 9.32277ZM66.2842 62.582C66.7805 63.09 67.7096 63.2487 67.4668 63.8942C67.1078 64.8254 68.6493 65.1323 67.9841 66.0212C68.1742 66.1164 68.3537 66.254 68.5543 66.2857C68.9132 66.3387 70.0746 64.8148 69.9796 64.4339C69.6945 63.3122 69.7157 62.2963 70.6448 61.4286C71.2044 60.9101 71.5106 60.1588 71.7006 59.4498C72.4713 56.4656 74.0445 54 76.2617 51.8942C77.8982 50.3386 79.9571 49.2064 80.9601 47.0371C81.0235 46.8889 81.1607 46.6667 81.2663 46.6561C82.7445 46.5609 83.6525 45.1535 85.12 44.9841C85.9541 44.8889 86.6087 44.381 87.2739 43.8307C88.2769 43.0053 89.47 42.4445 90.8637 42.9736C91.1171 43.0688 91.6661 43.164 91.4233 42.7831C91.0537 42.2011 91.55 41.9048 91.55 41.4709C91.5816 39.5027 92.2785 37.7778 93.3449 36.1376C93.9467 35.217 95.4037 34.8254 94.9286 33.1006C94.7385 32.4233 94.5802 32.3386 94.1367 32.3175C92.4157 32.2434 90.6948 32.2011 88.9738 32.1588C88.6359 32.1588 88.1925 32.0741 87.9919 32.254C86.5243 33.4921 84.6133 33.6931 82.9662 34.4868C82.755 34.5926 82.3855 34.7831 82.396 34.8995C82.5016 35.9365 81.6147 35.7355 81.129 35.9154C79.9571 36.3386 78.5317 36.3069 78.12 37.8942C78.0883 38.0106 77.8349 38.1905 77.761 38.1588C76.8424 37.7778 76.6946 38.6138 76.4307 39.0794C75.4065 40.9101 74.1923 42.5715 72.6931 44.0529C72.3974 44.3386 71.8695 44.2752 71.7006 45.09C71.4894 46.0635 71.2783 47.2487 70.5814 48.1588C70.328 48.4974 69.8107 48.4974 69.7157 48.9736C69.3567 50.7619 68.5015 52.3069 67.5196 53.8095C67.2978 54.1482 67.1183 54.8466 67.2873 55.0371C67.9313 55.7355 67.3717 56.4762 67.5196 57.1535C67.7624 58.2222 65.8091 59.3545 67.6251 60.4021C67.7307 60.4656 67.7518 60.9736 67.604 61.3334C67.3612 61.926 66.9389 62.254 66.3054 62.582H66.2842ZM120.353 36.6244C119.983 36.3704 119.74 36.6244 119.455 36.8254C118.178 37.7143 116.763 38.3704 115.359 39.0053C114.25 39.5133 113.215 40.127 112.244 40.8466C111.758 41.2064 111.368 41.4709 112.096 42.1799C112.709 42.7725 113.405 43.09 114.081 43.5238C117.069 45.4498 120.395 46.7408 123.541 48.3492C125.505 49.3545 127.395 50.4974 129.105 51.9471C130.541 53.164 131.386 54.8254 132.674 56.1164C132.832 56.2752 132.854 56.6138 133.223 56.4868C133.529 56.381 133.624 56.1799 133.762 55.8836C134.796 53.5662 134.142 51.2275 133.17 49.2804C131.903 46.7196 130.045 44.4233 128.197 42.1799C126.582 40.2222 124.312 39.164 122.412 37.6085C121.915 37.1958 121.282 36.4021 120.342 36.6138L120.353 36.6244ZM137.436 48.508C137.056 46.7725 138.734 46.1058 138.703 44.7302C139.188 44.7513 139.262 43.4392 140.054 44.3069C140.213 44.4868 140.36 44.1482 140.318 44.0424C139.452 42.1905 142.366 43.5979 141.944 42.1376C141.986 42.2117 142.008 42.3175 142.071 42.3492C142.409 42.5291 142.63 42.4021 142.947 42.1588C143.475 41.7461 144.014 41.3122 144.784 41.2593C145.017 41.2381 145.64 41.2275 145.798 40.2117C146.136 37.9683 145.713 36.582 143.75 35.4815C142.662 34.8677 141.691 34.5397 140.445 34.9312C138.935 35.4074 137.425 36 135.926 36.3175C134.205 36.6773 132.568 37.2275 130.921 37.7884C130.605 37.8942 129.929 37.7884 130.383 38.8148C131.006 40.254 132.368 40.9736 132.97 42.3598C133.392 43.3228 134.142 44.2011 134.902 44.9524C135.546 45.5873 136.053 46.2752 136.38 47.1006C136.57 47.5767 136.855 47.9365 137.446 48.508H137.436ZM135.873 88.1164C136.063 88.4974 135.504 89.3122 136.369 89.3757C137.014 89.418 137.51 89.0477 137.457 88.2011C137.436 87.8942 137.731 87.4074 138.006 87.2593C139.157 86.6773 139.642 85.4815 140.308 84.5503C140.793 83.8731 141.332 82.7725 140.952 81.7355C140.688 81.0265 140.36 80.3704 140.255 79.5979C140.086 78.4233 138.893 78.3704 138.101 77.9048C137.816 77.7355 137.71 78.0635 137.531 78.3916C136.908 79.545 137.499 80.7725 137.066 81.9154C136.327 83.8836 136.021 85.9471 135.863 88.1059L135.873 88.1164Z" fill="#221814"/>
</svg>
