<svg width="335" height="392" viewBox="0 0 335 392" fill="none" xmlns="http://www.w3.org/2000/svg">
<path d="M225.574 264.654C224.171 264.654 224.171 262.004 222.772 262.004C221.372 262.004 221.369 262.848 219.969 262.848C218.569 262.848 218.566 263.668 217.167 263.668C215.767 263.668 215.764 261.257 214.364 261.257C212.965 261.257 212.961 261.177 211.562 261.177C210.162 261.177 210.159 265 208.759 265C207.36 265 207.357 261.537 205.957 261.537C204.557 261.537 204.554 261.907 203.155 261.907C201.755 261.907 201.752 260.129 200.352 260.129C198.952 260.129 198.949 263.031 197.55 263.031C196.15 263.031 196.147 264.82 194.747 264.82C193.348 264.82 193.344 260.938 191.945 260.938C190.545 260.938 190.542 264.26 189.142 264.26C187.743 264.26 187.74 262.876 186.34 262.876C184.94 262.876 184.94 260.239 183.538 260.239C182.135 260.239 182.135 262.997 180.735 262.997C179.335 262.997 179.335 262.128 177.933 262.128C176.53 262.128 176.53 261.184 175.13 261.184C173.731 261.184 173.727 263.616 172.328 263.616C170.928 263.616 170.925 260.118 169.525 260.118C168.126 260.118 168.123 264.606 166.723 264.606C165.323 264.606 165.32 263.806 163.921 263.806C162.521 263.806 162.518 264.305 161.118 264.305C159.718 264.305 159.715 260.143 158.313 260.143C156.91 260.143 156.91 263.91 155.507 263.91C154.104 263.91 154.104 263.101 152.701 263.101C151.299 263.101 151.299 261.724 149.896 261.724C148.493 261.724 148.493 260.046 147.09 260.046C145.687 260.046 145.687 262.772 144.285 262.772C142.882 262.772 142.882 261.281 141.479 261.281C140.076 261.281 140.076 264.952 138.674 264.952C137.271 264.952 137.271 263.184 135.868 263.184C134.465 263.184 134.465 261.53 133.062 261.53C131.66 261.53 131.66 263.364 130.257 263.364C128.854 263.364 128.854 263.931 127.451 263.931C126.048 263.931 126.048 259.959 124.646 259.959C123.243 259.959 123.243 264.969 121.84 264.969C120.437 264.969 120.437 264.467 119.034 264.467C118.082 264.467 117.175 261.43 116.235 261.385C115.296 261.34 114.457 260.309 113.518 260.219C112.578 260.129 111.258 263.817 110.321 263.685C109.385 263.554 108.386 263.281 107.456 263.101C106.526 262.921 106.305 258.821 105.382 258.596C104.458 258.371 103.096 260.302 102.185 260.035C101.274 259.769 100.653 258.447 99.7548 258.136C98.8563 257.825 98.3614 256.399 97.4725 256.043C96.5835 255.686 94.8087 257.921 93.9387 257.524C93.0686 257.126 91.959 257.212 91.1016 256.773C90.2441 256.333 89.021 256.555 88.1825 256.074C87.344 255.593 86.6978 254.572 85.8813 254.053C85.0649 253.534 84.5636 252.351 83.7661 251.791C82.9686 251.23 81.7139 251.338 80.9385 250.742C80.163 250.147 78.8043 250.279 78.0541 249.646C77.3038 249.013 77.0106 247.611 76.2856 246.944C75.5606 246.276 75.6583 244.522 74.9585 243.82C74.2586 243.117 72.6226 243.436 71.9543 242.699C71.286 241.962 72.4145 239.322 71.7746 238.554C71.1347 237.786 70.9014 236.71 70.2899 235.914C69.6783 235.118 66.2769 236.769 65.7001 235.942C65.1232 235.115 67.169 232.15 66.6268 231.299C66.0846 230.448 62.781 231.593 62.2703 230.718C61.7596 229.842 62.9355 227.773 62.4626 226.874C61.9898 225.974 62.6423 224.417 62.2041 223.494C61.7659 222.57 58.8406 222.982 58.4402 222.037C58.0399 221.093 57.2991 220.217 56.9366 219.256C56.574 218.294 60.3915 215.557 60.0668 214.581C59.7421 213.606 58.787 212.966 58.5033 211.973C58.2196 210.98 54.793 210.994 54.5502 209.99C54.3075 208.987 56.2178 207.382 56.0129 206.361C55.808 205.341 56.0539 204.275 55.89 203.247C55.7261 202.22 53.3082 201.573 53.1853 200.538C53.0623 199.504 55.1555 198.207 55.0735 197.169C54.9916 196.131 54.027 195.186 53.986 194.141C53.945 193.097 54.96 192.069 54.96 191.024H52C52 189.979 54.0837 188.945 54.1247 187.914C54.1657 186.883 52.5737 185.682 52.6557 184.651C52.7376 183.62 53.2263 182.558 53.346 181.534C53.4658 180.51 54.4368 179.576 54.6007 178.555C54.7646 177.535 54.4368 176.369 54.6385 175.359C54.8403 174.348 57.422 173.978 57.6647 172.978C57.9075 171.978 56.098 170.335 56.3817 169.346C56.6655 168.356 58.9383 168.124 59.2598 167.149C59.5814 166.173 57.3243 164.094 57.6837 163.135C58.043 162.177 60.2906 162.108 60.691 161.167C61.0913 160.226 60.2339 158.6 60.6689 157.679C61.1039 156.759 63.0017 156.721 63.4777 155.822C63.9537 154.922 62.264 152.559 62.7715 151.684C63.2791 150.808 63.4966 149.608 64.0388 148.76C64.581 147.913 66.9169 148.445 67.4937 147.622C68.0706 146.799 68.493 145.837 69.1014 145.041C69.7098 144.245 69.1298 142.246 69.7697 141.481C70.4096 140.716 73.8993 142.958 74.5676 142.225C75.2359 141.491 75.2422 140.114 75.942 139.412C76.6418 138.71 75.4628 135.655 76.1879 134.987C76.9129 134.319 79.1574 135.7 79.9108 135.067C80.6642 134.434 81.011 133.24 81.7864 132.645C82.5619 132.05 82.8582 130.645 83.6589 130.085C84.4596 129.524 84.5542 127.566 85.3738 127.047C86.1934 126.528 88.6617 129.247 89.5033 128.767C90.345 128.286 91.2151 128.019 92.0757 127.576C92.9362 127.134 92.7912 124.217 93.6676 123.819C94.5439 123.421 95.0988 121.899 95.9909 121.543C96.883 121.186 98.0966 121.612 99.0013 121.3C99.9061 120.989 101.069 121.477 101.987 121.207C102.904 120.937 104.521 124.016 105.448 123.791C106.375 123.567 106.677 120.131 107.614 119.951C108.55 119.771 109.354 118.315 110.296 118.18C111.239 118.045 112.487 120.899 113.433 120.809C114.378 120.719 115.296 121.11 116.248 121.065C117.2 121.02 118.082 117.623 119.031 117.623C120.434 117.623 120.434 118.329 121.834 118.329C123.233 118.329 123.237 118.342 124.636 118.342C126.036 118.342 126.039 121.698 127.439 121.698C128.838 121.698 128.841 117.644 130.241 117.644C131.641 117.644 131.644 120.681 133.043 120.681C134.443 120.681 134.446 120.878 135.846 120.878C137.245 120.878 137.249 121.013 138.648 121.013C140.048 121.013 140.051 117.166 141.451 117.166C142.85 117.166 142.853 117.076 144.253 117.076C145.653 117.076 145.656 121.899 147.056 121.899C148.455 121.899 148.458 121.439 149.858 121.439C151.258 121.439 151.261 121.934 152.66 121.934C154.06 121.934 154.063 117.751 155.463 117.751C156.862 117.751 156.866 119.183 158.265 119.183C159.665 119.183 159.665 118.038 161.068 118.038C162.47 118.038 162.47 119.072 163.87 119.072C165.27 119.072 165.27 118.322 166.673 118.322C168.075 118.322 168.075 119.737 169.475 119.737C170.875 119.737 170.878 122.145 172.277 122.145C173.677 122.145 173.68 117 175.08 117C176.479 117 176.483 120.806 177.882 120.806C179.282 120.806 179.285 121.332 180.685 121.332C182.084 121.332 182.087 119.245 183.487 119.245C184.887 119.245 184.89 120.667 186.293 120.667C187.695 120.667 187.695 119.543 189.098 119.543C190.501 119.543 190.501 120.197 191.904 120.197C193.307 120.197 193.307 120.595 194.709 120.595C196.112 120.595 196.112 121.83 197.515 121.83C198.918 121.83 198.918 122.041 200.321 122.041C201.723 122.041 201.723 119.418 203.126 119.418C204.529 119.418 204.529 117.505 205.932 117.505C207.335 117.505 207.335 119.18 208.737 119.18C210.14 119.18 210.14 121.418 211.543 121.418C212.946 121.418 212.946 120.297 214.348 120.297C215.751 120.297 215.751 118.657 217.154 118.657C218.557 118.657 218.557 118.079 219.96 118.079C221.362 118.079 221.362 121.574 222.765 121.574C224.168 121.574 224.168 117.969 225.571 117.969C226.523 117.969 227.418 120.941 228.357 120.986C229.297 121.031 230.306 119.764 231.245 119.854C232.184 119.944 232.909 121.944 233.846 122.075C234.782 122.207 235.892 120.83 236.822 121.01C237.751 121.19 238.401 122.733 239.324 122.958C240.248 123.183 241.124 123.328 242.035 123.598C242.946 123.868 244.649 121.179 245.547 121.491C246.446 121.802 246.663 124.39 247.552 124.743C248.441 125.096 249.699 124.38 250.572 124.777C251.445 125.175 252.671 124.784 253.529 125.224C254.386 125.663 255.66 125.341 256.498 125.822C257.337 126.303 258.371 126.601 259.19 127.12C260.01 127.639 260.294 129.275 261.091 129.832C261.889 130.389 262.617 131.15 263.389 131.745C264.162 132.34 264.247 133.998 264.997 134.631C265.747 135.264 267.557 134.496 268.282 135.164C269.007 135.831 269.946 136.34 270.646 137.042C271.346 137.744 270.145 140.64 270.813 141.374C271.481 142.107 272.178 142.744 272.818 143.512C273.458 144.28 273.534 145.505 274.142 146.3C274.75 147.096 277.751 145.775 278.328 146.601C278.905 147.428 279.012 148.695 279.555 149.546C280.097 150.397 280.762 151.21 281.273 152.085C281.783 152.96 280.046 155.316 280.519 156.216C280.992 157.115 284.683 156.084 285.122 157.008C285.56 157.932 285.812 159.053 286.212 159.997C286.613 160.942 283.98 163.353 284.343 164.315C284.705 165.277 285.254 166.083 285.579 167.062C285.903 168.041 285.919 169.055 286.206 170.051C286.493 171.048 289.097 171.273 289.343 172.279C289.588 173.286 289.295 174.459 289.5 175.476C289.705 176.493 287.432 177.998 287.596 179.026C287.76 180.053 288.523 180.88 288.646 181.915C288.769 182.949 288.097 183.977 288.179 185.015C288.261 186.053 289.194 186.935 289.235 187.98C289.276 189.025 289.396 189.99 289.396 191.031H292C292 192.076 289.324 193.052 289.283 194.086C289.242 195.121 291.546 196.328 291.464 197.359C291.382 198.39 292.101 199.601 291.978 200.628C291.855 201.656 289.986 202.452 289.825 203.469C289.664 204.486 289.257 205.469 289.056 206.482C288.854 207.496 289.094 208.645 288.851 209.644C288.608 210.644 287.076 211.232 286.792 212.222C286.509 213.211 288.019 214.879 287.694 215.851C287.369 216.823 284.318 216.619 283.955 217.578C283.593 218.536 286.442 221.048 286.042 221.985C285.642 222.923 284.044 223.272 283.605 224.193C283.167 225.113 282.259 225.756 281.786 226.656C281.314 227.555 281.386 228.832 280.879 229.707C280.371 230.583 277.846 229.939 277.304 230.79C276.762 231.641 278.984 234.71 278.407 235.534C277.83 236.357 275.526 235.686 274.917 236.482C274.309 237.277 274.454 238.793 273.814 239.557C273.174 240.322 271.44 239.914 270.769 240.647C270.098 241.38 271.056 243.982 270.356 244.685C269.656 245.387 267.412 244.159 266.687 244.826C265.962 245.494 264.94 245.653 264.187 246.286C263.434 246.919 262.787 247.573 262.012 248.172C261.236 248.77 262.519 252.766 261.722 253.327C260.924 253.887 259.332 253.15 258.513 253.669C257.693 254.188 255.376 251.639 254.534 252.119C253.693 252.6 254.002 255.507 253.144 255.946C252.287 256.385 252.104 258.631 251.228 259.029C250.351 259.426 248.45 256.998 247.558 257.354C246.666 257.71 246.509 260.482 245.604 260.793C244.699 261.104 242.928 258.126 242.01 258.395C241.093 258.665 240.113 258.236 239.186 258.461C238.259 258.686 237.818 261.312 236.885 261.492C235.951 261.672 234.772 259.793 233.83 259.928C232.887 260.063 232.099 261.056 231.154 261.146C230.208 261.236 229.423 264.135 228.471 264.18C227.519 264.225 226.513 264.644 225.561 264.644L225.574 264.654Z" fill="#FF5C0A"/>
<path d="M114.5 236L98.5 258L106.5 274.5L233 272.5L229.5 260L231.5 247.5L229.5 237.5L221.5 230.5L218.5 224.5L214 222L210.5 224.5L208.5 221L203 215V211.5L201 194.5V178V162.5V148L198.5 143H177H165H159L143 145.5H127.5V161L129 186V203.5L127.5 218L122.5 221L114.5 236Z" fill="#F9F5ED"/>
<path d="M210.82 224.005C211.63 221.705 213.4 220.815 215.55 221.565C218.61 222.625 220.54 224.885 221.73 227.805C222.15 228.845 222.46 229.945 222.65 231.055C222.87 232.285 224 232.425 224.74 232.765C227.5 234.055 229.52 236.195 230.65 238.785C231.58 240.905 231.98 243.345 232.57 245.655C232.63 245.885 232.46 246.305 232.27 246.425C231.55 246.885 231.83 247.165 232.32 247.575C232.64 247.835 232.61 248.125 232.52 248.655C232.27 250.145 231.61 251.655 232.15 253.255C232.35 253.845 231.69 254.375 231.58 255.045C231.09 258.075 232.07 260.785 233.29 263.415C234.21 265.395 235.21 267.365 236.41 269.175C237.39 270.645 238.82 271.785 240.38 272.625C241.38 273.165 241.69 273.885 241.69 274.935C241.68 298.405 241.68 321.875 241.69 345.345C241.69 346.865 241.19 347.635 239.48 347.615C236.52 347.585 233.84 346.345 231.01 345.875C227.78 345.335 224.92 344.285 222.11 342.565C219.17 340.755 215.81 339.635 212.79 337.945C210.19 336.495 207.39 335.275 205.48 332.735C204.78 331.805 203.43 331.365 202.43 330.635C198.99 328.145 196.56 324.665 193.6 321.715C189.78 317.915 186.94 313.365 183.43 309.335C180.57 306.055 178.19 302.295 176.37 298.275C175.92 297.275 175.37 296.625 174.13 296.565C172.78 296.505 171.44 296.425 170.09 296.605C169.27 296.715 168.5 296.765 167.66 296.405C166.48 295.905 165.07 295.985 163.95 296.335C161.2 297.205 158.66 296.435 156.1 295.815C153.8 295.265 152.15 295.895 150.11 297.175C147.13 299.045 145.28 301.825 142.91 304.175C141.75 305.335 141.23 307.125 139.48 307.745C138.57 311.485 134.29 311.975 132.54 314.905C132.27 315.365 131.68 315.235 131.22 315.325C130.76 315.415 130.18 315.495 130.17 316.095C130.14 317.755 128.61 318.075 127.66 318.765C125.91 320.035 124.49 321.615 122.9 323.035C121.3 324.465 120.36 326.505 117.84 327.195C116.39 327.585 114.98 329.155 113.35 329.895C111.63 330.675 110.07 331.915 108.68 333.015C107.36 334.055 105.58 334.475 104.57 335.895C104.35 336.205 104.13 336.485 103.74 336.505C101.45 336.625 100.41 338.725 98.6899 339.635C97.1399 340.455 95.8099 341.465 94.3999 342.455C93.4999 343.095 91.9399 342.085 91.7099 340.855C91.5999 340.275 91.6499 339.665 91.6499 339.065C91.6499 313.075 91.6599 287.095 91.6299 261.105C91.6299 259.305 91.8899 258.335 93.9999 257.685C97.5099 256.605 99.9299 253.665 102.61 251.225C106.65 247.545 108.65 242.615 110.99 237.885C112.62 234.595 113.52 230.995 115.31 227.775C117.4 224.005 119.71 220.455 123.7 218.385C125.53 217.435 125.83 215.445 126.39 213.825C127.01 212.025 127.06 209.985 127.13 208.035C127.18 206.615 126.3 205.335 126.33 203.815C126.36 202.495 126.09 201.105 125.61 199.775C125.48 199.415 126.04 198.325 126.32 197.885C127.23 196.495 126.69 195.115 126.82 193.745C126.91 192.715 127.56 191.535 126.2 190.735C125.99 190.615 125.65 189.915 126 189.595C127.85 187.905 126.66 185.945 126.54 184.105C126.35 181.175 126.03 178.305 126.36 175.325C126.81 171.205 126.62 167.085 125.86 162.905C125.25 159.515 124.89 155.925 125.03 152.385C125.05 151.735 125.09 151.045 125.33 150.455C125.95 148.975 125.61 147.675 124.85 146.385C124.35 145.525 124.96 142.915 125.77 142.415C126.1 142.205 126.42 142.375 126.77 142.535C128.96 143.525 131.17 143.845 133.64 143.535C136.32 143.195 139.08 142.355 141.8 143.455C141.89 143.495 141.98 143.545 142.07 143.595C143.36 140.855 145.69 142.965 147.49 142.525C149.4 142.055 151.49 142.305 153.5 142.295C155.66 142.275 157.68 141.785 159.64 140.855C160.93 140.245 162.22 140.005 163.66 140.775C165.92 141.975 168.47 141.635 170.88 141.545C174.14 141.415 177.3 142.325 180.54 142.195C181.99 142.135 183.44 141.905 184.88 141.785C189.62 141.385 194.34 141.635 199.06 141.665C199.35 141.665 199.68 141.655 199.91 141.795C202.05 143.025 203.02 145.625 202.7 148.215C202.49 149.965 202.68 151.755 201.77 153.365C203.1 154.235 202.21 155.565 202.48 156.645C203.28 159.845 203.42 163.045 202.9 166.295C202.52 168.625 203.5 170.915 203.2 173.235C202.8 176.275 203.41 179.305 203.33 182.275C203.22 186.205 204.18 190.045 203.87 193.935C203.4 199.845 204.79 205.655 204.76 211.545C204.75 213.125 204.93 214.745 206.29 216.245C208.27 218.405 209.75 221.035 210.82 224.005ZM94.7899 338.775C97.5799 336.075 100.69 334.385 103.72 332.675C112.23 327.865 119.91 321.975 126.95 315.235C128.06 314.165 129.2 313.135 130.35 312.095C134.58 308.265 139.04 304.665 142.07 299.705C142.48 299.035 143.15 298.595 143.63 298.035C145.34 296.015 147.79 294.805 149.45 292.825C152.73 288.915 155.83 284.845 158.85 280.725C159.99 279.175 161.24 277.635 161.74 275.645C162.22 273.755 163.08 272.005 163.48 270.035C163.84 268.245 165.19 266.605 165.72 264.685C166.78 260.865 167.9 257.055 169.26 253.345C170.05 251.175 170.87 249.025 171.03 246.745C171.44 240.845 170.48 235.065 169.3 229.305C168.86 227.155 167.97 225.515 165.79 224.805C163.8 224.155 162.55 222.595 161.16 221.175C160.13 220.125 158.97 219.185 157.77 218.315C154.64 216.065 150.86 215.715 147.31 214.605C143.75 213.495 140.51 213.515 137.1 214.725C134.2 215.755 131.1 216.415 129.12 219.055C127.88 220.715 126.34 222.125 124.58 223.015C120.34 225.165 119.38 229.615 117.12 233.135C116.42 234.225 116.22 235.685 115.79 236.975C114.93 239.515 112.99 241.555 112.47 244.215C112.23 245.445 111.63 246.415 110.84 247.295C108.43 249.995 106.3 252.915 103.66 255.455C101.38 257.655 98.8399 259.315 96.1299 260.705C94.9799 261.295 94.7699 261.775 94.7799 262.845C94.7999 272.605 94.7899 282.365 94.7899 292.115C94.7899 307.555 94.7899 322.995 94.7899 338.775ZM238.56 327.425C234.14 330.425 231.37 330.245 227.68 327.195C226.85 326.505 226.13 325.015 225.06 325.345C223.08 325.965 220.92 326.525 219.37 327.995C218.46 328.855 217.44 328.755 216.75 328.425C214.71 327.455 212.54 326.845 210.53 325.815C208.74 324.895 207.4 323.745 206.82 321.805C206.61 321.105 206.29 320.555 205.63 320.115C204.33 319.265 203.37 318.065 202.56 316.735C201.98 315.775 202.07 315.345 203.3 315.025C205.04 314.565 206.15 315.105 207.06 316.525C209.11 319.735 211.88 322.185 215.08 324.225C216.57 325.175 217.92 325.175 219.37 324.205C219.95 323.815 220.52 323.415 221.27 323.265C222.13 323.085 222.68 322.425 222.23 321.525C221.37 319.785 220.74 317.955 219.6 316.315C218.65 314.945 216.77 314.525 216.33 312.735C215.99 311.355 215.05 311.155 213.83 311.615C212.52 312.105 211.19 312.265 209.8 311.885C205.7 310.765 203.18 307.815 201.28 304.315C200.56 302.995 199.97 302.415 198.55 303.065C198.12 303.265 197.66 303.415 197.21 303.565C194.87 304.315 192.32 304.205 190.58 302.745C188.47 300.985 186.71 298.635 185.34 296.225C183.79 293.515 182.83 290.465 181.66 287.555C181.47 287.075 181.48 286.505 181.47 285.975C181.46 285.015 181.94 284.365 182.92 284.235C183.95 284.105 184.68 284.545 184.9 285.595C185.09 286.495 185.49 287.285 186.02 288.015C186.92 289.235 187.45 290.675 187.72 292.085C188.32 295.205 190.19 297.585 191.96 300.015C192.95 301.385 194.73 301.425 196.1 300.455C197.17 299.695 197.68 298.585 197.97 297.345C198.69 294.205 196.96 291.455 196.56 288.495C196.51 288.145 196.14 287.705 195.81 287.535C194.05 286.635 193.92 284.815 193.54 283.275C193.3 282.305 193.3 280.795 194.34 280.165C195.1 279.705 195.68 280.905 196.39 281.285C196.79 281.505 196.75 282.015 196.83 282.415C197.1 283.725 197.71 284.815 198.68 285.785C200.05 287.145 200.95 288.755 201.21 290.775C201.56 293.505 202.32 296.195 202.84 298.895C203.26 301.135 204.41 303.695 206.24 305.545C206.67 305.985 207.01 306.455 207.24 307.005C207.94 308.655 209.31 308.885 210.81 308.545C211.89 308.295 212.95 307.865 213.97 307.415C215.71 306.645 216.23 305.085 215.02 303.605C214.08 302.455 213.73 301.195 213.51 299.865C213.37 299.025 213.05 298.455 212.41 297.935C210.84 296.635 209.41 295.225 208.87 293.145C208.63 292.205 208.39 291.095 209.17 290.535C210.2 289.795 211.09 290.775 211.77 291.485C212.18 291.915 212.31 292.595 212.75 293.095C215.02 295.685 217 298.475 218.09 301.795C218.8 303.975 219.81 306.135 218.65 308.485C218.51 308.765 218.54 309.265 218.7 309.515C219.63 310.925 220.27 312.565 221.71 313.565C222.4 314.045 222.63 314.725 223.02 315.395C224.04 317.185 225.18 318.905 225.26 321.055C225.27 321.195 225.45 321.405 225.58 321.445C227.83 322.065 228.96 323.995 230.28 325.615C231.71 327.365 233.09 326.595 234.55 325.915C235.98 325.255 236.36 324.165 236.19 322.575C236.03 321.055 234.6 320.105 234.67 318.645C234.74 317.315 234.01 316.435 233.41 315.415C231.95 312.935 230.88 310.175 228.37 308.455C228.28 308.395 228.24 308.255 228.19 308.155C227.64 307.095 227.95 306.065 228.7 305.365C229.51 304.605 230.13 305.565 230.63 306.055C231.71 307.095 232.32 308.545 233.77 309.305C234.9 309.895 235.61 310.895 235.63 312.335C235.64 312.935 235.95 313.725 236.39 314.095C237.92 315.345 238.24 317.025 238.45 319.105C238.52 318.635 238.56 318.475 238.56 318.305C238.56 304.295 238.54 290.285 238.6 276.275C238.61 274.915 237.9 274.185 236.98 273.785C236.16 273.425 235.7 272.935 235.09 272.335C231.81 269.095 230.26 265.005 228.86 260.785C228.1 258.505 227.38 256.285 228.16 253.825C229.08 250.925 229.05 247.955 228.44 244.985C228.22 243.935 227.92 242.895 227.8 241.835C227.42 238.485 224.65 234.945 221.43 233.805C221.39 234.515 222.5 234.465 222.37 235.365C222.04 237.575 222.62 239.785 222.46 242.015C222.34 243.655 222 245.325 222.07 246.915C222.17 249.345 222.87 251.765 222.21 254.215C222.08 254.695 222.13 255.135 222.22 255.615C222.49 257.025 221.79 257.475 220.44 257.615C218.84 257.775 219.25 256.685 219.16 255.885C219.06 255.005 219.13 254.165 219.49 253.305C219.89 252.375 220.11 251.335 219.68 250.345C218.78 248.275 219.01 246.155 219.35 244.035C219.63 242.275 219.92 240.515 219.48 238.755C219.25 237.835 218.69 236.955 218.65 236.035C218.56 233.655 217.17 232.175 215.73 230.455C214.38 228.845 212.64 228.195 211 227.285C208.85 226.095 206.54 225.295 204.19 227.005C203.67 227.385 203.05 227.795 202.38 227.695C200.59 227.425 199.22 228.395 197.6 229.135C201.44 233.135 201.82 238.295 201.98 243.235C202.11 247.175 202.21 251.095 202.72 254.995C202.86 256.035 201.63 257.415 200.46 257.485C199.02 257.565 198.64 256.745 198.67 255.445C198.71 253.915 199.33 252.395 198.67 250.865C197.59 248.375 198.3 245.795 198.49 243.295C198.65 241.205 198.42 239.245 197.89 237.285C196.98 233.915 194.26 231.805 192.08 229.365C191.3 228.495 190.01 227.895 188.62 227.655C183.08 226.695 178.68 228.525 175.37 232.925C174.54 234.035 173.1 235.045 173.52 236.795C174.55 241.035 174.86 245.225 173.97 249.595C173.6 251.435 172.76 253.045 172.38 254.825C171.75 257.795 171.13 260.755 169.73 263.495C168.8 265.305 168.53 267.285 169.66 269.095C170.67 270.715 170.56 272.595 171.26 274.285C172.29 276.765 172.47 279.505 173.57 282.015C174.51 284.155 175.28 286.445 175.66 288.755C175.89 290.145 176.22 291.385 177.03 292.445C177.47 293.015 177.95 293.555 178.18 294.225C179.33 297.665 181.46 300.555 183.48 303.485C185.05 305.765 186.55 308.085 188.31 310.255C190.17 312.555 191.78 315.065 193.43 317.525C194.85 319.635 197.03 321.015 198.58 322.975C202.12 327.475 206.66 330.855 211.31 334.025C214.72 336.355 218.34 338.395 222.13 340.155C224.1 341.075 226.2 341.695 228.11 342.795C231.03 344.485 234.29 344.765 237.61 344.225C238.28 344.115 238.54 343.765 238.54 343.135C238.56 337.935 238.56 332.805 238.56 327.425ZM173.29 229.745C173.75 228.555 174.04 227.715 173.7 226.535C173.23 224.915 172.43 223.475 171.85 221.925C171.2 220.205 169.75 218.405 171.67 216.515C172.05 216.135 171.89 215.415 171.59 214.985C170.56 213.485 171.14 211.855 171.11 210.285C171.07 208.485 171.94 207.225 173.63 206.545C174.61 206.155 175.45 205.175 176.52 205.335C179.11 205.715 181.72 205.315 184.32 205.775C187.29 206.295 190.33 206.525 193.37 205.835C195.83 205.275 197.63 206.805 197.87 209.335C197.94 210.045 198.12 210.735 198.28 211.435C198.55 212.635 199.51 212.335 200.3 212.315C201.29 212.285 201.21 211.595 201.13 210.895C200.84 208.445 200.12 206.015 200.7 203.515C200.71 203.465 200.68 203.395 200.68 203.335C200.54 198.945 199.61 194.615 199.77 190.215C199.79 189.795 199.79 189.375 199.75 188.955C199.52 186.565 198.5 184.175 199.73 181.775C199.89 181.465 199.63 181.085 199.6 180.755C199.44 178.895 198.9 177.125 199.35 175.145C199.72 173.515 200.15 171.515 199.62 170.015C199.04 168.405 199.21 167.025 199.28 165.485C199.4 162.755 199.84 159.905 199.23 157.315C198.46 154.075 198.81 151.075 199.48 147.985C199.67 147.135 197.55 143.945 196.71 143.865C196.65 143.855 196.58 143.865 196.54 143.895C195.06 145.135 193.19 144.155 191.6 144.765C191.12 144.945 190.71 144.935 190.22 144.755C189.03 144.325 187.85 143.605 186.54 144.585C186.21 144.825 185.58 144.715 185.41 144.075C185.39 143.995 185.52 143.645 185.09 143.885C184.14 144.415 182.99 143.935 181.96 144.355C180.85 144.815 179.69 144.595 178.5 144.535C177.03 144.455 175.53 145.235 174.03 145.295C171.17 145.405 168.33 145.315 165.5 144.505C162.65 143.685 159.99 144.905 157.39 145.955C156.26 146.415 155.08 146.695 153.95 146.375C152.52 145.975 151.11 145.965 149.69 146.125C145.85 146.555 141.99 146.225 138.14 146.395C137.25 146.435 136.26 146.245 135.47 146.555C133.71 147.235 132.01 147.415 130.26 146.705C129.8 146.515 129.39 146.655 129.08 146.915C128.51 147.385 129.3 147.555 129.34 147.855C129.48 148.715 129.61 149.615 129.49 150.475C128.86 154.865 128.93 159.355 129.84 163.575C130.79 167.995 130.67 172.265 130.37 176.655C130.24 178.575 129.92 180.505 130.19 182.485C130.66 185.835 131.75 189.155 131.35 192.565C131.09 194.725 130.91 196.875 130.79 199.035C130.55 203.445 131.67 207.885 130.45 212.265C130.17 213.285 130.7 213.245 131.4 212.965C132.56 212.515 133.68 211.965 134.95 211.815C135.44 211.755 136.28 211.435 136.16 210.935C135.76 209.285 137.14 207.785 136.31 206.065C135.85 205.125 136.44 204.235 137.58 203.915C140.47 203.115 143.45 202.855 146.41 202.815C148.54 202.785 150.74 203.025 152.73 202.335C154.61 201.685 156.22 202.095 157.62 203.025C158.62 203.695 159.48 203.575 160.35 203.355C161.39 203.095 162.51 201.975 163.34 203.325C163.97 204.365 165.38 204.415 165.73 205.535C165.92 206.135 166.61 206.785 165.89 207.515C165.38 208.025 165.94 208.515 166.14 208.775C168.12 211.315 166.74 214.085 166.75 216.745C166.76 218.515 167.59 220.235 167.08 222.045C167.05 222.155 167.24 222.365 167.37 222.475C169.84 224.435 171.65 226.885 173.29 229.745ZM173.89 211.355C174.51 212.605 175.48 213.595 175.87 214.955C176.06 215.625 176.69 215.835 177.4 215.975C180.14 216.525 181.92 218.375 183.34 220.645C184.46 222.435 185.71 223.885 188.06 224.275C189.83 224.565 191.91 224.795 193.18 226.055C194.48 227.335 195.29 226.525 196.27 226.065C197.41 225.535 198.31 224.745 197.93 223.275C197.68 222.315 197.55 221.275 196.91 220.465C195.62 218.815 195.33 217.035 195.76 214.995C196.06 213.585 195.54 212.175 195.16 210.795C194.99 210.195 194.53 209.695 194.04 209.835C192.41 210.305 190.69 209.685 189.11 210.275C188.09 210.655 187.07 210.675 186.18 210.185C185.16 209.625 184.2 209.745 183.27 210.115C181.86 210.675 180.41 210.735 178.94 210.775C177.75 210.805 176.5 210.955 175.56 211.605C174.74 212.165 174.45 211.645 173.89 211.355ZM173.39 292.945C172.69 291.125 171.76 289.565 171.53 287.905C170.82 282.855 168.19 278.395 167.31 273.415C167.24 273.035 166.98 272.625 166.44 272.655C166.01 272.685 165.73 273.045 165.72 273.355C165.65 274.855 164.52 276.245 164.7 277.585C164.98 279.585 163.64 280.705 162.89 282.045C161.07 285.295 158.1 287.765 156.37 291.125C156.14 291.575 155.7 291.865 155.15 292.105C161.15 293.125 167.2 292.425 173.39 292.945ZM163.44 219.505C163.71 219.035 163.55 218.635 163.34 218.275C162.37 216.625 162.18 214.975 163.02 213.185C163.31 212.565 163.25 211.765 162.93 211.085C162.45 210.055 161.91 209.055 162.04 207.855C162.08 207.445 161.85 207.035 161.43 207.265C160.14 207.985 159.11 207.205 158.07 206.735C156.8 206.175 155.59 206.195 154.26 206.515C153 206.815 151.68 207.095 150.41 207.005C147.89 206.835 145.38 206.195 143.02 207.685C142.72 207.875 142.47 207.665 142.2 207.535C141.73 207.295 141.51 206.315 140.79 206.875C140.2 207.325 140.77 207.995 140.76 208.565C140.76 208.975 140.9 209.395 140.82 209.785C140.6 210.875 141.41 211.145 142.07 211.055C143.68 210.845 145.11 211.475 146.61 211.735C148.62 212.085 150.61 212.655 152.63 212.845C153.34 212.915 154.05 212.845 154.65 213.225C157.69 215.135 160.26 217.695 163.44 219.505ZM202.72 224.405C203.18 224.335 203.65 224.295 204.11 224.195C205.36 223.935 207.22 224.885 207.74 223.685C208.21 222.585 206.77 221.275 206.08 220.105C205.57 219.245 205.28 217.905 204.33 217.755C202.87 217.525 201.97 216.795 201.15 215.725C200.86 215.355 200.45 215.095 199.89 215.335C199.27 215.605 199.17 216.065 199.27 216.655C199.47 217.765 199.6 218.885 200.33 219.825C201.15 220.895 201.65 222.165 201.58 223.465C201.52 224.625 201.99 224.495 202.72 224.405ZM178.22 226.155C179.41 225.645 180.52 224.845 181.94 225.065C181.99 224.465 183.48 224.225 182.24 223.245C181.49 222.655 180.75 221.855 180.43 220.855C179.93 219.295 178.61 218.705 177.27 218.205C175.9 217.695 173.66 219.115 174.08 220.195C174.43 221.095 174.74 222.115 175.67 222.705C176.66 223.335 177.14 224.365 177.53 225.385C177.68 225.815 177.66 226.175 178.22 226.155ZM219.31 229.735C219.41 229.655 219.58 229.585 219.58 229.515C219.59 226.505 217.52 224.905 215.41 223.325C214.75 222.825 214.37 223.245 214.2 223.795C213.86 224.885 214.15 225.835 215.21 226.375C216.82 227.195 218.04 228.485 219.31 229.735Z" fill="#221814"/>
<path d="M195.8 190.075C196.12 192.455 195.54 194.585 196.43 196.715C196.83 197.685 196.37 199.055 196.14 200.215C195.97 201.065 195.26 201.465 194.38 201.415C188.2 201.105 182.08 201.845 175.93 202.335C174.05 202.485 172.28 202.275 170.49 203.255C169.69 203.695 168.72 202.985 168.68 201.685C168.62 199.655 168.78 197.605 168.98 195.615C169.2 193.415 169.35 191.205 168.97 189.105C168.41 186.025 168.36 182.985 168.44 179.895C168.5 177.605 168.02 175.305 168.67 173.025C168.76 172.695 168.81 172.235 168.66 171.965C167.49 169.925 168.39 167.695 168.05 165.585C167.82 164.145 169.14 163.645 170.15 163.295C171.05 162.985 172.04 162.715 173.1 163.045C174.98 163.625 176.99 162.525 178.89 163.335C178.98 163.375 179.16 163.345 179.23 163.275C181.02 161.475 183.13 162.575 185.12 162.615C187.87 162.665 190.63 162.995 193.37 162.495C194.53 162.285 195.92 163.405 195.74 164.705C195.36 167.445 196.33 170.135 195.88 172.855C195.44 175.565 196.89 178.285 195.87 180.975C194.69 184.115 196.63 187.235 195.8 190.075ZM181.24 199.095C184.12 199.375 186.94 198.545 189.82 198.615C190.93 198.645 192.04 198.225 192.97 197.505C193.38 197.185 193.75 196.735 193.47 196.285C192.46 194.645 192.96 192.935 193.12 191.245C193.39 188.455 192.7 185.665 192.97 182.905C193.44 178.085 193.2 173.245 193.46 168.425C193.5 167.705 193.6 166.305 192.42 166.315C190.68 166.325 189.02 165.635 187.26 165.965C184.12 166.545 180.87 166.445 177.82 167.555C177.59 167.635 177.23 167.515 176.99 167.375C175.29 166.395 173.48 166.815 171.71 166.975C171.28 167.015 170.75 167.315 171.15 168.245C171.64 169.395 172.01 170.905 171.68 172.035C170.95 174.515 171.68 177.025 170.88 179.565C169.67 183.425 170.53 187.455 171.7 191.315C172.04 192.415 172.28 193.465 171.89 194.635C171.68 195.275 171.51 196.205 172.09 196.685C173.68 198.015 175.7 198.545 177.66 199.025C178.79 199.315 180.04 199.095 181.24 199.095Z" fill="#221814"/>
<path d="M162.23 195.395C161.65 195.295 161.15 195.285 160.72 195.115C157.69 193.935 154.75 194.515 151.67 195.125C149.4 195.575 147.02 195.755 144.59 195.525C142.4 195.315 140.11 195.115 137.87 195.395C136.92 195.515 136.6 195.205 136.19 194.325C135.38 192.555 134.47 190.915 134.42 188.835C134.36 186.105 134.51 183.395 134.6 180.685C134.66 178.755 135.04 176.825 134.23 174.945C134.16 174.785 134.11 174.585 134.14 174.425C135.21 169.615 132.81 164.875 133.87 160.075C134 159.475 133.81 159.005 133.49 158.575C132.9 157.785 133.06 157.235 133.79 156.595C134.49 155.985 134.95 155.895 135.51 156.705C135.65 156.905 136.14 157.125 136.26 157.045C137.9 155.825 139.98 156.705 141.7 155.885C142 155.745 142.47 155.605 142.72 155.745C145.21 157.125 147.75 156.445 150.27 155.995C152.68 155.565 155.12 156.495 157.49 155.885C159.81 155.285 161.92 156.595 164.23 156.475C165.41 156.415 166.39 158.145 166.16 159.485C165.56 162.955 165.51 166.395 165.98 169.875C166.45 173.305 166.01 176.715 165.77 180.125C165.51 183.765 166.52 187.285 166.89 190.865C166.96 191.515 167.01 192.165 167.05 192.825C167.13 193.985 166.68 194.565 165.44 194.685C164.33 194.775 163.25 195.155 162.23 195.395ZM136.79 182.755C137.39 185.485 137.52 188.275 138.02 191.025C138.15 191.745 138.35 192.645 139.47 192.445C141.76 192.045 143.97 192.745 146.22 192.865C147.47 192.925 148.68 193.455 150.04 192.865C153.15 191.505 156.39 191.335 159.73 192.185C161.86 192.725 164.18 191.235 164.09 189.275C164.02 187.685 164.12 186.015 163.51 184.445C163.15 183.515 162.81 182.545 163.04 181.515C163.47 179.605 163.33 177.635 163.6 175.715C164.11 172.115 162.37 168.675 162.98 165.065C163.22 163.615 163.14 162.105 163.36 160.645C163.53 159.545 162.95 158.825 162.15 158.835C159.91 158.855 157.68 158.565 155.41 158.845C152.29 159.225 149.1 159.455 145.96 159.305C142.99 159.165 140.05 158.795 137.08 159.275C136.45 159.375 136.25 159.755 136.22 160.225C136.1 162.055 135.61 163.995 136.04 165.695C137.07 169.685 137.18 173.705 137.27 177.765C137.32 179.445 136.77 181.065 136.79 182.755Z" fill="#221814"/>
<path d="M52.9656 35.8412C55.0438 35.849 56.5359 37.0131 56.5438 38.7318C56.5359 40.1224 55.5203 41.1849 53.9969 41.5131V42.5521C55.1141 42.4818 56.2234 42.3802 57.2625 42.2318L57.4188 43.6849C54.4891 44.2006 51.2313 44.2709 48.8563 44.2631L48.6531 42.6849C49.6375 42.6849 50.7859 42.6771 51.9969 42.6459V41.5287C50.4266 41.2162 49.3797 40.1459 49.3875 38.7318C49.3797 37.0131 50.8719 35.849 52.9656 35.8412ZM50.5281 49.2162V45.1693H52.5281V47.6224H60.5438V49.2162H50.5281ZM51.2469 38.7318C51.2313 39.599 51.9578 40.099 52.9656 40.1068C53.9891 40.099 54.6688 39.599 54.6688 38.7318C54.6688 37.8412 53.9813 37.3568 52.9656 37.3412C51.9578 37.3568 51.2313 37.8412 51.2469 38.7318ZM58.0594 46.1224V35.2787H60.0594V39.7474H61.8719V41.4037H60.0594V46.1224H58.0594ZM67.5355 37.2006C67.5277 39.099 68.5043 40.8568 70.7855 41.5599L69.7386 43.1224C68.2074 42.5912 67.1683 41.6146 66.5668 40.3334C65.9418 41.8177 64.7933 42.9818 63.0824 43.5599L62.0355 41.9662C64.4652 41.1849 65.5121 39.2787 65.5199 37.2943V35.9974H67.5355V37.2006ZM64.3949 46.7318C64.3949 44.9818 66.2543 43.9584 69.2855 43.9662C72.3246 43.9584 74.1839 44.9818 74.1918 46.7318C74.1839 48.4896 72.3246 49.4896 69.2855 49.4818C66.2543 49.4896 64.3949 48.4896 64.3949 46.7318ZM66.3793 46.7318C66.3793 47.5209 67.4027 47.9349 69.2855 47.9349C71.1761 47.9349 72.1996 47.5209 72.2074 46.7318C72.1996 45.9193 71.1761 45.5131 69.2855 45.5131C67.4027 45.5131 66.3793 45.9193 66.3793 46.7318ZM69.4886 39.4974V37.8724H72.1605V35.2631H74.1449V43.5912H72.1605V39.4974H69.4886ZM83.9335 39.6224V41.2162H81.3866V42.6537C82.5116 42.599 83.6288 42.5287 84.6835 42.4193L84.8241 43.8412C81.8085 44.2631 78.5976 44.3412 75.9648 44.3412L75.6991 42.7631C76.8398 42.7631 78.0976 42.7474 79.3866 42.7162V41.2162H76.9023V36.1224H83.8085V37.7162H78.9023V39.6224H83.9335ZM77.9023 49.2318V45.1537H79.9179V47.6381H87.9648V49.2318H77.9023ZM85.5585 45.9662V35.2474H87.5898V45.9662H85.5585ZM98.9326 35.3881C102.206 35.3881 104.097 36.2474 104.105 37.8256C104.097 39.2396 102.573 40.0677 99.8858 40.224V41.0443H105.417V42.6224H92.4483V41.0443H97.917V40.2162C95.2608 40.0521 93.7451 39.224 93.7451 37.8256C93.7451 36.2474 95.6514 35.3881 98.9326 35.3881ZM93.9483 44.8881V43.4037H103.839V47.0287H95.917V47.8881H104.214V49.3881H93.9639V45.6381H101.87V44.8881H93.9483ZM95.8389 37.8256C95.8311 38.5052 96.8467 38.7865 98.9326 38.7943C101.034 38.7865 102.042 38.5052 102.042 37.8256C102.042 37.1771 101.034 36.8568 98.9326 36.8568C96.8467 36.8568 95.8311 37.1771 95.8389 37.8256ZM112.784 37.4349V39.0131H105.909V37.4349H108.378V35.6537H110.346V37.4349H112.784ZM106.237 43.0287C106.237 41.0521 107.565 39.6615 109.378 39.6537C111.198 39.6615 112.495 41.0521 112.503 43.0287C112.495 45.0131 111.198 46.4193 109.378 46.4193C107.565 46.4193 106.237 45.0131 106.237 43.0287ZM107.987 43.0287C107.987 44.1146 108.549 44.7318 109.378 44.7318C110.174 44.7318 110.745 44.1146 110.753 43.0287C110.745 41.9584 110.174 41.3099 109.378 41.3099C108.549 41.3099 107.987 41.9584 107.987 43.0287ZM113.315 48.8724V35.5443H115.174V41.0443H116.331V35.2631H118.221V49.4818H116.331V42.6381H115.174V48.8724H113.315ZM135.002 35.2631V49.4818H133.08V42.3724H131.752V48.7943H129.877V35.4974H131.752V40.7631H133.08V35.2631H135.002ZM123.314 46.0131V36.8412H125.314V44.2709C126.455 44.2396 127.713 44.1381 129.08 43.8724L129.283 45.5912C127.377 45.9193 125.752 46.0209 124.283 46.0131H123.314ZM151.532 35.2787V44.8568H149.548V40.8099H147.048V39.2162H149.548V35.2787H151.532ZM139.782 42.8099C141.766 42.1771 143.071 41.3724 143.876 40.3959L140.063 40.6849L139.782 39.1224L144.688 38.9506C144.813 38.5834 144.899 38.2006 144.946 37.7943H140.501V36.2006H147.048C147.055 40.1771 145.251 42.8646 140.548 44.3568L139.782 42.8099ZM141.204 47.8412C144.227 47.4037 145.72 45.7552 145.735 44.1224V43.7631H147.704V44.1224C147.704 45.7396 149.204 47.3646 152.204 47.8256L151.407 49.4037C149.173 49.0365 147.563 48.0365 146.712 46.6537C145.845 48.0365 144.22 49.0443 141.985 49.4193L141.204 47.8412ZM156.024 46.8881L154.68 51.3412H153.024L153.805 46.8881H156.024ZM171.992 35.2631V49.5131H169.976V35.2631H171.992ZM160.507 41.3256C160.499 38.224 162.085 36.2631 164.273 36.2631C166.414 36.2631 168.007 38.224 168.007 41.3256C168.007 44.4506 166.414 46.4037 164.273 46.4037C162.085 46.4037 160.499 44.4506 160.507 41.3256ZM162.429 41.3256C162.421 43.4427 163.164 44.599 164.273 44.5912C165.351 44.599 166.078 43.4427 166.085 41.3256C166.078 39.2162 165.351 38.0599 164.273 38.0599C163.164 38.0599 162.421 39.2162 162.429 41.3256ZM181.14 36.5443V46.0912H174.265V36.5443H181.14ZM176.265 44.5131H179.202V38.1068H176.265V44.5131ZM183.452 49.5131V35.2631H185.468V49.5131H183.452ZM192.553 39.1381C192.545 41.4349 193.733 43.8959 196.116 44.8881L195.038 46.4506C193.366 45.7396 192.21 44.3256 191.569 42.6068C190.928 44.474 189.749 46.0365 188.069 46.8099L186.928 45.2318C189.288 44.1771 190.506 41.5443 190.506 39.1381V38.2631H187.491V36.6381H195.522V38.2631H192.553V39.1381ZM196.928 49.4818V35.2631H198.944V49.4818H196.928ZM213.529 46.2631V47.9037H200.514V46.2631H205.998V44.1224H202.014V39.3412H210.061V37.7787H201.998V36.1849H212.029V40.9037H204.014V42.4974H212.358V44.1224H207.983V46.2631H213.529ZM225.584 41.6224V43.2006H221.459V46.2318H227.005V47.8568H213.99V46.2318H219.474V43.2006H215.521V36.2631H225.474V37.8568H217.521V41.6224H225.584ZM238.333 36.7318H240.692V44.0756C240.692 46.5521 238.809 48.2084 236.005 48.2006C233.192 48.2084 231.333 46.5521 231.333 44.0756V36.7318H233.677V43.8881C233.684 45.1927 234.606 46.1302 236.005 46.1381C237.419 46.1302 238.341 45.1927 238.333 43.8881V36.7318ZM242.246 48.0443V36.7318H246.684C249.254 36.7318 250.731 38.1771 250.731 40.4193C250.731 41.9662 250.02 43.0912 248.731 43.6459L251.137 48.0443H248.543L246.379 44.0287H244.59V48.0443H242.246ZM244.59 42.1224H246.246C247.637 42.1224 248.317 41.5521 248.309 40.4193C248.317 39.2787 247.637 38.6615 246.246 38.6537H244.59V42.1224ZM252.004 48.0443V36.7318H254.348V46.1068H259.223V48.0443H252.004ZM272.871 46.2631V47.9037H259.855V46.2631H265.339V44.1224H261.355V39.3412H269.402V37.7787H261.339V36.1849H271.371V40.9037H263.355V42.4974H271.699V44.1224H267.324V46.2631H272.871ZM284.925 41.6224V43.2006H280.8V46.2318H286.347V47.8568H273.331V46.2318H278.815V43.2006H274.862V36.2631H284.815V37.8568H276.862V41.6224H284.925ZM104.991 59.2787V69.6693H102.991V59.2787H104.991ZM93.2098 66.6224C95.5613 65.9349 96.6082 64.2631 96.6004 62.5756V62.4662H93.6941V60.9193H96.6004V59.3412H98.6316V60.9193H101.522V62.4662H98.616V62.5756C98.6004 64.1615 99.6785 65.7396 102.022 66.3724L101.069 67.9349C99.4285 67.4818 98.2957 66.5365 97.6473 65.3256C97.0066 66.6459 95.8504 67.6927 94.1629 68.1693L93.2098 66.6224ZM95.4598 73.2318V68.7474H97.4754V71.6381H105.366V73.2318H95.4598ZM118.014 60.0912V61.3724C118.006 62.7006 118.006 64.1459 117.647 66.1381H119.53V67.7474H113.983V73.4974H111.983V67.7474H106.561V66.1381H115.623C115.991 64.3099 116.022 62.9115 116.03 61.6849H108.045V60.0912H118.014ZM124.271 60.1068C126.467 60.1146 128.162 61.5521 128.178 63.5912C128.162 65.3099 126.967 66.599 125.287 66.9662V68.9115C126.404 68.8568 127.529 68.7631 128.584 68.6224L128.725 70.0912C125.748 70.6615 122.545 70.6537 120.131 70.6224L119.865 69.0131C120.896 69.0131 122.068 69.0131 123.303 68.9818V66.9818C121.568 66.6302 120.365 65.3334 120.365 63.5912C120.365 61.5521 122.029 60.1146 124.271 60.1068ZM122.318 63.5912C122.31 64.7084 123.146 65.3881 124.271 65.3881C125.373 65.3881 126.209 64.7084 126.209 63.5912C126.209 62.4584 125.373 61.8021 124.271 61.7943C123.146 61.8021 122.31 62.4584 122.318 63.5912ZM129.334 73.4818V59.2631H131.334V64.8412H133.271V66.5131H131.334V73.4818H129.334ZM143.255 68.1224C146.364 68.1224 148.317 69.1068 148.333 70.8099C148.317 72.4896 146.364 73.4896 143.255 73.4818C140.169 73.4896 138.185 72.4896 138.192 70.8099C138.185 69.1068 140.169 68.1224 143.255 68.1224ZM136.88 67.2162V65.6068H141.724V63.1224H143.692V65.6068H149.786V67.2162H136.88ZM138.333 61.4662V59.9037H148.255V61.0599C148.263 62.1927 148.263 63.4115 147.849 64.8724L145.896 64.6849C146.216 63.3959 146.255 62.4349 146.271 61.4662H138.333ZM140.177 70.8099C140.169 71.5756 141.294 71.9662 143.255 71.9662C145.216 71.9662 146.349 71.5756 146.349 70.8099C146.349 70.0209 145.216 69.599 143.255 69.6068C141.294 69.599 140.169 70.0209 140.177 70.8099ZM163.325 67.1693V68.7787H160.278V73.4818H158.247V68.7787H155.34V73.4818H153.294V68.7787H150.309V67.1693H163.325ZM151.622 62.9506C151.614 60.9896 153.723 59.7396 156.778 59.7318C159.833 59.7396 161.965 60.9896 161.965 62.9506C161.965 64.8646 159.833 66.0834 156.778 66.0756C153.723 66.0834 151.614 64.8646 151.622 62.9506ZM153.669 62.9506C153.661 63.9506 154.872 64.5052 156.778 64.5131C158.7 64.5052 159.903 63.9506 159.903 62.9506C159.903 61.9037 158.7 61.3334 156.778 61.3256C154.872 61.3334 153.661 61.9037 153.669 62.9506ZM175.082 59.2318V62.3256H177.004V63.9193H175.082V66.9349H173.082V59.2318H175.082ZM163.801 61.8412V60.3256H167.035V59.1693H169.02V60.3256H172.238V61.8412H163.801ZM164.488 64.5131C164.488 63.0912 165.902 62.1927 168.02 62.1849C170.152 62.1927 171.52 63.0912 171.52 64.5131C171.52 65.9662 170.152 66.8334 168.02 66.8412C165.902 66.8334 164.488 65.9662 164.488 64.5131ZM165.645 68.9506V67.5131H175.082V71.1068H167.629V71.9193H175.488V73.3881H165.676V69.7474H173.098V68.9506H165.645ZM166.442 64.5131C166.434 65.1224 167.035 65.4115 168.02 65.4193C169.012 65.4115 169.629 65.1224 169.629 64.5131C169.629 63.9115 169.012 63.5834 168.02 63.5912C167.035 63.5834 166.434 63.9115 166.442 64.5131ZM188.159 60.3724C188.152 62.0521 189.87 63.9037 193.128 64.3099L192.347 65.9193C189.863 65.5599 188.042 64.4115 187.113 62.8724C186.175 64.4037 184.363 65.5599 181.909 65.9193L181.113 64.3099C184.347 63.9037 186.058 62.0521 186.066 60.3724V59.6849H188.159V60.3724ZM180.613 68.6224V66.9974H193.581V68.6224H188.05V73.4818H186.081V68.6224H180.613ZM202.596 68.3881C202.596 69.5287 203.08 70.7162 204.229 71.4974C205.409 70.6615 205.924 69.4427 205.924 68.3881V67.9037H207.893V68.3881C207.877 69.8724 208.666 71.2396 210.565 71.8256L209.596 73.2787C208.237 72.8177 207.346 71.9506 206.854 70.849C206.385 71.9506 205.557 72.9037 204.284 73.4037C202.948 72.9193 202.112 71.9974 201.651 70.9037C201.143 71.9584 200.268 72.8177 198.971 73.2787L197.987 71.8256C199.854 71.1849 200.651 69.7709 200.659 68.3881V67.9037H202.596V68.3881ZM197.643 63.4193C197.643 61.4037 199.315 59.9974 201.534 59.9974C203.744 59.9974 205.416 61.4037 205.424 63.4193C205.416 65.3959 203.744 66.8177 201.534 66.8099C199.315 66.8177 197.643 65.3959 197.643 63.4193ZM199.596 63.4193C199.58 64.4896 200.393 65.1615 201.534 65.1537C202.643 65.1615 203.448 64.4896 203.455 63.4193C203.448 62.3177 202.643 61.6693 201.534 61.6693C200.393 61.6693 199.58 62.3177 199.596 63.4193ZM207.33 67.3099V59.2787H209.33V67.3099H207.33ZM214.822 60.2631C216.744 60.2631 218.182 61.8412 218.463 64.4037H220.932V59.2631H222.9V73.5131H220.932V65.9974H218.486C218.275 68.7318 216.807 70.4037 214.822 70.4037C212.666 70.4037 211.119 68.4506 211.135 65.3256C211.119 62.224 212.666 60.2631 214.822 60.2631ZM213.041 65.3256C213.033 67.4427 213.76 68.599 214.822 68.5912C215.892 68.599 216.603 67.4427 216.603 65.3256C216.603 63.2162 215.892 62.0599 214.822 62.0599C213.76 62.0599 213.033 63.2162 213.041 65.3256ZM237.392 70.1849V71.8256H224.376V70.1849H227.283V66.7006C226.181 66.0365 225.517 65.0287 225.517 63.7787C225.517 61.474 227.767 59.9584 230.861 59.9506C233.939 59.9584 236.212 61.474 236.22 63.7787C236.212 65.0052 235.572 65.9974 234.501 66.6615V70.1849H237.392ZM227.486 63.7787C227.486 65.1693 228.822 66.0287 230.861 66.0287C232.869 66.0287 234.244 65.1693 234.251 63.7787C234.244 62.349 232.869 61.5209 230.861 61.5287C228.822 61.5209 227.486 62.349 227.486 63.7787ZM229.251 70.1849H232.486V67.4193C231.978 67.5209 231.431 67.5756 230.861 67.5756C230.29 67.5756 229.751 67.5209 229.251 67.4271V70.1849ZM241.087 60.7318L240.884 68.6537H238.884L238.681 60.7318H241.087ZM238.587 70.8724C238.571 70.1537 239.165 69.5677 239.899 69.5756C240.595 69.5677 241.196 70.1537 241.196 70.8724C241.196 71.599 240.595 72.1849 239.899 72.1849C239.165 72.1849 238.571 71.599 238.587 70.8724Z" fill="#221814"/>
</svg>
