<svg width="335" height="392" viewBox="0 0 335 392" fill="none" xmlns="http://www.w3.org/2000/svg">
<g clip-path="url(#clip0_267_43)">
<path d="M202 225.122C202 226.571 200.349 228.021 200.264 229.448C200.179 230.874 197.768 231.898 197.593 233.318C197.418 234.739 196.945 235.875 196.685 237.278C196.425 238.68 198.188 240.627 197.853 242.006C197.517 243.385 196.822 244.551 196.401 245.895C195.98 247.238 193.616 247.357 193.124 248.659C192.632 249.961 194.902 252.914 194.339 254.174C193.777 255.435 192.741 256.323 192.117 257.542C191.493 258.761 190.618 259.696 189.927 260.862C189.237 262.028 190.594 265.236 189.852 266.348C189.109 267.461 188.495 268.887 187.705 269.947C186.915 271.006 184.026 269.526 183.189 270.533C182.352 271.539 180.134 270.444 179.255 271.397C178.375 272.35 177.581 273.107 176.668 274.001C175.755 274.894 177.864 280.807 176.919 281.641C175.973 282.476 172.464 278.51 171.49 279.292C170.516 280.073 169.934 281.405 168.932 282.132C167.929 282.86 167.693 285.169 166.667 285.837C165.641 286.506 164.052 285.612 163.007 286.234C161.962 286.855 161.688 289.513 160.624 290.075C159.56 290.637 159.413 294.247 158.33 294.756C157.247 295.265 155.517 293.726 154.42 294.182C153.322 294.638 152.608 296.881 151.497 297.283C150.386 297.686 147.87 291.513 146.745 291.862C145.619 292.211 145.676 298.781 144.541 299.082C143.406 299.384 141.903 297.502 140.763 297.751C139.623 297.999 138.105 294.916 136.961 295.117C135.817 295.318 134.786 295.857 133.632 296.005C132.478 296.153 131.419 296.514 130.265 296.615C129.111 296.715 128.166 301.947 127.007 301.994C125.849 302.042 124.624 295.999 123.465 295.999C122.307 295.999 121.153 298.946 120.009 298.899C118.864 298.852 117.89 295.224 116.746 295.123C115.602 295.023 114.117 299.988 112.982 299.84C111.847 299.692 110.977 296.455 109.842 296.259C108.707 296.064 107.856 293.999 106.726 293.75C105.596 293.502 104.338 294.478 103.217 294.182C102.096 293.886 101.207 292.643 100.096 292.294C98.9849 291.945 97.7791 292.3 96.682 291.904C95.585 291.507 93.2159 296.064 92.1283 295.608C91.0407 295.153 91.7831 288.222 90.7097 287.713C89.6363 287.204 86.3735 293.531 85.319 292.969C84.2645 292.407 84.3165 288.506 83.2809 287.897C82.2453 287.287 80.6659 287.915 79.654 287.252C78.642 286.589 77.5733 285.861 76.585 285.145C75.5967 284.429 74.1261 284.47 73.1614 283.701C72.1968 282.931 72.4947 279.682 71.5631 278.854C70.6316 278.025 68.3713 279.309 67.4681 278.428C66.5649 277.546 68.532 272.302 67.6667 271.367C66.8013 270.432 62.3564 274.368 61.5336 273.373C60.7108 272.379 61.3775 269.355 60.5973 268.307C59.817 267.26 60.6824 264.419 59.9542 263.318C59.226 262.217 57.3203 262.318 56.6394 261.164C55.9584 260.01 54.6675 259.335 54.0433 258.134C53.4191 256.932 53.9251 254.861 53.3671 253.606C52.8091 252.352 52.4639 251.014 51.9721 249.718C51.4803 248.422 49.0261 248.144 48.6053 246.806C48.1844 245.469 48.3641 243.764 48.0236 242.391C47.6832 241.018 50.284 238.722 50.0239 237.319C49.7638 235.916 48.2743 234.964 48.0993 233.537C47.9243 232.111 49.6503 230.602 49.5605 229.164C49.4706 227.726 49.1444 226.56 49.1444 225.11C49.1444 223.66 47.3569 222.287 47.442 220.854C47.5271 219.422 45.839 217.718 46.0139 216.297C46.1889 214.877 48.7992 214.031 49.0592 212.634C49.3193 211.237 48.4114 209.497 48.7519 208.118C49.0923 206.739 48.4161 204.875 48.8323 203.532C49.2484 202.188 52.7145 202.543 53.2063 201.241C53.6981 199.939 52.8138 197.891 53.3765 196.631C53.9393 195.37 56.053 195.441 56.6819 194.228C57.3108 193.015 55.6038 189.914 56.2942 188.748C56.9845 187.582 58.7105 187.505 59.4529 186.392C60.1953 185.28 61.0323 184.41 61.822 183.35C62.6117 182.291 61.7464 179.225 62.5786 178.225C63.4109 177.225 64.9193 177.112 65.7941 176.165C66.6689 175.218 68.655 176.065 69.5676 175.171C70.4803 174.277 69.6291 170.478 70.5748 169.643C71.5206 168.809 72.1873 167.329 73.1614 166.548C74.1356 165.767 76.3344 167.46 77.3369 166.732C78.3394 166.004 77.7672 161.612 78.7933 160.938C79.8195 160.263 82.4628 163.583 83.5126 162.968C84.5624 162.352 85.8486 162.583 86.9173 162.021C87.9859 161.458 88.9932 160.949 90.076 160.44C91.1589 159.931 92.691 161.37 93.7881 160.914C94.8851 160.458 94.7054 155.061 95.8167 154.658C96.9279 154.256 98.6917 156.943 99.8124 156.588C100.933 156.233 101.846 155.013 102.981 154.712C104.116 154.41 105.373 155.292 106.513 155.043C107.653 154.794 108.13 149.154 109.275 148.953C110.419 148.752 111.743 149.604 112.892 149.456C114.041 149.308 115.195 148.101 116.349 148C117.503 147.9 118.94 155.126 120.099 155.078C121.257 155.031 122.297 151.906 123.456 151.906C124.615 151.906 125.844 148.48 126.988 148.533C128.133 148.586 129.23 151.38 130.369 151.474C131.509 151.569 132.738 150.942 133.878 151.09C135.018 151.237 135.949 153.67 137.084 153.865C138.219 154.061 139.874 150.421 140.999 150.669C142.125 150.918 143.222 151.93 144.343 152.226C145.463 152.522 146.017 156.043 147.128 156.392C148.239 156.742 150.216 153.285 151.313 153.682C152.41 154.078 153.62 154.481 154.703 154.931C155.786 155.38 155.252 161.606 156.325 162.109C157.399 162.612 159.144 160.843 160.198 161.399C161.253 161.956 162.69 161.47 163.726 162.08C164.761 162.689 165.622 163.802 166.634 164.465C167.646 165.128 167.972 167.318 168.96 168.034C169.949 168.75 170.63 169.963 171.594 170.738C172.559 171.514 176.091 167.578 177.027 168.406C177.964 169.235 176.167 174.721 177.065 175.603C177.964 176.485 180.981 174.159 181.846 175.1C182.711 176.041 184.225 176.296 185.047 177.284C185.87 178.272 186.816 179.367 187.596 180.415C188.376 181.462 186.958 185.043 187.691 186.144C188.424 187.244 190.254 187.298 190.935 188.452C191.616 189.606 192.902 190.357 193.521 191.565C194.141 192.772 193.233 195.199 193.791 196.447C194.349 197.696 194.481 199.193 194.968 200.49C195.455 201.786 196.131 202.934 196.552 204.277C196.973 205.621 198.997 206.289 199.333 207.668C199.669 209.047 201.262 210.178 201.517 211.58C201.773 212.983 200.714 214.871 200.884 216.303C201.054 217.735 197.626 219.6 197.711 221.038C197.796 222.476 201.986 223.677 201.986 225.127L202 225.122Z" fill="#FF5C0A"/>
</g>
<path d="M96 232.5L97.5 229.5L106.5 226L114 223.5L123 221.5L128 219L140.5 214.5L157.5 211V207.5L148 206L140.5 200.5V195.5V186.5L143 175.5L145 166L151 161L188 163.5L197.5 170.5L208 218L204 267.5L159 307.5H114L92 293.5L97.5 287L106.5 281L110.5 278.5L108 270.5L106.5 265.5L103.5 258.5L102 250L97.5 237L96 232.5Z" fill="#F9F5ED"/>
<path d="M78.2419 35.2631V49.4818H76.2262V35.2631H78.2419ZM66.3356 45.4506C70.0075 43.7162 71.6247 41.4662 71.945 38.3099H67.1012V36.7474H73.9762C73.9684 41.0599 72.4606 44.6459 67.3825 47.0443L66.3356 45.4506ZM92.7649 42.8881V44.4818H79.7492V42.8881H85.2649V41.8568H81.3742V37.9506H89.1867V37.0756H81.343V35.5287H91.1867V39.3881H83.3586V40.3256H91.4524V41.8568H87.2492V42.8881H92.7649ZM81.2024 46.8568V45.2943H91.2649V49.4193H89.2492V46.8568H81.2024ZM104.46 35.2631V40.8256H106.553V42.4662H104.46V49.4818H102.491V35.2631H104.46ZM93.1629 38.9818V37.3881H96.3816V35.4818H98.3816V37.3881H101.522V38.9818H93.1629ZM93.741 43.1693C93.7332 41.1849 95.2801 39.7709 97.3816 39.7787C99.4519 39.7709 101.007 41.1849 101.007 43.1693C101.007 45.1537 99.4519 46.5521 97.3816 46.5599C95.2801 46.5521 93.7332 45.1537 93.741 43.1693ZM95.6472 43.1693C95.6472 44.2709 96.3738 44.9271 97.3816 44.9193C98.3738 44.9271 99.1004 44.2709 99.1004 43.1693C99.1004 42.0756 98.3738 41.4037 97.3816 41.3881C96.3738 41.4037 95.6472 42.0756 95.6472 43.1693ZM118.436 36.4974V37.8412C118.428 39.6224 118.428 41.6224 117.858 44.6381L115.858 44.4349C116.405 41.7474 116.428 39.7474 116.436 38.0756H108.061V36.4974H118.436ZM106.717 47.7474V46.1224H111.358V41.2318H113.342V46.1224H119.686V47.7474H106.717ZM135.435 35.2787V43.1537H133.435V35.2787H135.435ZM123.482 41.3881C125.857 40.6693 126.904 38.8959 126.904 37.1381V35.7631H128.982V37.1381C128.966 38.8256 129.997 40.4974 132.326 41.1381L131.372 42.7162C129.732 42.2318 128.599 41.2474 127.951 39.974C127.302 41.349 126.138 42.4349 124.435 42.9506L123.482 41.3881ZM125.622 49.3256V47.7318H127.466V45.3724H125.747V43.7943H135.513V45.3724H133.81V47.7318H135.638V49.3256H125.622ZM129.435 47.7318H131.841V45.3724H129.435V47.7318ZM149.974 42.5287V44.1224H137.005V42.5287H149.974ZM138.302 38.6068C138.302 36.7943 140.356 35.6849 143.489 35.7006C146.599 35.6849 148.653 36.7943 148.661 38.6068C148.653 40.4271 146.599 41.5443 143.489 41.5443C140.356 41.5443 138.302 40.4271 138.302 38.6068ZM138.567 49.2318V45.0756H140.567V47.6381H148.505V49.2318H138.567ZM140.38 38.6068C140.364 39.4896 141.513 39.9349 143.489 39.9349C145.45 39.9349 146.599 39.4896 146.599 38.6068C146.599 37.7474 145.45 37.2787 143.489 37.2631C141.513 37.2787 140.364 37.7474 140.38 38.6068ZM161.238 36.6224C161.223 41.0131 160.16 44.6615 154.848 47.3256L153.754 45.8256C156.129 44.6459 157.543 43.3256 158.348 41.7474L154.145 42.1381L153.895 40.4349L158.949 40.1302C159.098 39.5287 159.199 38.8881 159.246 38.2162H154.645V36.6224H161.238ZM163.035 49.4506V35.2631H165.035V40.7162H167.051V42.3568H165.035V49.4506H163.035ZM173.043 36.8412V38.4037H169.621V40.6693H172.48V42.1849H169.621V44.7396C171.144 44.7162 172.261 44.6381 173.59 44.4193L173.761 46.0287C172.129 46.3256 170.769 46.3412 168.683 46.3412H167.73V36.8412H173.043ZM173.152 42.0443V40.4506H174.746V35.5131H176.605V48.8412H174.746V42.0443H173.152ZM177.699 49.4818V35.2631H179.621V49.4818H177.699ZM192.488 36.4974V37.8412C192.48 39.6224 192.48 41.6224 191.909 44.6381L189.909 44.4349C190.456 41.7474 190.48 39.7474 190.488 38.0756H182.113V36.4974H192.488ZM180.769 47.7474V46.1224H185.409V41.2318H187.394V46.1224H193.738V47.7474H180.769ZM206.167 35.2631V49.5131H204.182V35.2631H206.167ZM194.995 38.0599V36.4506H201.76V41.9349H197.073V44.5443C199.245 44.5287 201.081 44.4193 203.167 44.0756L203.339 45.6849C201.003 46.099 198.885 46.1849 196.292 46.1849H195.01V40.3568H199.729V38.0599H194.995ZM220.721 41.6381V43.1224H207.705V41.6381H220.721ZM209.19 45.2006V43.8256H219.159V47.1849H211.19V47.9974H219.58V49.3568H209.205V45.9193H217.19V45.2006H209.19ZM209.299 36.8724V35.5131H219.143V38.8568H211.315V39.6224H219.393V40.9662H209.33V37.5912H217.143V36.8724H209.299ZM236.251 36.4974V37.8412C236.244 39.6224 236.244 41.6224 235.673 44.6381L233.673 44.4349C234.22 41.7474 234.244 39.7474 234.251 38.0756H225.876V36.4974H236.251ZM224.533 47.7474V46.1224H229.173V41.2318H231.158V46.1224H237.501V47.7474H224.533ZM251.024 46.2318V47.8568H238.009V46.2318H251.024ZM239.493 37.8099V36.2162H249.524V40.9506H241.509V42.5756H249.853V44.1381H239.509V39.3568H247.556V37.8099H239.493ZM263.204 36.4974V37.8412C263.196 39.6224 263.196 41.6224 262.625 44.6381L260.625 44.4349C261.172 41.7474 261.196 39.7474 261.204 38.0756H252.829V36.4974H263.204ZM251.485 47.7474V46.1224H256.125V41.2318H258.11V46.1224H264.454V47.7474H251.485ZM267.961 46.8881L266.617 51.3412H264.961L265.742 46.8881H267.961ZM41.0791 62.4818C41.0713 65.0287 42.1573 67.599 44.4385 68.7006L43.2354 70.2943C41.7119 69.5365 40.6807 68.1302 40.0948 66.4193C39.4698 68.2552 38.376 69.7631 36.7666 70.5599L35.5323 68.9506C37.9463 67.8412 39.0791 65.1224 39.0791 62.4818V60.3568H41.0791V62.4818ZM45.0635 73.4818V59.2631H47.0635V64.7474H49.1573V66.4349H47.0635V73.4818H45.0635ZM54.8678 62.0756C54.8599 63.7709 55.9224 65.5052 58.2584 66.2162L57.2428 67.7787C55.649 67.2709 54.5318 66.2474 53.8912 64.9662C53.2428 66.3724 52.0865 67.4896 50.4146 68.0443L49.3834 66.4818C51.7506 65.724 52.8365 63.8724 52.8365 62.0756V61.8724H49.9146V60.2787H57.7271V61.8724H54.8678V62.0756ZM51.6959 73.2318V68.6224H53.7115V71.6381H61.6021V73.2318H51.6959ZM59.2271 69.5599V59.2787H61.2271V69.5599H59.2271ZM70.797 60.6849V61.8256C70.7814 63.1615 70.7814 64.9115 70.4064 67.2787L68.4376 67.1224C68.7658 65.0599 68.797 63.5365 68.8126 62.2787H63.422V60.6849H70.797ZM62.672 68.9818C63.4689 68.9818 64.3595 68.974 65.2814 68.9506V64.7631H67.2501V68.8881C68.6486 68.8334 70.0626 68.7318 71.3751 68.5599L71.5001 70.0443C68.5704 70.5365 65.3517 70.5912 62.8595 70.5756L62.672 68.9818ZM72.047 73.4818V59.2631H74.0626V64.9818H76.0001V66.6381H74.0626V73.4818H72.047ZM90.8899 59.2631V62.7631H92.8118V64.4349H90.8899V67.8412H88.8899V59.2631H90.8899ZM79.6086 62.1224V60.5443H82.843V59.1849H84.8274V60.5443H88.0461V62.1224H79.6086ZM80.2961 65.1068C80.2961 63.6068 81.7336 62.5599 83.8274 62.5599C85.8977 62.5599 87.3274 63.6068 87.3274 65.1068C87.3274 66.6459 85.8977 67.6771 83.8274 67.6849C81.7336 67.6771 80.2961 66.6459 80.2961 65.1068ZM81.593 73.3256V68.4662H90.8899V73.3256H81.593ZM82.2493 65.1068C82.2414 65.8334 82.8743 66.2084 83.8274 66.2162C84.7883 66.2084 85.4368 65.8334 85.4368 65.1068C85.4368 64.4271 84.7883 64.0521 83.8274 64.0599C82.8743 64.0521 82.2414 64.4271 82.2493 65.1068ZM83.5618 71.7318H88.9211V70.0287H83.5618V71.7318ZM96.5848 60.8881C96.5691 64.4427 96.2254 67.6224 94.4129 70.4349L92.866 69.6224C94.3269 67.4115 94.7644 65.2474 94.8582 62.4974H93.3348V60.8881H96.5848ZM96.0848 70.3099C97.6785 67.8881 97.9988 65.3802 98.0691 62.4974H96.991V60.8881H99.7723C99.7723 62.1381 99.741 63.3802 99.6316 64.5912H100.85V59.5756H102.725V72.8568H100.85V66.2006H99.4285C99.1316 67.9427 98.5926 69.6146 97.6004 71.1537L96.0848 70.3099ZM103.616 73.4818V59.2631H105.522V73.4818H103.616ZM122.865 67.7787V69.4037H117.35V73.4974H115.381V69.4037H109.896V67.7787H122.865ZM110.553 65.4506C113.506 65.1224 115.107 63.7318 115.35 62.4662H111.068V60.9037H115.381V59.2787H117.35V60.9037H121.678V62.4662H117.412C117.631 63.7162 119.232 65.1224 122.178 65.4506L121.459 67.0131C119.045 66.7396 117.303 65.7474 116.381 64.4584C115.451 65.7631 113.701 66.7396 111.271 67.0131L110.553 65.4506ZM135.357 68.3256V73.4974H133.373V69.9037H125.591V68.3256H135.357ZM123.56 63.4974C123.544 61.4818 125.185 60.0131 127.341 60.0287C129.169 60.0131 130.63 61.1068 130.998 62.7006H133.373V59.2631H135.357V67.6693H133.373V64.3412H130.99C130.615 65.9584 129.154 67.0365 127.341 67.0443C125.185 67.0365 123.544 65.5677 123.56 63.4974ZM125.451 63.4974C125.443 64.6615 126.263 65.3412 127.341 65.3412C128.388 65.3412 129.193 64.6615 129.201 63.4974C129.193 62.3881 128.388 61.7006 127.341 61.7006C126.263 61.7006 125.443 62.3881 125.451 63.4974ZM143.333 59.4662C146.606 59.4662 148.497 60.3256 148.505 61.8881C148.497 63.474 146.606 64.3256 143.333 64.3256C140.052 64.3256 138.146 63.474 138.146 61.8881C138.146 60.3256 140.052 59.4662 143.333 59.4662ZM136.849 66.5756V64.9974H149.817V66.5756H136.849ZM138.349 68.8568V67.4037H148.239V71.0287H140.317V71.8881H148.614V73.3881H138.364V69.6381H146.271V68.8568H138.349ZM140.239 61.8881C140.231 62.5834 141.247 62.8568 143.333 62.8568C145.435 62.8568 146.442 62.5834 146.442 61.8881C146.442 61.2552 145.435 60.9193 143.333 60.9193C141.247 60.9193 140.231 61.2552 140.239 61.8881ZM165.129 59.8412V60.8099C165.137 61.724 165.137 62.8646 164.856 64.2943H166.676V65.8568H153.66V64.2943H162.848C163.074 63.1381 163.121 62.2084 163.137 61.4193H155.254V59.8412H165.129ZM155.129 68.4037V66.8568H165.067V70.8412H157.129V71.8412H165.457V73.3724H155.145V69.3412H163.098V68.4037H155.129ZM180.152 70.2631V71.9037H167.136V70.2631H172.621V68.1224H168.636V63.3412H176.683V61.7787H168.621V60.1849H178.652V64.9037H170.636V66.4974H178.98V68.1224H174.605V70.2631H180.152ZM195.229 59.2787V62.2787H197.151V63.9037H195.229V67.2943H193.229V59.2787H195.229ZM184.526 66.5287V59.9506H186.526V64.8959C188.253 64.8568 190.104 64.6927 192.073 64.3099L192.307 65.9349C189.964 66.4037 187.753 66.5287 185.745 66.5287H184.526ZM185.917 73.3099V67.9349H195.229V73.3099H185.917ZM187.87 71.7474H193.276V69.4818H187.87V71.7474ZM209.377 59.2631V73.4818H207.362V59.2631H209.377ZM197.471 69.4506C201.143 67.7162 202.76 65.4662 203.08 62.3099H198.237V60.7474H205.112C205.104 65.0599 203.596 68.6459 198.518 71.0443L197.471 69.4506ZM218.244 60.4193V61.4974H220.9V59.2787H222.885V69.6224H220.9V66.1381H218.244V67.3412H211.494V60.4193H218.244ZM213.416 73.2318V68.6381H215.432V71.6381H223.182V73.2318H213.416ZM213.478 65.7943H216.291V61.9974H213.478V65.7943ZM218.244 64.5599H220.9V63.1068H218.244V64.5599ZM231.993 59.8412C234.071 59.849 235.563 61.0131 235.571 62.7318C235.563 64.1224 234.548 65.1849 233.024 65.5131V66.5521C234.142 66.4818 235.251 66.3802 236.29 66.2318L236.446 67.6849C233.517 68.2006 230.259 68.2709 227.884 68.2631L227.681 66.6849C228.665 66.6849 229.813 66.6771 231.024 66.6459V65.5287C229.454 65.2162 228.407 64.1459 228.415 62.7318C228.407 61.0131 229.899 59.849 231.993 59.8412ZM229.556 73.2162V69.1693H231.556V71.6224H239.571V73.2162H229.556ZM230.274 62.7318C230.259 63.599 230.985 64.099 231.993 64.1068C233.017 64.099 233.696 63.599 233.696 62.7318C233.696 61.8412 233.009 61.3568 231.993 61.3412C230.985 61.3568 230.259 61.8412 230.274 62.7318ZM237.087 70.1224V59.2787H239.087V63.7474H240.899V65.4037H239.087V70.1224H237.087ZM246.563 61.2006C246.555 63.099 247.532 64.8568 249.813 65.5599L248.766 67.1224C247.235 66.5912 246.196 65.6146 245.594 64.3334C244.969 65.8177 243.821 66.9818 242.11 67.5599L241.063 65.9662C243.493 65.1849 244.54 63.2787 244.547 61.2943V59.9974H246.563V61.2006ZM243.422 70.7318C243.422 68.9818 245.282 67.9584 248.313 67.9662C251.352 67.9584 253.211 68.9818 253.219 70.7318C253.211 72.4896 251.352 73.4896 248.313 73.4818C245.282 73.4896 243.422 72.4896 243.422 70.7318ZM245.407 70.7318C245.407 71.5209 246.43 71.9349 248.313 71.9349C250.204 71.9349 251.227 71.5209 251.235 70.7318C251.227 69.9193 250.204 69.5131 248.313 69.5131C246.43 69.5131 245.407 69.9193 245.407 70.7318ZM248.516 63.4974V61.8724H251.188V59.2631H253.172V67.5912H251.188V63.4974H248.516ZM266.57 59.2631V73.5131H264.555V59.2631H266.57ZM255.086 65.3256C255.078 62.224 256.664 60.2631 258.852 60.2631C260.992 60.2631 262.586 62.224 262.586 65.3256C262.586 68.4506 260.992 70.4037 258.852 70.4037C256.664 70.4037 255.078 68.4506 255.086 65.3256ZM257.008 65.3256C257 67.4427 257.742 68.599 258.852 68.5912C259.93 68.599 260.656 67.4427 260.664 65.3256C260.656 63.2162 259.93 62.0599 258.852 62.0599C257.742 62.0599 257 63.2162 257.008 65.3256ZM280.468 59.2631V73.4818H278.562V59.2631H280.468ZM268.265 65.4193C268.265 62.2396 269.476 60.2709 271.359 60.2787C273.07 60.2709 274.242 61.8724 274.461 64.5287H275.625V59.4662H277.5V72.8256H275.625V66.1068H274.476C274.304 68.8959 273.109 70.5912 271.359 70.5912C269.476 70.5912 268.265 68.6146 268.265 65.4193ZM270.109 65.4193C270.093 67.6068 270.562 68.6849 271.359 68.6693C272.179 68.6849 272.664 67.6068 272.656 65.4193C272.664 63.2396 272.179 62.1537 271.359 62.1537C270.562 62.1537 270.093 63.2396 270.109 65.4193ZM294.632 70.1849V71.8256H281.616V70.1849H284.523V66.7006C283.421 66.0365 282.757 65.0287 282.757 63.7787C282.757 61.474 285.007 59.9584 288.101 59.9506C291.179 59.9584 293.452 61.474 293.46 63.7787C293.452 65.0052 292.812 65.9974 291.741 66.6615V70.1849H294.632ZM284.726 63.7787C284.726 65.1693 286.062 66.0287 288.101 66.0287C290.109 66.0287 291.484 65.1693 291.491 63.7787C291.484 62.349 290.109 61.5209 288.101 61.5287C286.062 61.5209 284.726 62.349 284.726 63.7787ZM286.491 70.1849H289.726V67.4193C289.218 67.5209 288.671 67.5756 288.101 67.5756C287.53 67.5756 286.991 67.5209 286.491 67.4271V70.1849ZM298.327 60.7318L298.124 68.6537H296.124L295.921 60.7318H298.327ZM295.827 70.8724C295.811 70.1537 296.405 69.5677 297.139 69.5756C297.835 69.5677 298.436 70.1537 298.436 70.8724C298.436 71.599 297.835 72.1849 297.139 72.1849C296.405 72.1849 295.811 71.599 295.827 70.8724Z" fill="#221814"/>
<path d="M263.06 257.93C262.41 259.69 262.51 261.58 262.14 263.39C261.75 265.28 261.03 266.99 260.39 268.76C259.53 271.14 257.85 273.26 258.06 276.02C258.11 276.73 257.66 277.5 257.35 278.2C256.87 279.29 256.26 280.32 256.29 281.58C256.3 281.91 256.13 282.36 255.88 282.55C253.12 284.66 252.33 287.97 251.85 290.93C251.45 293.43 250.2 295.58 249.84 298.07C249.62 299.59 249.18 301.4 247.94 302.84C246.89 304.06 246.75 305.91 246.68 307.59C246.63 308.66 246.27 309.44 245.45 310.22C243.61 311.96 243.36 314.46 243.1 316.77C242.8 319.4 241.84 321.92 241.91 324.61C241.93 325.31 241.44 326.09 241.02 326.73C239.43 329.2 239.97 332.22 238.82 334.81C238.08 336.47 237.62 338.24 237.5 340.12C237.41 341.44 235.69 342.47 234.31 342.26C232.43 341.97 230.56 341.62 228.69 341.24C227.68 341.04 226.83 340.51 226.1 339.75C224.94 338.53 223.45 337.77 221.82 337.84C218.64 337.96 215.73 336.97 212.85 335.92C211.05 335.26 209.28 335.11 207.42 335.23C206.77 335.27 206.1 335.39 205.5 335C202.48 332.99 198.96 332.45 195.53 331.68C194.18 331.38 192.91 330.9 191.7 330.25C188.14 328.34 184.11 328.45 180.29 327.84C178.47 327.55 176.62 327.23 175.3 326.21C173.38 324.73 171.2 324.64 169.08 324.1C167.18 323.62 165.76 322.7 165.45 320.51C165.35 319.82 165.51 319.35 165.98 319.2C166.87 318.91 166.95 318.26 167.25 317.53C167.58 316.74 167.83 316 167.2 315.46C166.58 314.94 165.75 315.43 165.26 315.84C163.24 317.47 160.68 317.45 158.43 318.31C157.11 318.82 155.82 319.59 154.45 320.11C150.7 321.53 147.35 324.2 142.95 323.65C141.67 323.49 141.34 325.08 140.47 325.76C139.94 326.17 139.59 326.35 138.87 326.45C136.19 326.81 133.08 326.96 131.28 328.95C129.88 330.5 127.12 331.36 127.42 334.25C127.66 336.51 126.09 338.8 127.5 341.04C127.84 341.59 127.6 342.11 127.42 342.59C126.53 345.02 126.38 347.59 126.04 350.12C125.89 351.24 126.02 352.36 126.25 353.49C126.73 355.83 125.85 356.82 123.49 356.82C107.33 356.82 91.1699 356.82 75.0099 356.82C72.5099 356.82 72.2599 356.52 72.2099 354.03C72.0999 348.9 72.4799 343.79 72.4699 338.67C72.4599 337.18 72.9199 335.98 73.2999 334.63C74.0799 331.82 74.5599 328.93 75.0699 326.05C75.2199 325.21 75.4599 324.54 75.9299 323.8C76.9299 322.24 77.8399 320.54 77.3699 318.55C77.2299 317.96 77.3099 317.34 77.6399 317.03C78.9199 315.81 79.2399 314.04 80.2599 312.68C80.6299 312.18 80.8499 311.64 80.9699 311.06C81.4799 308.5 82.0399 305.99 83.9499 303.99C84.5899 303.32 85.1599 302.41 85.3499 301.52C85.9899 298.41 88.2999 296.44 90.0899 294.1C91.2699 292.56 92.4299 291.03 93.2499 289.15C94.2899 286.79 96.5399 284.93 98.8199 283.88C101.59 282.6 103.4 280.36 105.68 278.62C106.01 278.37 106.32 277.77 106.58 277.81C109.59 278.18 108.11 275.91 107.82 275.21C106.82 272.86 106.87 270.34 106.22 267.96C106.13 267.61 106.13 267.16 105.91 266.94C104.05 265.09 104.45 262.31 103.2 260.27C101.42 257.37 101.78 253.76 100.04 250.95C98.0699 247.74 98.5999 244.05 97.5699 240.69C96.9599 238.71 97.1999 236.43 95.4999 234.82C94.7699 234.13 94.7999 233.27 95.0299 232.32C95.2399 231.41 95.3999 230.49 95.4699 229.53C95.5799 228.08 96.6499 227.21 98.0199 226.96C99.3899 226.72 100.68 226.4 101.83 225.59C102.15 225.36 102.62 225.17 102.98 225.22C106.25 225.61 108.73 223.68 111.44 222.44C112.25 222.07 113.09 221.69 113.96 221.55C118.09 220.88 121.91 218.79 126.2 218.84C126.31 218.84 126.47 218.8 126.53 218.72C128.79 215.7 132.65 216.51 135.6 215.03C137.05 214.3 139.06 214.26 140.8 213.73C141.63 213.48 142.5 213.39 143.27 212.89C143.61 212.67 144.05 212.38 144.4 212.43C147.75 212.91 150.47 210.24 153.8 210.6C154.26 210.65 154.76 210.17 155.26 210C156.07 209.73 155.96 209.08 155.84 208.52C155.7 207.82 155.17 207.61 154.48 207.71C152.64 207.96 150.83 208.08 148.96 207.67C147.66 207.38 146.51 206.82 145.29 206.36C145.08 206.28 144.72 206.15 144.71 206.03C144.53 203.73 142.54 203.32 141 202.44C140.8 202.32 140.4 202.28 140.38 202.15C140.11 200.45 138.15 199.26 139.15 197.07C139.51 196.28 139.2 194.85 139.06 193.73C138.83 191.89 138.37 190.05 139.06 188.21C139.43 187.24 138.96 186.29 139.21 185.21C140.3 180.44 141.05 175.59 141.74 170.75C141.95 169.3 141.27 167.79 141.81 166.26C142.06 165.56 142.11 164.84 143.05 164.77C144.29 164.69 142.9 162.62 144.56 162.8C145.5 162.9 146.12 162.3 146.62 161.57C146.68 161.48 146.89 161.43 146.9 161.36C146.96 159.14 149.09 159.31 150.29 158.41C150.65 158.41 151.01 158.41 151.37 158.41C151.8 159.54 152.7 159.38 153.62 159.27C155.55 159.05 157.52 158.83 159.43 159.13C163.9 159.83 168.38 160.47 172.92 160.44C173.63 160.44 174.31 160.44 175 160.8C177.65 162.16 180.51 161.32 183.27 161.35C184.59 161.36 185.99 161.08 187.3 161.34C190.35 161.94 193.48 161.42 196.56 162.55C198.38 163.21 200.85 162.71 202.84 162.1C205 161.43 206.62 162.04 208.38 163C208.96 163.32 209.4 164.02 210.27 163.76C212.28 163.16 214.42 163.42 216.3 163.83C219.47 164.52 222.56 164.07 225.64 163.87C227.94 163.72 229.97 164.08 232.02 164.93C232.84 165.27 233.72 165.8 234.54 165.75C237.07 165.59 239.38 165.79 241.88 166.67C245.51 167.94 249.62 167.21 253.34 168.72C255.76 169.7 258.29 170.43 259.89 172.63C260.79 173.86 261.96 174.71 263.08 175.65C263.08 176.01 263.08 176.37 263.08 176.73C262.51 178.6 262.46 180.58 262.18 182.48C261.7 185.75 261.03 189.05 261.18 192.42C261.25 194.12 260.04 195.78 260.44 197.44C261.31 201 259.83 204.19 259.24 207.53C258.59 211.24 254.49 212.04 253 215.04C252.95 215.15 252.57 215.15 252.35 215.12C250.89 214.93 250.08 215.23 249.13 216.34C249.05 216.43 248.94 216.59 248.89 216.57C247.49 216.13 246.15 216.67 244.82 216.88C242.31 217.29 240.05 214.94 237.47 216.27C237.21 216.41 236.96 216.05 236.7 215.92C234.95 215.07 232.98 214.61 231.16 214.39C229.13 214.14 227.02 214.88 224.79 214.5C222.32 214.08 219.71 213.82 217.16 214.23C215.97 214.43 214.84 214.05 213.72 214C211.9 213.92 210.21 212.74 208.3 213.44C206.54 214.08 204.78 214.06 203.16 212.97C202.77 212.71 202.39 212.64 201.97 212.76C199.28 213.53 196.87 212.61 194.48 211.56C194.01 211.35 193.58 211.45 193.1 211.49C190.59 211.7 188.16 212.08 185.53 211.54C182.77 210.97 179.69 210.32 177.01 212.39C176.39 212.87 175.92 213.56 175.23 213.85C173.93 214.39 174.3 215.03 174.87 215.86C175.4 216.63 176.02 217.34 176.22 218.34C176.89 221.78 176.82 225.4 178.56 228.61C178.69 228.86 178.78 229.19 178.74 229.47C178.52 231.26 179.24 233.08 180.07 234.27C181.75 236.69 181.46 239.37 182.1 241.91C182.65 244.09 182.9 246.31 183.84 248.42C184.97 250.95 185.82 253.63 186.31 256.39C186.37 256.76 185.82 257.54 186.75 257.31C187.14 257.21 188.13 257.23 187.82 256.08C187.51 254.94 187.99 253.87 189.1 253.24C189.48 253.02 190.02 252.52 189.79 252.35C188.2 251.14 189.33 250.72 190.26 249.96C191.48 248.96 191.26 247.36 191.52 245.96C191.95 243.69 193.8 241.7 192.74 239.11C192.59 238.75 193.09 237.76 193.5 237.6C194.65 237.14 194.37 236.34 194.29 235.53C194.2 234.7 195.7 231.72 196.44 231.37C196.7 231.25 197.04 231.17 197.3 231.24C200.45 232.03 203.61 232.81 206.74 233.69C207.97 234.04 209.16 235.01 210.34 234.96C211.47 234.91 212.42 235.14 213.42 235.42C215.16 235.9 216.69 236.99 218.69 236.71C219.5 236.6 220.46 237.09 221.34 237.56C222.83 238.36 224.07 239.85 225.94 239.76C227.28 239.7 228.4 240.18 229.46 240.82C230.2 241.26 230.93 241.66 231.78 241.7C235.72 241.88 238.79 244.56 242.59 245.38C246.09 246.14 249.32 248.19 252.95 248.9C254.91 249.28 256.68 250.44 258.7 250.52C260.49 250.59 261.94 251.18 263.11 252.5C263.06 254.34 263.06 256.13 263.06 257.93ZM158.87 222.48C159.17 223.07 158.7 223.91 159.36 224.16C159.97 224.4 160.37 223.72 160.82 223.34C162.13 222.23 162.82 220.46 164.51 219.77C166.05 219.14 166.98 218.04 167.52 216.49C167.7 215.96 168.12 215.27 168.58 215.11C171.13 214.24 172.18 211.75 173.46 209.92C175.34 207.26 178.09 207.4 180.05 207.62C183.19 207.97 186.32 207.38 189.5 207.99C191.35 208.34 193.62 207.88 195.71 207.89C196.55 207.9 197.23 208.83 197.83 208.43C198.89 207.73 199.54 208.35 199.84 209.02C200.21 209.87 200.65 209.53 200.84 209.2C201.66 207.79 202.37 208.23 203.35 209.07C203.83 209.49 204.69 209.57 205.39 209.62C207.99 209.8 210.6 210.04 213.2 210C216.09 209.95 218.93 210.81 221.82 210.43C224.42 210.09 226.9 211.58 229.62 210.7C230.62 210.38 232.27 210.25 233.27 210.99C235.19 212.42 237.23 212.46 239.41 212.18C239.94 212.11 240.46 212.19 240.98 212.41C243.02 213.27 245 213.5 247.29 212.97C252.32 211.81 256.06 209.73 256.96 204.05C257.29 201.97 258.03 200.02 257.71 197.82C257.44 195.95 257.64 193.97 258.36 192.22C258.89 190.94 258.97 189.73 258.92 188.41C258.87 187.09 258.26 185.62 259.01 184.47C260.07 182.83 259.75 180.84 259.62 179.4C259.4 176.99 258.59 174.2 255.4 173.35C254.2 173.03 253.25 171.85 251.77 172.41C251.53 172.5 251.1 172.19 250.81 171.99C249.9 171.33 248.86 171.14 247.78 171.02C245.94 170.8 244.12 170.71 242.29 170.08C240.95 169.62 239.36 169.75 238.06 168.88C237.59 168.57 237.1 168.9 236.69 169.02C235.91 169.26 235.22 169.14 234.44 169C231.37 168.41 228.41 167.26 225.11 167.76C223.65 167.98 221.63 168.17 220.56 167.76C218.68 167.03 216.96 167.32 215.18 167.17C213.02 166.99 210.79 166.87 208.75 166.39C206.49 165.85 204.38 165.44 202.02 165.58C200.19 165.69 198.39 166.21 196.45 165.84C194.11 165.4 191.75 164.83 189.28 165C186.89 165.17 184.48 164.88 182.07 164.83C180.91 164.8 179.75 165.93 178.64 165.09C177.74 164.4 176.79 164.46 175.81 164.26C173.64 163.82 171.44 164.57 169.28 163.96C168.14 163.64 166.84 163.1 165.81 163.38C162.23 164.34 158.8 163.1 155.3 163.05C153.25 163.02 151.29 162.98 149.87 164.86C149.42 165.45 148.73 166.03 148.04 166.24C146.76 166.63 146.25 167.52 145.92 168.64C145.23 170.94 145.32 173.39 144.36 175.67C143.56 177.55 144.3 179.82 143.52 181.64C141.87 185.52 141.97 189.45 142.31 193.48C142.44 195.06 143.43 196.68 142.11 198.26C141.82 198.61 142.17 199.28 142.47 199.75C144.79 203.39 147.94 205.52 152.39 205.81C154.25 205.93 156.19 205.95 158.01 206.73C158.63 207 159.17 207.21 159.13 207.88C159.02 209.83 160.61 211.96 158.55 213.73C158.39 213.87 158.37 214.32 158.46 214.57C159.33 217.18 159.78 219.82 158.87 222.48ZM99.3799 353.34C106.74 353.34 114.1 353.33 121.45 353.36C122.52 353.36 123.07 353.26 122.92 351.91C122.68 349.8 123.21 347.69 123.15 345.54C123.09 343.32 125.09 341.27 124 338.84C123.96 338.74 123.95 338.58 124 338.49C124.96 336.65 124.61 334.57 125.09 332.64C125.44 331.23 125.31 329.44 126.83 328.71C128.44 327.94 128.05 327.2 127.33 326.1C126.82 325.33 125.75 324.5 126.24 323.59C127.46 321.34 124.27 320.66 124.74 318.77C124.52 318.72 124.29 318.6 124.09 318.64C123.16 318.81 122.3 318.98 121.6 319.84C120.68 320.98 119.76 322.16 118.55 323.04C117.79 323.6 117.08 323.53 116.48 322.86C116.05 322.39 115.39 321.65 115.97 321.16C117.81 319.6 118.92 317.44 120.98 315.99C124.4 313.59 127.76 310.96 129.58 306.94C129.87 306.29 130.19 305.68 130.77 305.19C133.42 302.93 134.38 300.01 134.24 296.56C134.19 295.34 134.1 294.08 134.19 292.88C134.49 289.24 131.76 284.32 128.38 283.38C126.92 282.97 125.71 282.25 124.39 281.69C123.34 281.25 122.62 280.21 121.75 280.08C120.25 279.86 118.55 279.29 117.17 279.73C114.16 280.7 110.81 279.91 107.93 281.81C107 282.42 106.06 282.85 105.51 283.83C105.14 284.5 104.6 284.96 103.91 285.19C100.95 286.16 98.5299 287.72 96.6799 290.38C96.0199 291.33 96.0399 292.49 95.1799 293.29C91.0799 297.13 89.3899 302.62 85.9199 306.9C85.6399 307.25 85.4999 307.76 85.4099 308.22C84.7899 311.6 83.9699 314.88 81.7999 317.71C81.0199 318.73 80.3599 319.99 80.4299 321.34C80.5099 322.81 80.2199 324.1 79.5299 325.4C78.0499 328.2 77.5899 331.28 77.1699 334.38C76.9799 335.78 76.2499 337.1 76.0699 338.49C75.5099 342.8 75.7599 347.14 75.6499 351.47C75.6099 353.01 76.1899 353.39 77.6299 353.38C84.8999 353.31 92.1399 353.34 99.3799 353.34ZM159.14 309.77C159.16 310.93 158.76 311.9 158.35 312.87C158.13 313.4 158.15 313.97 158.53 314.39C158.91 314.8 159.4 314.5 159.87 314.44C161.42 314.23 162.55 313.07 164.2 312.8C165.53 312.58 167.38 312.27 168.39 311.19C169.45 310.05 171.42 312.3 171.87 310C171.87 309.99 172.2 310.07 172.38 310.07C173.11 310.05 173.81 309.84 174.37 309.39C175.02 308.88 175.38 308.55 176.24 309.35C176.85 309.92 178.34 309.75 178.83 308.93C179.97 307 181.75 306.79 183.51 307.1C185.71 307.49 187.35 306.65 189.19 305.7C190.77 304.89 192.15 303.55 194.38 303.89C196.61 304.23 197.29 302.77 196.46 300.59C196 299.37 195.15 298.49 194.35 297.54C193.89 297 193.21 296.31 193.61 295.69C194.16 294.84 193.8 294.15 193.57 293.49C192.51 290.38 192.34 287.08 191.32 283.93C190.39 281.07 189.36 278.21 188.97 275.1C188.73 273.23 188.69 270.72 186.87 269.15C186.43 268.77 186.92 268.6 187.06 268.31C187.41 267.58 186.91 266.45 186.32 266.52C185.26 266.64 185.18 266.6 185.07 265.57C184.5 260.49 182.92 255.65 181.62 250.74C181.15 248.95 179.99 247.33 179.82 245.66C179.5 242.54 178.42 239.54 178.48 236.38C178.49 235.77 178.17 235.2 177.73 234.8C177.06 234.2 176.76 233.47 176.73 232.6C176.71 232.11 176.62 231.5 176.13 231.42C175.49 231.31 175.49 231.98 175.41 232.43C175.33 232.85 175.23 233.28 174.87 233.52C173.43 234.48 172.75 236.09 172.48 237.53C172.06 239.75 170.57 241.29 169.64 243.16C168.43 245.6 166.86 247.85 167.4 250.8C167.51 251.42 167.33 252.12 166.61 252.44C165.9 252.76 165.53 253.26 165.38 254.05C165.24 254.77 164.53 255.03 163.87 255.12C163.1 255.23 162.69 254.62 162.3 254.1C161.78 253.41 162.48 253.04 162.79 252.58C163.51 251.52 164.76 250.73 164.57 249.22C164.24 246.65 165.64 244.49 166.55 242.37C167.71 239.67 170.01 237.48 170.54 234.4C170.6 234.07 170.77 233.67 171.02 233.49C172.82 232.2 173 229.87 174.39 228.31C174.71 227.96 174.91 227.25 174.79 226.8C174.02 223.99 173.97 221.09 173.47 218.25C173.41 217.91 173.46 217.54 172.93 217.49C171.64 217.37 170.3 218.45 169.93 219.74C169.7 220.56 169.56 221.51 168.67 222.01C165.96 223.53 163.83 225.81 161.54 227.84C159.72 229.45 158.88 226.07 157.39 227.44C157.32 227.51 156.93 227.38 156.93 227.34C156.92 227.13 157.06 226.9 157.03 226.69C156.91 225.99 156.28 224.94 155.91 225.36C154.91 226.47 153.03 227.43 153.2 228.91C153.43 230.94 152.55 232.42 151.97 234.13C150.8 237.63 150.29 241.26 150.38 244.96C150.44 247.46 149.31 249.95 150.45 252.46C150.75 253.13 150.31 253.83 149.89 254.44C149.52 254.98 149.17 255.57 149.37 256.27C149.93 258.32 148.51 260.2 148.85 262.24C148.88 262.45 148.6 262.81 148.37 262.94C147.48 263.45 147.48 264.34 147.35 265.17C147.1 266.75 147.3 268.57 146.55 269.86C145.34 271.94 145.76 274.33 144.69 276.4C144.26 277.23 144.44 278.4 145.04 279.32C145.32 279.75 145.5 280.34 145.23 280.68C143.41 282.99 145.51 284.62 146.17 286.48C146.37 287.03 146.99 287.51 147 288.03C147.07 290.04 148.72 290.37 149.98 290.44C152.22 290.58 153.8 291.7 155.2 293.16C156.55 294.58 158.32 295.89 157.73 298.32C157.67 298.56 157.89 298.89 158.04 299.14C159.16 301.02 159.6 303.02 159.36 305.22C159.2 306.64 159.68 307.76 161.24 308.26C162.77 308.74 162.81 310.36 163.38 311.54C163.59 311.98 163.09 312.2 162.61 312.23C160.9 312.31 159.91 311.35 159.14 309.77ZM135.68 283.81C135.8 282.55 136.13 281.32 135.86 280.04C135.74 279.47 135.01 278.75 136.02 278.4C136.92 278.09 137.49 278.7 137.8 279.5C138.4 281.05 138.18 282.68 138.15 284.28C138.15 284.47 137.96 284.78 137.8 284.84C135.8 285.55 134.72 286.6 136.22 288.73C136.26 288.79 136.16 288.95 136.14 289.07C135.9 290.27 136.66 291.2 137.05 292.22C137.27 292.8 138.09 292.82 138.2 292.48C138.84 290.52 140.6 290.39 142.12 289.96C143.32 289.62 143.26 289.27 142.95 288.11C142.3 285.66 140.19 283.55 141.14 280.7C141.31 280.17 140.71 279.86 140.33 279.63C139.3 279 139.25 278.34 140.07 277.48C140.39 277.15 140.64 276.69 140.76 276.24C141.78 272.63 142.97 269.04 143.68 265.36C144.03 263.53 144.29 261.65 144.95 259.94C145.58 258.32 145.54 256.8 144.67 255.55C143.36 253.68 142.81 251.38 141.25 249.69C139.96 248.29 139.43 246.47 138.09 245.02C135.75 242.48 132.9 240.24 131.64 236.81C131.42 236.2 130.85 235.82 130.23 235.86C128.73 235.96 128.29 234.8 127.56 233.88C126.27 232.24 125.1 230.32 123.43 229.22C121.83 228.17 120.89 225.45 118.15 226.51C117.85 226.63 117.64 226.02 117.37 225.87C116.74 225.52 116.92 224.1 115.64 224.6C114.88 224.9 113.89 224.86 113.33 225.35C111.6 226.89 109.27 226.97 107.38 228.04C106.93 228.29 106.47 228.28 106 228.07C105.3 227.77 104.64 228.02 104.17 228.46C103.42 229.17 102.52 229.45 101.58 229.5C98.9099 229.66 98.4199 231.97 97.5299 233.73C97.0899 234.59 98.6399 235.04 98.9299 235.94C99.0499 236.32 99.6099 236.65 99.5799 236.97C99.4399 238.73 100.66 240.15 100.62 241.95C100.59 243.36 101.65 244.7 101.75 246.22C101.78 246.7 102.22 247.01 102.74 247.14C103.94 247.43 105.05 248.01 106.39 247.54C107.37 247.2 108.38 247.4 109.2 248.23C109.57 248.6 110.05 249.05 110.52 249.11C112.83 249.38 113.79 251.85 115.93 252.36C116.03 252.38 116.17 252.5 116.19 252.6C116.44 254.03 117.66 254.34 118.75 254.68C119.93 255.04 120.59 255.79 121.09 256.87C121.36 257.47 121.67 258.2 122.61 258.16C123.62 258.12 126.96 260.48 127.26 261.39C127.31 261.54 127.28 261.74 127.23 261.89C126.83 262.97 124.4 263.69 123.69 262.76C122.47 261.14 121.06 259.95 119.12 259.32C118.69 259.18 118.42 258.55 118.09 258.13C117.58 257.48 117.01 256.94 116.36 256.41C115.41 255.64 114.06 255.66 113.31 254.63C111.1 251.58 107.41 251.09 104.33 249.54C103.97 249.36 102.8 249.53 103.15 250.02C103.83 250.98 103.32 252.15 104.04 252.98C105.22 254.33 106.19 255.7 105.25 257.65C105.02 258.13 105.11 258.87 105.29 259.41C106.2 262.06 106.95 264.77 108.62 267.1C108.88 267.47 109.09 267.98 109.09 268.42C109.1 270.88 109.14 273.29 110.62 275.46C111.05 276.09 110.5 277.44 111.72 277.53C112.56 277.6 113.48 277.28 114.29 276.96C117.2 275.79 120.11 276.34 122.49 277.88C124.56 279.22 126.43 280.53 128.96 280.48C129.74 280.46 130.1 280.96 130.5 281.52C130.87 282.04 131.51 282.76 132.09 282.29C133.25 281.35 133.71 282.02 134.32 282.87C134.6 283.24 134.92 283.73 135.68 283.81ZM204.06 282.1C204.56 283.72 204.38 285.57 205.43 286.99C207.22 289.41 208.47 292.13 210 294.69C210.48 295.49 211.04 296.07 211.88 296.16C212.8 296.26 213.34 296.68 213.92 297.36C215.12 298.77 217.08 299.57 218.53 299.01C220.51 298.24 221.82 298.96 223.3 299.76C223.81 300.04 224.27 300.4 224.82 300.65C228.35 302.25 231.02 299.94 233.8 298.58C236.19 297.41 238.37 295.82 240.22 293.82C241.58 292.35 242.7 290.71 243.44 288.91C243.83 287.95 243.62 286.71 244.24 285.69C244.85 284.68 244.34 283.39 244.92 282.4C245.35 281.66 243.48 280.22 245.66 280.1C245.64 279.98 245.65 279.83 245.58 279.76C244.24 278.3 244.43 276.22 243.53 274.61C242.42 272.62 242.7 270.2 240.93 268.34C238.92 266.23 237.36 263.92 234.38 262.78C230.8 261.42 227.3 260.01 223.43 260.25C220.89 260.41 218.33 260.37 216.18 262.42C214.49 264.02 212.81 265.86 210.47 266.59C206.58 267.79 205.66 271.14 206.29 274.18C206.88 276.97 205.57 278.52 204.53 280.46C204.24 280.98 203.78 281.42 204.06 282.1ZM128.35 322.8C127.8 324.31 128.91 325.08 129.66 325.77C130.41 326.46 130.96 325.35 131.58 324.98C132.15 324.64 132.74 324.42 133.41 324.32C135.59 324.02 137.7 323.62 139.51 322.13C140.29 321.48 141.2 320.73 142.34 320.68C146.23 320.53 149.82 319.58 152.93 317.1C153.7 316.49 155.32 316.58 154.22 314.89C154.01 314.57 154.62 314.33 154.72 314.04C155.67 311.42 157.26 308.94 155.91 305.91C155.34 304.65 154.74 303.14 155.43 301.77C156.6 299.47 155.64 297.32 154.46 295.78C151.69 292.17 146.39 290.93 142.38 294.18C141.76 294.68 141.11 294.9 140.33 295.03C138.17 295.4 137.54 296.23 137.49 298.41C137.48 298.94 137.46 299.46 137.27 299.99C135.73 304.11 133.38 307.76 130.75 311.24C129.61 312.74 129.3 314.9 127.24 315.71C126.92 315.84 127.02 316.34 127.13 316.8C127.62 318.82 127.96 320.87 128.35 322.8ZM208.92 296.04C208.34 295.72 207.75 295.45 207.24 295.08C206.7 294.7 206.43 294.07 206.05 293.55C204.75 291.76 201.93 291.68 200.51 293.33C198.83 295.28 197.21 297.26 198.98 300.02C199.14 300.26 199.21 300.58 199.25 300.87C199.32 301.48 199.6 301.85 200.21 302.01C201.42 302.33 201.23 303.03 200.75 303.88C200.22 304.81 199.31 305.29 198.42 305.36C196.47 305.51 194.98 307.07 192.96 306.95C192.46 306.92 191.83 307.36 191.41 307.75C189.2 309.84 186.4 310.22 183.58 310.46C181.62 310.63 181.08 311.04 180.97 313.08C180.91 314.16 180.56 314.94 179.65 315.65C178.76 316.33 177.36 316.79 177.25 318C177.14 319.14 176.51 319.95 176.13 320.9C175.59 322.22 177 324.8 178.39 324.93C181.27 325.21 184.16 324.8 187.06 325.86C189.3 326.68 191.78 326.93 193.91 328.18C194.11 328.3 194.57 328.31 194.53 328.18C194.08 326.61 195.91 326.58 196.26 325.55C197.24 322.67 198.77 320.24 201.74 319.01C201.82 318.98 201.87 318.81 201.89 318.7C202.38 316.42 204.13 314.81 205.33 313C207.9 309.14 209.06 304.74 211.04 300.67C211.35 300.03 211.3 299.23 210.71 299.27C209.65 299.33 209.23 298.53 208.59 298.11C207.28 297.27 207.43 296.62 208.92 296.04ZM119.65 223.47C119.65 223.66 119.66 223.85 119.66 224.04C121.7 223.79 123.02 224.93 124.3 226.2C124.85 226.74 124.89 227.74 125.73 227.95C127.81 228.49 128.01 231.28 130.21 231.64C130.47 233.42 131.92 234.02 133.25 234.77C136.35 236.5 137.5 239.99 139.95 242.38C141.51 243.91 143.53 245.81 143.52 248.6C143.52 249.31 144.12 250.2 145.02 250.1C145.82 250.02 146.08 249.08 146.12 248.43C146.17 247.61 146.8 247.05 146.81 246.27C146.86 242.4 147.93 238.74 148.92 235.04C149.36 233.4 150.43 231.88 150.11 230.08C149.98 229.36 150.16 228.77 150.28 228.09C150.6 226.24 151.66 224.66 151.77 222.7C151.88 220.77 152.97 218.98 154.63 217.76C155.94 216.8 156.37 215.26 155.63 213.89C155.49 213.62 155.36 213.21 155.03 213.41C153.59 214.3 151.72 213.77 150.35 214.8C149.48 215.46 148.57 215.75 147.52 215.65C146.48 215.55 145.43 215.73 144.54 216.14C140.82 217.84 136.66 217.94 132.88 219.49C130.99 220.27 128.72 220.08 127.23 221.92C126.91 222.31 126.18 221.97 125.68 222.07C123.66 222.49 121.66 223 119.65 223.47ZM214.45 300.44C214.23 301.52 213.69 302.03 213.56 302.78C213.27 304.51 212.3 306 212.07 307.88C211.87 309.49 211.09 311.49 209.75 312.95C209.02 313.74 208.78 316.64 209.18 317.65C209.89 319.46 210.1 321.5 209.42 323.15C208.46 325.5 208.32 327.85 208.22 330.27C208.2 330.73 208.06 331.23 208.73 331.43C211.42 332.26 214.11 333.09 216.8 333.95C218.45 334.48 220.21 334.2 221.87 334.62C223.03 334.91 223.79 334.39 224.02 333.37C224.34 331.97 225.15 330.77 225.51 329.41C226.26 326.6 228.56 324.06 227.09 320.84C227.07 320.79 227.1 320.72 227.11 320.66C227.6 316.86 229.6 313.24 228.5 309.24C228.28 308.45 229.91 309.14 229.49 308.25C228.91 307.03 228.87 305.69 228.41 304.46C228.23 303.96 227.64 303.57 227.29 303.79C226.04 304.56 225.09 303.59 224.03 303.51C222.53 303.39 221.14 302.86 219.64 302.74C217.86 302.6 215.62 302.86 214.45 300.44ZM202.01 268.32C202.57 268.35 202.96 268.07 203.1 267.57C203.36 266.61 204.11 266.15 204.87 265.68C207.53 264.02 210.09 262.22 212.65 260.41C214.03 259.43 214.17 258.66 213.13 257.41C212.74 256.94 212.09 256.35 212.35 255.68C213.04 253.87 211.71 253.03 210.76 251.97C208.42 249.33 206.25 246.39 205.04 243.24C203.99 240.51 202.37 238.47 200.66 236.36C199.47 234.89 197.4 234.81 197.47 235.85C197.62 238.1 195.5 239.36 195.68 241.43C195.68 241.49 195.67 241.55 195.69 241.61C196.2 243.3 196.19 244.9 194.89 246.29C194.53 246.68 194.76 247.09 194.92 247.46C195.44 248.62 195.37 249.58 194.29 250.46C193.83 250.84 193.66 251.58 193.39 252.17C192.38 254.42 192.06 256.91 190.95 259.14C190.82 259.4 190.88 259.97 191.07 260.14C192.59 261.51 194.04 263.01 195.75 264.09C197.67 265.31 200 265.92 201.2 268.12C201.37 268.41 201.73 268.28 202.01 268.32ZM245.63 249.6C245.26 249.77 245.03 249.83 244.85 249.96C241.4 252.52 237.7 254.79 236.34 259.34C235.98 260.55 236.24 260.88 237.05 261.39C238.75 262.46 240.26 263.64 241.17 265.59C241.57 266.45 241.75 267.56 242.6 268.17C244.25 269.36 245.42 270.82 245.75 272.89C246 274.45 246.95 274.4 247.85 273.56C249.35 272.18 251.45 271.8 252.9 270.35C253.68 269.56 254.87 269.41 255.84 268.77C258.15 267.24 258.52 264.83 259.26 262.67C260.07 260.32 259.97 257.67 260.92 255.35C261.49 253.94 260.8 253.4 259.83 253.46C256.14 253.69 253.15 251.25 249.62 250.96C248.17 250.84 246.6 251.04 245.63 249.6ZM214.76 249.18C214.8 249.41 214.8 249.65 214.89 249.86C215.73 251.83 216.49 253.82 216.65 255.98C216.74 257.14 217.43 257.2 218.44 257.31C220.55 257.53 222.54 256.63 224.72 257.08C226.61 257.47 228.51 257.89 230.44 258.14C231.04 258.21 231.49 258.48 231.59 257.5C231.74 256.05 232.06 254.6 233.18 253.5C233.62 253.07 233.08 253.34 233 253.29C232.26 252.88 232.2 252.42 233.03 252.13C233.5 251.97 233.64 251.62 233.54 251.33C233.03 249.84 233.67 248.72 234.47 247.52C235.32 246.26 234.76 245.45 233.17 245.47C232.47 245.48 231.83 245.34 231.15 245.2C228.96 244.76 227.25 242.77 224.79 243.24C224.65 243.27 224.44 243.15 224.31 243.04C221.93 241.05 219.04 240.48 216.09 240.03C214.53 239.79 213.81 240.43 214.3 241.92C215.09 244.32 214.19 246.79 214.76 249.18ZM236.65 300.94C235.65 301.47 234.47 302.08 233.31 302.73C232.2 303.35 231.47 305.43 231.97 306.58C232.85 308.63 233.05 310.85 232.44 312.88C231.28 316.73 232.15 320.34 232.99 324.05C233.37 325.71 234.68 326.75 235.17 328.27C235.34 328.81 235.32 329.69 236.03 329.62C236.67 329.56 237.01 328.54 236.95 328.11C236.61 325.78 238.12 323.96 238.58 321.85C239.27 318.69 240.11 315.49 240.84 312.34C241.55 309.24 243.7 306.65 243.64 303.37C243.64 303.32 243.69 303.26 243.73 303.22C245 301.67 244.27 299.14 246.31 297.96C246.37 297.93 246.32 297.64 246.26 297.5C245.75 296.36 244.12 296.06 243.13 296.85C241.78 297.92 240.48 299.03 239.25 300.24C238.69 300.78 238.05 301.75 236.65 300.94ZM193.14 269.92C192.39 269.88 191.86 269.84 191.32 269.81C190.86 269.79 190.52 270.11 190.77 270.44C191.8 271.81 190.7 273.78 192.16 275.02C192.54 275.34 192.41 275.91 192.43 276.39C192.46 277.21 192.33 278.08 192.59 278.83C193.73 282.18 194.86 285.52 195.38 289.04C195.46 289.57 195.66 290.45 196.46 290.07C197.63 289.52 199.16 290.01 200.05 288.89C200.72 288.05 202.44 288.89 202.44 287.52C202.44 286.61 201.67 285.71 201.3 284.78C200.18 281.96 200 279.29 202 276.63C202.67 275.74 202.86 274.15 202.6 273.04C202.41 272.26 200.99 272.1 199.95 271.97C198.78 271.83 197.51 271.66 196.58 270.94C195.44 270.05 194.28 269.72 193.14 269.92ZM225.56 335.91C227.63 337.96 230.37 338.31 233 338.91C233.48 339.02 233.96 338.98 234.18 338.39C234.55 337.39 234.96 336.41 235.28 335.4C235.38 335.08 235.62 334.8 234.85 334.46C234 334.08 232.98 332.6 233.13 331.8C233.41 330.32 232.06 329.58 232.17 328.32C232.21 327.83 231.84 327.89 231.43 327.91C230.19 327.98 229.44 328.39 228.99 329.73C228.24 331.92 227.98 334.47 225.56 335.91ZM251.11 277.09C247.96 277.15 248 277.15 248.07 280.32C248.09 281.23 248.43 282.13 247.92 283.1C246.86 285.12 247.54 287.56 246.5 289.64C246.33 289.98 246.73 290.65 246.94 291.14C247.22 291.8 248.29 291.08 248.51 291.98C248.52 292.03 248.62 291.74 248.63 291.62C248.91 288.57 249.81 285.73 251.26 283.03C251.66 282.28 251.55 281.13 252.55 280.86C254.85 280.24 252.64 278.44 253.52 277.49C252.9 277.01 252.18 277.02 251.45 277.1C251.35 277.09 251.23 277.08 251.11 277.09ZM197.52 328.56C199.66 328.98 201.37 330.24 203.42 330.6C204.06 330.71 204.78 330.6 204.66 330.16C204.15 328.25 205.48 326.46 204.87 324.57C204.66 323.92 204.99 323.4 205.54 322.9C206.4 322.12 206.68 319.23 206.14 318.18C205.51 319.69 204.48 320.61 202.84 321.75C201.92 322.39 200.45 322.59 200.36 324.17C200.28 325.57 200.03 326.87 198.33 327.29C198.02 327.37 197.85 328.03 197.52 328.56ZM203.98 236.45C205.87 240.64 208.96 243.98 210.44 248.22C212.11 247.46 212.45 246.47 211.39 244.93C210.83 244.12 210.77 243.37 211.44 242.52C212.03 241.78 211.52 238.98 210.77 238.71C208.54 237.89 206.27 237.19 203.98 236.45ZM170.9 321.98C171.33 321.45 172.09 321.24 172.53 320.37C173.41 318.63 173.72 316.67 174.78 315.01C175.31 314.19 174.53 313.66 174.03 313.12C173.36 314.32 172.05 313.4 171.15 313.98C170.74 314.24 170.53 314.42 170.53 314.88C170.52 317 170.29 319.1 169.87 321.18C169.8 321.52 170.18 322.02 170.9 321.98ZM198.29 268.07C195.32 267.32 193.95 265.1 191.85 263.92C191.34 263.64 190.78 263.23 190.5 263.88C190.14 264.7 189.12 265.31 189.49 266.4C189.59 266.7 189.95 266.74 190.27 266.66C192.5 266.12 194.32 267 196.02 268.32C196.63 268.8 197.18 268.61 198.29 268.07Z" fill="#221814"/>
<path d="M166.52 281.37C165.84 281.08 165.29 280.72 164.69 280.63C163.9 280.51 163.72 279.98 163.67 279.4C163.62 278.71 164.09 278.45 164.72 278.19C166.34 277.53 168.01 277.33 169.73 277.18C171.37 277.03 172.73 277.71 173.31 279.01C173.86 280.25 173.11 281.69 172.28 282.74C171.5 283.73 170.77 284.75 169.5 285.38C168.54 285.86 167.77 287.07 168.06 288.36C168.37 289.71 168.34 291.08 168.4 292.61C169.99 291.91 171.13 290.6 172.77 290.24C173.21 290.14 173.43 289.61 173.5 289.09C173.56 288.62 173.7 288.17 173.82 287.71C174 287.01 174.33 286.12 175.03 286.19C175.95 286.27 175.55 287.24 175.69 287.89C176.08 289.61 175.99 291.04 174.44 292.13C172.14 293.74 170.03 295.9 166.8 294.89C162.36 293.5 160.51 291.19 159.82 286.8C159.74 286.31 160.02 286.17 160.26 285.94C160.66 285.57 160.72 286 160.86 286.23C161.93 288.07 163.85 289.31 164.52 291.45C164.71 292.06 165.41 292.13 165.94 292.25C166.51 290.2 165.53 288.11 166.26 286.08C166.5 285.4 166.17 284.68 165.49 284.44C164.35 284.05 164.58 283.27 164.64 282.42C164.75 281.15 165.87 282.15 166.52 281.37Z" fill="#221814"/>
<path d="M181.68 278.32C181.65 280.33 180.58 281.4 179.08 281.99C178.2 282.34 177.2 282.16 177.12 280.9C177.02 279.07 176.57 277.15 177.94 275.54C178.47 274.91 179.14 274.5 179.97 274.77C180.74 275.02 181.22 275.58 181.32 276.45C181.39 277.15 181.58 277.84 181.68 278.32Z" fill="#221814"/>
<path d="M155.98 276.47C157.03 277.15 158.82 277.06 159.45 278.85C159.67 279.48 160.02 280.11 159.29 280.58C158.67 280.97 157.92 281.15 157.31 280.58C156.68 279.98 156.02 279.6 155.12 279.6C154.4 279.6 153.3 279.85 153.24 278.8C153.17 277.62 154.18 276.99 155.18 276.54C155.33 276.47 155.52 276.5 155.98 276.47Z" fill="#221814"/>
<path d="M217.05 283.79C218.69 284.42 219.76 284.84 219.96 286.78C220.21 289.25 223.88 290.41 226.38 289.01C228.18 288 229.53 286.5 230.26 284.52C230.39 284.18 230.41 283.75 230.88 283.82C231.28 283.88 231.66 284.07 231.88 284.48C233.27 287.09 233.32 289.88 229.46 291.04C226.72 291.87 223.91 292.36 221.18 290.82C219.93 290.11 217.49 291.13 217.37 289.14C217.28 287.71 216.41 286.21 217.19 284.72C217.28 284.56 217.14 284.29 217.05 283.79Z" fill="#221814"/>
<path d="M224.49 280.32C221.87 280.51 220.91 279.45 221.37 277.14C221.43 276.83 221.47 276.48 221.75 276.39C222.97 275.96 224.29 275.24 225.49 275.62C226.4 275.9 227.87 276.17 227.89 277.65C227.9 278.7 226 280.27 224.84 280.33C224.66 280.33 224.48 280.32 224.49 280.32Z" fill="#221814"/>
<path d="M228.49 276.76C228.23 275.7 228.34 274.84 229 274.01C230.07 272.65 230.79 272.53 231.69 274.03C232.61 275.55 233.23 277.27 232.19 279.07C231.78 279.78 231.45 280.78 230.44 280.56C229.43 280.33 228.7 279.54 228.51 278.46C228.41 277.88 228.49 277.27 228.49 276.76Z" fill="#221814"/>
<path d="M220.84 276.12C220.5 277.49 220.12 278.8 219.48 280.01C219.05 280.81 218.49 280.67 217.83 280.34C215.96 279.42 215.47 275.68 217.11 274.36C217.81 273.8 218.7 273.32 219.59 273.74C220.53 274.18 220.67 275.21 220.84 276.12Z" fill="#221814"/>
<defs>
<clipPath id="clip0_267_43">
<rect width="156" height="154" fill="white" transform="translate(46 148)"/>
</clipPath>
</defs>
</svg>
