<svg width="335" height="392" viewBox="0 0 335 392" fill="none" xmlns="http://www.w3.org/2000/svg">
<g clip-path="url(#clip0_267_11)">
<path d="M285 260.122C285 261.571 283.349 263.021 283.264 264.448C283.179 265.874 280.768 266.898 280.593 268.318C280.418 269.739 279.945 270.875 279.685 272.278C279.425 273.68 281.188 275.627 280.853 277.006C280.517 278.385 279.822 279.551 279.401 280.895C278.98 282.238 276.616 282.357 276.124 283.659C275.632 284.961 277.902 287.914 277.339 289.174C276.777 290.435 275.741 291.323 275.117 292.542C274.493 293.761 273.618 294.696 272.927 295.862C272.237 297.028 273.594 300.236 272.852 301.348C272.109 302.461 271.495 303.887 270.705 304.947C269.915 306.006 267.026 304.526 266.189 305.533C265.352 306.539 263.134 305.444 262.255 306.397C261.375 307.35 260.581 308.107 259.668 309.001C258.755 309.894 260.864 315.807 259.919 316.641C258.973 317.476 255.464 313.51 254.49 314.292C253.516 315.073 252.934 316.405 251.932 317.132C250.929 317.86 250.693 320.169 249.667 320.837C248.641 321.506 247.052 320.612 246.007 321.234C244.962 321.855 244.688 324.513 243.624 325.075C242.56 325.637 242.413 329.247 241.33 329.756C240.247 330.265 238.517 328.726 237.42 329.182C236.322 329.638 235.608 331.881 234.497 332.283C233.386 332.686 230.87 326.513 229.745 326.862C228.619 327.211 228.676 333.781 227.541 334.082C226.406 334.384 224.903 332.502 223.763 332.751C222.623 332.999 221.105 329.916 219.961 330.117C218.817 330.318 217.786 330.857 216.632 331.005C215.478 331.153 214.419 331.514 213.265 331.615C212.111 331.715 211.166 336.947 210.007 336.994C208.849 337.042 207.624 330.999 206.465 330.999C205.307 330.999 204.153 333.946 203.009 333.899C201.864 333.852 200.89 330.224 199.746 330.123C198.602 330.023 197.117 334.988 195.982 334.84C194.847 334.692 193.977 331.455 192.842 331.259C191.707 331.064 190.856 328.999 189.726 328.75C188.596 328.502 187.338 329.478 186.217 329.182C185.096 328.886 184.207 327.643 183.096 327.294C181.985 326.945 180.779 327.3 179.682 326.904C178.585 326.507 176.216 331.064 175.128 330.608C174.041 330.153 174.783 323.222 173.71 322.713C172.636 322.204 169.373 328.531 168.319 327.969C167.264 327.407 167.316 323.506 166.281 322.897C165.245 322.287 163.666 322.915 162.654 322.252C161.642 321.589 160.573 320.861 159.585 320.145C158.597 319.429 157.126 319.47 156.161 318.701C155.197 317.931 155.495 314.682 154.563 313.854C153.632 313.025 151.371 314.309 150.468 313.428C149.565 312.546 151.532 307.302 150.667 306.367C149.801 305.432 145.356 309.368 144.534 308.373C143.711 307.379 144.377 304.355 143.597 303.307C142.817 302.26 143.682 299.419 142.954 298.318C142.226 297.217 140.32 297.318 139.639 296.164C138.958 295.01 137.667 294.335 137.043 293.134C136.419 291.932 136.925 289.861 136.367 288.606C135.809 287.352 135.464 286.014 134.972 284.718C134.48 283.422 132.026 283.144 131.605 281.806C131.184 280.469 131.364 278.764 131.024 277.391C130.683 276.018 133.284 273.722 133.024 272.319C132.764 270.916 131.274 269.964 131.099 268.537C130.924 267.111 132.65 265.602 132.56 264.164C132.471 262.726 132.144 261.56 132.144 260.11C132.144 258.66 130.357 257.287 130.442 255.854C130.527 254.422 128.839 252.718 129.014 251.297C129.189 249.877 131.799 249.031 132.059 247.634C132.319 246.237 131.411 244.497 131.752 243.118C132.092 241.739 131.416 239.875 131.832 238.532C132.248 237.188 135.715 237.543 136.206 236.241C136.698 234.939 135.814 232.891 136.377 231.631C136.939 230.37 139.053 230.441 139.682 229.228C140.311 228.015 138.604 224.914 139.294 223.748C139.985 222.582 141.711 222.505 142.453 221.392C143.195 220.28 144.032 219.41 144.822 218.35C145.612 217.291 144.746 214.225 145.579 213.225C146.411 212.225 147.919 212.112 148.794 211.165C149.669 210.218 151.655 211.065 152.568 210.171C153.48 209.277 152.629 205.478 153.575 204.643C154.521 203.809 155.187 202.329 156.161 201.548C157.136 200.767 159.334 202.46 160.337 201.732C161.339 201.004 160.767 196.612 161.793 195.938C162.819 195.263 165.463 198.583 166.513 197.968C167.562 197.352 168.849 197.583 169.917 197.021C170.986 196.458 171.993 195.949 173.076 195.44C174.159 194.931 175.691 196.37 176.788 195.914C177.885 195.458 177.705 190.061 178.817 189.658C179.928 189.256 181.692 191.943 182.812 191.588C183.933 191.233 184.846 190.013 185.981 189.712C187.116 189.41 188.373 190.292 189.513 190.043C190.653 189.794 191.13 184.154 192.275 183.953C193.419 183.752 194.743 184.604 195.892 184.456C197.041 184.308 198.195 183.101 199.349 183C200.503 182.9 201.94 190.126 203.099 190.078C204.257 190.031 205.297 186.906 206.456 186.906C207.614 186.906 208.844 183.48 209.988 183.533C211.133 183.586 212.23 186.38 213.369 186.474C214.509 186.569 215.738 185.942 216.878 186.09C218.018 186.237 218.949 188.67 220.084 188.865C221.219 189.061 222.874 185.421 223.999 185.669C225.125 185.918 226.222 186.93 227.343 187.226C228.463 187.522 229.017 191.043 230.128 191.392C231.239 191.742 233.216 188.285 234.313 188.682C235.41 189.078 236.62 189.481 237.703 189.931C238.786 190.38 238.252 196.606 239.325 197.109C240.399 197.612 242.143 195.843 243.198 196.399C244.252 196.956 245.69 196.47 246.726 197.08C247.761 197.689 248.622 198.802 249.634 199.465C250.646 200.128 250.972 202.318 251.96 203.034C252.949 203.75 253.63 204.963 254.594 205.738C255.559 206.514 259.091 202.578 260.027 203.406C260.964 204.235 259.167 209.721 260.065 210.603C260.964 211.485 263.981 209.159 264.846 210.1C265.711 211.041 267.225 211.296 268.047 212.284C268.87 213.272 269.816 214.367 270.596 215.415C271.376 216.462 269.958 220.043 270.691 221.144C271.424 222.244 273.254 222.298 273.935 223.452C274.616 224.606 275.902 225.357 276.521 226.565C277.141 227.772 276.233 230.199 276.791 231.447C277.349 232.696 277.481 234.193 277.968 235.49C278.455 236.786 279.131 237.934 279.552 239.277C279.973 240.621 281.997 241.289 282.333 242.668C282.669 244.047 284.262 245.178 284.517 246.58C284.773 247.983 283.714 249.871 283.884 251.303C284.054 252.735 280.626 254.6 280.711 256.038C280.796 257.476 284.986 258.677 284.986 260.127L285 260.122Z" fill="#FF5C0A"/>
</g>
<path d="M183 198L184 181L154 191.5L130 222.5L122 286L148.5 333L188 334L186 328L182.5 323L180 320L177.5 317L173 313.5L174 311.5L178.5 304L181.5 296.5L182 289V283V279L184.5 277L188 274.5L190.5 270.5L191.5 263L190 258.5L189 257.5L186.5 263L184.5 267.5L182 270L180.5 269L178.5 264.5L176 257L173.5 248.5V244L175 236.5L178.5 224L180.5 211V208L183 198Z" fill="#F9F5ED"/>
<path d="M160.265 381.896C158.895 381.166 157.525 380.436 156.155 379.716C156.055 379.666 155.865 379.706 155.815 379.636C154.665 378.026 153.375 376.496 152.455 374.766C151.875 373.676 151.635 372.276 151.645 371.016C151.655 369.826 150.795 369.746 150.265 369.736C146.285 369.636 142.305 369.536 138.325 369.686C135.635 369.786 132.965 370.356 130.275 370.606C129.245 370.696 128.185 370.406 127.135 370.396C124.855 370.356 122.565 370.356 120.285 370.376C117.705 370.396 115.115 370.516 112.535 370.506C108.775 370.496 105.015 370.336 101.255 370.406C99.0848 370.446 96.9248 370.926 94.7648 370.986C93.3348 371.026 91.6348 371.316 90.8048 369.576C90.6548 369.266 90.8748 368.786 90.8848 368.686C89.6648 366.926 88.3648 365.276 87.3348 363.466C86.9248 362.756 87.1248 361.696 87.0248 360.806C86.9448 360.056 86.7048 359.296 86.7648 358.556C87.0148 355.306 87.3548 352.066 87.6648 348.816C87.6948 348.466 87.8648 348.096 87.7948 347.766C87.4248 345.756 87.5448 343.976 88.8548 342.166C89.6948 341.006 89.8248 339.326 90.1848 337.856C90.2448 337.636 89.8148 337.286 89.7848 337.246C90.5548 336.246 91.3248 335.406 91.9248 334.456C92.9548 332.796 94.6848 331.056 94.6748 329.356C94.6548 326.726 97.1548 325.266 96.9148 322.776C96.8948 322.566 97.0548 322.316 97.1848 322.126C99.1348 319.416 100.885 316.536 103.125 314.086C104.395 312.696 105.445 311.236 106.565 309.746C107.875 308.006 108.165 306.096 108.495 304.146C108.585 303.616 108.095 302.836 107.635 302.416C106.785 301.626 106.535 300.766 106.435 299.616C106.245 297.586 105.695 295.596 105.315 293.586C105.215 293.066 105.085 292.546 105.075 292.026C105.015 290.256 104.485 288.306 104.625 286.796C104.925 283.706 103.595 280.716 104.605 277.626C105.245 275.656 104.915 273.366 105.495 271.366C105.945 269.836 105.625 267.926 107.325 266.776C107.625 266.566 107.225 265.266 107.085 264.486C106.665 262.046 107.005 259.856 108.965 258.126C109.185 257.926 109.525 257.726 109.565 257.486C109.835 255.966 110.005 254.426 110.275 252.896C110.565 251.256 110.635 249.686 110.145 248.036C109.895 247.166 110.565 246.066 110.455 245.116C110.215 243.036 109.425 240.986 109.425 238.926C109.435 236.166 109.425 233.586 108.065 230.996C107.265 229.486 107.525 227.436 107.185 225.656C106.825 223.786 106.315 221.956 105.895 220.106C105.745 219.446 105.725 218.756 105.545 218.106C105.395 217.556 105.225 216.886 104.835 216.566C103.695 215.626 103.835 214.546 104.205 213.356C104.295 213.066 104.445 212.726 104.375 212.456C103.765 210.286 102.955 208.166 102.505 205.976C102.085 203.976 102.045 201.906 101.825 199.866C101.595 197.826 101.325 195.786 101.105 193.746C100.855 191.436 100.595 189.126 100.415 186.806C100.195 184.026 99.6548 181.196 99.9848 178.486C100.385 175.236 100.495 171.896 102.095 168.786C103.415 166.226 104.175 163.356 105.045 160.576C105.935 157.736 108.345 156.836 110.715 155.956C111.865 155.526 113.185 155.566 114.435 155.396C114.545 155.376 114.715 155.376 114.755 155.306C116.185 153.126 117.745 154.676 119.255 155.166C121.015 155.726 122.765 156.296 124.505 156.896C127.425 157.896 129.195 160.216 130.915 162.586C131.865 163.896 132.825 165.206 133.785 166.506C133.975 166.766 134.325 166.976 134.395 167.256C135.155 170.236 135.295 173.546 136.775 176.096C138.015 178.236 136.595 179.936 137.185 181.866C137.775 183.786 137.725 185.986 137.605 188.036C137.435 190.936 136.575 193.826 136.705 196.686C136.825 199.086 135.675 201.546 137.135 203.986C137.595 204.756 137.075 206.356 136.605 207.396C135.745 209.316 136.265 211.236 136.265 213.146C136.275 216.536 136.155 219.966 136.675 223.286C137.065 225.806 136.955 228.256 136.915 230.736C136.885 232.716 136.435 234.726 136.705 236.646C136.895 237.986 137.895 239.276 138.735 240.446C139.255 241.156 140.115 241.666 140.895 242.136C143.435 243.646 145.045 242.966 145.965 240.096C146.105 239.656 146.495 239.286 146.765 238.886C147.755 237.386 149.055 236.026 148.195 233.906C147.915 233.196 148.005 232.196 148.265 231.446C149.225 228.656 149.965 225.966 149.065 222.916C148.675 221.586 149.485 219.936 149.505 218.426C149.515 217.336 149.105 216.246 148.825 214.856C149.775 214.256 150.025 213.166 149.645 211.556C149.325 210.196 149.755 208.676 148.485 207.556C148.295 207.386 148.175 206.846 148.295 206.636C149.475 204.596 149.215 202.256 149.455 200.096C150.005 195.256 149.965 190.356 150.305 185.486C150.465 183.206 151.055 180.956 151.245 178.676C151.425 176.446 151.325 174.196 151.355 171.946C151.375 169.836 150.705 167.346 151.605 165.726C152.605 163.936 152.325 161.786 153.635 160.286C155.275 158.396 155.965 155.676 158.535 154.596C158.635 154.556 158.765 154.426 158.765 154.346C158.785 151.246 161.005 151.756 163.015 151.526C164.875 151.316 166.645 150.416 168.495 150.086C169.445 149.916 170.505 150.316 171.515 150.456C171.925 150.506 172.355 150.626 172.745 150.566C174.875 150.236 175.705 150.796 176.975 152.626C178.235 154.436 179.865 155.996 181.245 157.726C181.825 158.456 182.155 159.386 182.675 160.186C183.535 161.516 183.075 163.516 185.145 164.356C185.705 164.586 185.785 166.676 185.615 167.846C185.395 169.366 184.995 170.746 186.545 171.796C186.695 171.896 186.795 172.216 186.765 172.416C186.455 174.186 186.035 175.946 185.785 177.736C185.605 178.956 185.675 180.216 185.565 181.446C185.275 184.656 184.955 187.866 184.635 191.076C184.485 192.546 184.325 194.016 184.095 195.476C183.755 197.676 183.405 199.876 182.935 202.046C182.525 203.976 181.825 205.856 181.485 207.806C181.335 208.646 182.015 209.616 181.925 210.486C181.585 213.886 181.135 217.286 180.645 220.676C180.385 222.466 180.105 224.286 179.575 226.006C179.115 227.486 178.285 228.856 177.545 230.446C178.715 231.296 178.155 232.346 177.495 233.416C175.555 236.586 175.505 240.296 174.645 243.766C174.545 244.166 174.975 244.676 174.925 245.116C174.875 245.596 174.545 246.036 174.135 246.436C175.615 254.126 177.755 261.746 181.125 269.006C183.645 267.936 184.785 265.996 185.425 263.476C186.005 261.176 186.965 258.966 187.835 256.746C188.055 256.196 188.795 255.286 188.885 255.336C189.645 255.736 190.695 256.176 190.925 256.866C191.535 258.636 192.085 260.536 192.105 262.386C192.125 265.266 191.915 268.196 191.385 271.036C190.815 274.106 188.805 276.206 185.875 277.466C184.555 278.026 183.395 278.956 182.045 279.786C182.445 280.836 182.765 281.906 183.245 282.886C184.355 285.186 183.545 287.386 182.855 289.536C182.545 290.496 182.075 291.186 182.965 292.096C184.405 293.576 183.395 295.296 182.935 296.736C182.395 298.436 180.965 299.706 180.905 301.786C180.875 302.936 179.825 304.416 178.795 305.106C176.835 306.436 177.405 308.676 176.395 310.296C176.185 310.626 176.175 311.106 175.935 311.396C174.855 312.656 175.585 313.856 176.275 314.756C177.905 316.866 179.805 318.766 181.525 320.806C182.785 322.306 183.925 323.896 185.115 325.436C185.265 325.626 185.405 325.846 185.605 325.956C187.455 326.956 188.835 328.166 187.925 330.556C187.885 330.666 188.025 330.906 188.145 331.006C189.975 332.576 189.655 334.826 190.035 336.866C190.275 338.156 190.765 339.406 191.085 340.686C191.815 343.676 192.525 346.666 193.215 349.666C193.405 350.516 193.455 351.406 193.605 352.276C194.205 355.616 194.705 358.976 195.555 362.256C195.725 362.896 197.235 363.266 198.175 363.616C198.765 363.826 199.525 363.966 200.085 363.776C201.415 363.326 201.765 364.236 202.245 365.056C202.245 365.416 202.245 365.776 202.245 366.136C201.205 366.206 200.165 366.306 199.125 366.336C198.195 366.366 197.265 366.236 196.345 366.306C194.745 366.426 193.155 366.616 191.565 366.846C189.715 367.116 187.885 367.556 186.035 367.746C184.645 367.886 183.175 367.946 181.825 367.666C180.475 367.386 179.385 367.786 178.635 368.606C177.475 369.866 176.565 371.366 175.675 372.836C175.335 373.406 175.105 374.216 175.215 374.846C175.605 377.036 174.125 378.956 171.935 379.096C171.245 379.136 170.425 379.526 169.935 380.016C168.915 381.036 167.875 381.646 166.355 381.606C164.685 381.566 163.015 381.826 161.345 381.956C160.975 381.896 160.615 381.896 160.265 381.896ZM179.275 269.196C178.145 266.716 177.065 264.366 175.985 262.006C175.865 261.746 175.725 261.466 175.695 261.196C175.505 259.286 173.515 257.766 174.525 255.606C174.555 255.546 174.385 255.416 174.355 255.306C173.655 252.566 171.825 250.136 172.085 247.146C172.175 246.106 172.655 245.096 172.655 244.066C172.665 242.456 172.245 240.846 172.325 239.246C172.395 237.846 172.775 236.436 173.215 235.096C173.725 233.576 174.905 232.156 174.975 230.656C175.055 228.856 175.525 227.346 176.215 225.756C176.555 224.976 176.335 223.946 176.395 223.036C176.435 222.446 176.385 221.826 176.585 221.286C177.355 219.136 178.345 217.046 178.985 214.856C179.355 213.576 179.455 212.106 179.225 210.796C178.905 208.936 178.405 207.186 180.165 205.776C180.245 205.716 180.315 205.566 180.305 205.466C179.895 203.026 181.055 200.896 181.525 198.626C181.685 197.856 180.885 196.836 181.135 196.156C181.995 193.816 180.685 191.106 182.455 188.956C182.595 188.776 182.455 188.376 182.465 188.076C182.495 187.116 182.505 186.156 182.565 185.196C182.635 183.956 182.785 182.716 182.835 181.476C182.895 180.216 182.875 178.956 182.895 177.696C182.915 176.246 182.965 174.806 182.935 173.356C182.915 172.436 182.795 171.516 182.715 170.606C182.835 170.086 182.285 169.646 182.185 169.126C181.525 165.756 180.465 162.566 178.925 159.476C176.965 155.556 172.505 152.596 168.705 153.416C164.105 154.406 159.715 155.966 157.355 160.616C157.175 160.976 156.745 161.206 156.555 161.566C156.075 162.486 155.535 163.406 155.255 164.396C154.665 166.516 153.545 168.636 154.845 170.896C154.885 170.966 154.755 171.106 154.755 171.226C154.575 173.746 152.475 176.116 154.145 178.796C154.195 178.876 154.195 179.086 154.135 179.146C152.145 181.036 154.895 183.816 152.905 185.696C153.665 188.176 151.725 190.696 153.025 193.176C153.135 193.386 152.935 193.946 152.715 194.096C151.685 194.796 152.145 195.626 152.385 196.466C152.515 196.916 152.845 197.506 152.675 197.796C151.185 200.376 152.005 203.116 151.995 205.796C151.995 206.596 151.725 207.416 151.785 208.206C151.915 209.966 152.345 211.716 152.335 213.466C152.315 218.296 152.035 223.116 152.045 227.946C152.055 231.436 151.265 234.736 150.195 237.996C149.285 240.776 147.825 243.356 145.025 244.456C143.765 244.956 142.075 244.356 140.575 244.256C140.455 244.246 140.305 244.296 140.225 244.246C138.795 243.366 136.835 242.786 136.085 241.496C135.055 239.716 134.635 237.416 134.495 235.306C134.255 231.696 134.465 228.056 134.415 224.436C134.385 222.486 134.155 220.536 134.085 218.586C134.025 216.956 134.145 215.326 134.025 213.706C133.925 212.386 133.565 211.086 133.385 209.776C133.345 209.466 133.605 209.126 133.685 208.786C133.835 208.106 134.065 207.416 134.055 206.726C134.015 204.786 135.155 202.776 133.745 200.896C133.645 200.756 133.795 200.446 133.815 200.206C133.905 199.146 133.975 198.086 134.095 197.036C134.165 196.416 134.335 195.796 134.465 195.186C134.555 194.736 134.745 194.296 134.745 193.846C134.765 192.146 134.675 190.456 134.725 188.756C134.785 186.456 135.445 184.026 134.895 181.886C134.455 180.176 134.075 178.846 135.035 177.646C134.695 176.936 134.405 176.456 134.225 175.936C133.545 173.976 132.685 172.036 132.295 170.016C131.905 168.006 131.215 166.346 129.565 165.126C129.485 165.066 129.465 164.916 129.435 164.806C128.495 161.246 126.455 158.946 122.565 158.706C122.285 158.686 122.005 158.546 121.745 158.426C118.545 157.006 115.375 157.726 112.365 158.856C109.315 160.006 107.275 162.616 106.265 165.536C105.645 167.316 105.845 169.316 104.375 170.926C103.755 171.606 103.855 172.916 103.555 173.916C102.875 176.186 101.525 178.336 102.485 180.866C102.625 181.226 102.585 181.726 102.465 182.106C101.715 184.566 102.205 186.866 103.185 189.156C103.445 189.776 103.545 190.516 103.525 191.206C103.475 193.766 103.125 196.336 103.315 198.876C103.495 201.306 104.155 203.696 104.685 206.086C105.405 209.336 106.135 212.586 106.985 215.796C107.665 218.376 108.665 220.886 109.285 223.486C110.035 226.676 110.555 229.916 111.125 233.136C111.865 237.346 112.525 241.576 113.295 245.786C113.595 247.406 114.015 248.916 112.545 250.286C112.205 250.606 112.475 251.596 112.485 252.276C112.495 252.706 112.605 253.146 112.545 253.556C112.345 254.876 112.085 256.186 111.835 257.496C111.745 257.986 111.645 258.476 111.485 258.946C111.145 259.896 110.885 260.896 110.375 261.746C109.405 263.366 109.235 265.016 109.635 266.826C109.725 267.216 109.505 267.876 109.205 268.116C108.105 269.016 108.315 270.206 108.225 271.376C108.175 271.986 107.735 272.566 107.605 273.186C107.415 274.096 107.325 275.026 107.245 275.946C107.205 276.436 107.325 276.936 107.265 277.426C107.045 279.346 106.255 281.376 106.655 283.146C107.225 285.616 106.365 288.296 107.865 290.596C108.085 290.936 107.875 291.536 107.895 292.016C107.975 293.376 108.045 294.736 108.185 296.096C108.525 299.326 111.265 301.836 110.955 305.276C110.945 305.346 111.125 305.426 111.145 305.446C111.935 304.816 112.635 304.036 113.505 303.616C114.265 303.256 115.215 303.286 116.085 303.166C116.625 303.096 117.205 302.956 117.715 303.076C119.515 303.496 121.295 304.006 123.205 304.516C124.275 295.606 131.575 293.196 137.325 290.846C137.165 290.306 137.075 289.356 136.615 288.666C136.015 287.776 135.045 287.146 134.385 286.276C134.045 285.826 133.805 285.066 133.945 284.556C134.035 284.206 134.995 283.726 135.315 283.866C136.255 284.286 137.385 284.806 137.855 285.616C138.955 287.526 140.845 288.046 142.595 288.826C143.125 289.056 143.825 288.886 144.455 288.896C144.455 288.216 144.735 287.156 144.415 286.926C142.895 285.846 143.535 284.486 143.765 283.216C143.215 283.006 142.775 282.856 142.355 282.666C141.885 282.446 141.405 282.236 140.985 281.936C139.095 280.636 139.065 279.766 140.795 278.366C140.995 278.206 141.265 277.926 141.245 277.736C141.055 275.836 142.075 275.326 143.735 275.436C144.635 275.496 145.555 275.526 146.445 275.446C147.735 275.326 148.655 275.756 149.145 276.966C149.765 278.486 149.815 280.096 148.555 281.206C147.185 282.416 146.345 283.666 146.465 285.536C146.535 286.676 146.475 287.826 146.475 288.946C148.975 288.216 151.255 287.226 152.695 284.926C153.005 284.426 153.365 283.576 153.715 283.566C154.265 283.546 154.885 284.056 155.395 284.446C155.795 284.746 156.075 285.206 156.455 285.636C155.395 286.566 154.475 287.376 153.545 288.186C153.925 288.366 154.465 288.456 154.725 288.776C156.515 291.006 159.345 290.536 161.615 291.156C165.645 292.246 167.515 293.446 168.325 297.646C168.365 297.876 168.435 298.156 168.595 298.296C170.855 300.166 168.605 302.586 169.365 304.636C169.425 304.796 169.165 305.056 169.115 305.276C168.815 306.646 168.245 308.036 168.305 309.396C168.435 312.206 168.945 314.996 169.215 317.796C169.325 318.926 169.255 320.076 169.215 321.226C169.205 321.536 169.055 321.866 168.895 322.146C168.685 322.536 168.385 322.886 168.165 323.276C167.395 324.686 166.725 326.146 165.865 327.496C165.285 328.406 164.485 329.176 163.745 329.976C163.155 330.616 162.595 331.296 161.895 331.796C159.585 333.466 156.905 333.796 154.125 334.186C150.515 334.686 147.005 334.396 143.495 333.886C140.525 333.446 137.625 332.556 134.675 331.956C134.295 331.876 133.685 332.236 133.385 332.576C131.475 334.716 129.005 336.026 126.445 337.126C125.235 337.646 123.825 338.006 122.535 337.936C120.705 337.836 118.855 337.466 117.305 336.226C117.015 335.986 116.095 336.216 115.675 336.516C114.375 337.456 114.505 338.736 114.585 340.266C114.685 342.236 113.805 344.246 113.645 346.256C113.205 351.726 111.405 356.816 109.605 361.906C109.165 363.156 108.655 364.396 108.295 365.676C108.105 366.356 108.155 367.106 108.095 367.856C110.045 367.856 112.335 367.856 114.625 367.856C115.005 367.856 115.375 367.766 115.755 367.786C116.865 367.836 117.975 367.926 119.085 367.966C119.605 367.986 120.195 367.776 120.645 367.956C121.755 368.406 122.685 368.536 123.575 367.486C123.765 367.256 124.505 367.336 124.925 367.476C126.775 368.096 128.595 368.816 130.595 368.176C131.305 367.946 131.985 367.666 132.695 367.466C135.485 366.686 138.335 367.456 141.165 367.156C142.865 366.976 144.615 367.366 146.335 367.456C147.235 367.506 148.185 367.616 149.035 367.406C150.135 367.136 151.125 366.786 152.065 367.756C152.215 367.906 152.695 367.726 153.255 367.686C152.875 367.276 152.435 366.976 152.475 366.826C152.825 365.716 153.155 364.566 153.745 363.576C153.965 363.206 154.855 363.256 155.415 363.056C155.855 362.896 156.545 362.696 156.605 362.406C156.805 361.476 157.115 360.776 157.925 360.156C158.355 359.826 158.185 358.806 158.485 358.196C159.465 356.206 161.395 356.016 163.195 355.876C163.265 355.496 163.255 354.916 163.385 354.886C164.905 354.496 166.445 354.176 167.985 353.866C168.285 353.806 168.655 354.036 168.915 353.926C172.045 352.646 174.885 353.886 177.745 354.896C179.355 355.466 180.905 356.186 182.545 356.656C185.455 357.486 186.905 359.616 187.865 362.246C187.915 362.376 187.775 362.566 187.655 362.956C185.655 361.306 183.875 359.106 180.855 360.906C180.755 360.016 180.695 359.496 180.635 359.006C179.805 358.766 178.575 358.756 178.335 358.266C177.515 356.576 176.005 356.956 174.715 356.656C174.385 356.576 174.085 356.366 173.755 356.326C172.745 356.216 171.125 355.736 170.825 356.166C169.635 357.856 168.375 357.206 166.995 356.806C166.665 356.706 166.195 356.856 165.855 357.026C162.395 358.836 158.695 360.426 157.905 364.936C157.845 365.256 157.585 365.756 157.355 365.796C154.415 366.256 154.995 369.066 154.505 370.726C153.585 373.826 156.845 378.056 160.045 378.446C162.205 378.706 164.415 378.586 166.605 378.556C167.075 378.546 167.815 378.346 167.965 378.016C168.615 376.626 169.665 376.376 171.015 376.576C172.275 376.756 173.365 376.036 173.115 374.936C172.265 371.286 175.835 369.496 176.435 366.446C176.565 365.756 178.285 365.116 179.345 364.946C180.655 364.736 182.065 365.226 183.395 365.096C187.025 364.746 190.645 364.226 194.745 363.716C194.245 362.246 193.785 361.026 193.415 359.786C193.055 358.576 192.785 357.346 192.495 356.116C192.445 355.896 192.595 355.526 192.485 355.436C190.425 353.686 192.065 351.056 190.875 348.976C190.085 347.586 190.485 345.576 189.945 343.986C188.715 340.356 186.225 337.126 186.615 332.996C186.635 332.776 186.295 332.516 186.115 332.286C183.965 329.506 182.125 326.556 181.155 323.126C181.075 322.856 180.935 322.546 180.715 322.376C179.425 321.386 178.025 320.516 176.825 319.436C176.165 318.846 175.555 317.946 175.415 317.106C175.245 316.116 174.695 316.016 174.005 315.636C172.905 315.026 171.875 314.206 171.045 313.266C170.775 312.966 171.075 311.556 171.385 311.456C173.315 310.816 173.715 309.196 174.295 307.586C174.625 306.686 175.195 305.846 175.745 305.046C176.745 303.596 177.825 302.206 178.825 300.766C179.015 300.496 179.055 300.096 179.105 299.746C179.475 297.376 179.845 295.006 180.195 292.636C180.625 289.676 181.075 286.716 181.415 283.746C181.555 282.466 181.435 281.166 181.435 279.866C181.005 279.956 180.385 280.206 179.775 280.176C176.375 279.996 174.335 282.596 171.795 284.106C170.895 284.636 170.275 285.696 169.615 286.576C168.655 287.856 167.445 287.956 166.455 286.786C164.815 284.866 165.175 282.766 166.075 280.756C166.695 279.366 167.955 278.246 168.445 276.836C169.425 274.056 171.475 272.566 174.045 271.886C175.665 271.456 177.295 271.456 178.125 269.656C178.235 269.466 178.815 269.406 179.275 269.196ZM108.345 357.186C109.485 356.996 109.705 355.896 109.675 354.616C109.665 354.056 109.455 353.266 109.745 352.986C111.125 351.616 110.995 349.906 111.105 348.226C111.155 347.426 110.845 346.156 111.235 345.896C113.525 344.346 112.225 342.026 112.235 340.306C112.255 337.336 113.405 334.516 116.275 333.486C119.425 332.346 121.495 330.276 122.295 326.916C122.515 325.986 122.765 325.276 122.345 324.326C121.905 323.296 121.525 322.126 121.555 321.026C121.615 318.826 119.475 316.136 117.255 315.756C115.385 315.436 113.575 314.656 111.705 314.536C110.015 314.416 107.985 314.426 106.665 315.256C105.085 316.256 103.885 318.076 102.885 319.756C100.305 324.126 97.9248 328.616 95.4848 333.066C95.3148 333.366 95.2748 333.736 95.1848 334.076C94.3448 337.436 92.9948 340.576 91.0348 343.436C90.8548 343.696 90.7848 344.066 90.7748 344.396C90.7448 344.926 90.9248 345.496 90.7948 345.986C90.3848 347.576 89.7448 349.116 89.4348 350.716C89.1848 351.966 89.3048 353.276 89.2248 354.566C89.1748 355.346 89.0948 356.126 88.9648 356.896C88.9048 357.266 88.5048 357.686 88.6048 357.966C89.4848 360.686 89.3048 363.996 92.4448 365.516C94.1148 366.316 95.6448 367.606 97.8048 366.876C98.9448 366.486 100.255 366.636 101.475 366.446C102.495 366.286 103.525 366.066 104.495 365.706C106.485 364.966 106.685 362.886 107.455 361.306C108.005 360.176 108.025 358.796 108.345 357.186ZM126.245 305.606C126.625 307.376 126.925 308.856 127.275 310.316C127.715 312.166 128.415 313.986 128.575 315.856C128.695 317.156 128.475 318.326 129.885 319.086C130.405 319.366 131.105 320.146 131.025 320.546C130.615 322.536 132.345 323.176 133.155 324.386C133.435 324.816 133.765 325.286 133.815 325.776C134.055 327.946 134.975 329.676 137.105 330.336C138.815 330.866 140.645 331.056 142.425 331.326C143.055 331.426 143.735 331.216 144.345 331.356C148.205 332.206 151.995 332.576 155.655 330.536C156.355 330.146 157.195 329.856 157.985 329.836C160.285 329.756 161.195 329.216 162.045 327.146C162.195 326.776 162.375 326.326 162.675 326.136C165.345 324.466 166.715 322.396 166.085 318.976C165.695 316.876 166.315 314.616 166.315 312.416C166.315 311.036 165.765 309.626 165.885 308.266C166.025 306.636 165.445 304.786 166.845 303.336C166.645 302.916 166.395 302.396 166.225 302.046C165.325 302.766 164.375 303.506 163.445 304.276C162.895 304.726 162.435 305.296 161.855 305.696C161.045 306.236 160.195 306.786 159.295 307.116C156.965 307.986 154.595 308.736 152.245 309.546C151.855 309.676 151.425 310.066 151.115 309.966C148.165 309.046 145.255 312.126 142.315 310.036C142.275 310.006 142.195 310.026 142.135 310.016C140.495 309.826 138.855 309.686 137.225 309.406C135.885 309.176 134.525 308.376 133.265 308.536C130.515 308.926 128.065 308.166 126.245 305.606ZM165.115 299.906C165.515 299.096 166.065 298.476 166.095 297.836C166.125 296.926 166.055 295.436 165.535 295.186C163.245 294.066 160.775 292.586 158.395 292.616C155.925 292.646 153.715 291.756 151.345 291.736C148.525 291.716 145.705 291.696 142.895 291.726C142.465 291.736 142.035 292.056 141.605 292.256C141.245 292.416 140.875 292.766 140.525 292.746C136.165 292.516 133.105 295.586 129.445 297.106C129.215 297.196 129.085 297.526 128.915 297.746C127.355 299.766 125.935 301.796 127.975 304.336C128.075 304.456 128.045 304.676 128.125 305.086C128.885 304.986 130.035 305.146 130.305 304.726C131.365 303.116 132.785 301.836 134.215 300.716C137.905 297.826 142.575 297.346 146.965 296.486C149.645 295.956 152.555 296.606 155.365 296.726C158.885 296.886 162.335 297.276 165.115 299.906ZM167.125 283.936C167.245 284.046 167.355 284.146 167.475 284.256C167.895 283.766 168.225 283.126 168.755 282.816C170.985 281.516 173.265 280.316 175.535 279.076C175.945 278.856 176.405 278.406 176.775 278.466C178.615 278.756 179.845 277.446 181.325 276.846C182.205 276.486 182.975 275.866 183.855 275.546C186.385 274.606 188.505 272.806 189.155 270.456C190.005 267.396 189.815 264.036 190.015 260.806C190.045 260.386 189.715 259.946 189.395 259.046C188.295 261.766 187.305 263.986 186.495 266.276C185.655 268.646 184.515 270.626 181.815 271.226C181.205 271.366 180.675 271.846 180.095 272.146C178.555 272.956 177.075 273.946 175.455 274.526C170.845 276.146 168.825 279.876 167.125 283.936ZM112.315 311.806C114.575 311.816 116.675 312.036 118.185 310.006C118.675 309.346 119.475 309.066 120.265 309.936C120.835 310.566 121.525 311.146 122.275 311.526C123.325 312.056 124.485 312.366 125.825 312.856C125.115 306.756 121.715 306.166 117.695 306.066C114.305 305.966 113.175 307.346 112.315 311.806ZM118.865 334.236C120.645 334.906 121.985 335.906 123.215 335.786C126.575 335.466 129.625 334.116 131.855 331.406C132.195 330.986 132.395 330.166 132.225 329.666C131.885 328.606 131.255 327.636 130.565 326.266C129.095 329.506 126.525 330.626 123.525 331.386C121.985 331.776 120.675 333.096 118.865 334.236ZM125.415 328.446C126.685 327.046 127.685 325.916 128.715 324.816C129.255 324.246 129.885 323.766 129.365 322.846C128.765 321.766 128.125 320.696 127.625 319.576C126.435 316.916 124.625 315.036 121.405 314.416C125.065 318.376 123.575 323.576 125.415 328.446Z" fill="#221814"/>
<path d="M137.335 275.106C137.125 275.076 136.915 275.046 136.705 275.016C136.275 276.166 135.725 277.286 135.455 278.476C135.195 279.616 134.495 279.966 133.505 280.136C132.515 280.306 132.125 279.796 131.665 278.986C131.235 278.236 130.355 277.746 129.665 277.146C129.525 277.306 129.375 277.466 129.235 277.626C130.145 279.536 130.705 281.656 133.135 282.456C135.115 283.106 137.345 281.886 137.455 279.976C137.525 278.776 137.715 277.576 137.755 276.366C137.755 275.936 137.475 275.516 137.335 275.106ZM154.695 274.996C152.905 276.886 153.115 278.636 153.465 280.206C153.645 280.996 154.625 281.936 155.425 282.186C156.555 282.526 157.885 282.366 158.615 281.056C159.415 279.616 159.955 278.166 158.775 276.326C158.245 277.506 157.865 278.476 157.395 279.386C156.845 280.426 155.975 280.456 155.465 279.406C155.175 278.796 155.185 278.046 155.075 277.366C154.955 276.736 154.865 276.096 154.695 274.996Z" fill="white"/>
<path d="M137.335 275.106C137.485 275.526 137.765 275.946 137.745 276.356C137.705 277.556 137.515 278.756 137.445 279.966C137.335 281.876 135.105 283.106 133.125 282.446C130.695 281.646 130.135 279.526 129.225 277.616C129.365 277.456 129.515 277.296 129.655 277.136C130.335 277.736 131.225 278.226 131.655 278.976C132.125 279.786 132.515 280.296 133.495 280.126C134.485 279.956 135.185 279.616 135.445 278.466C135.715 277.276 136.265 276.156 136.695 275.006C136.915 275.046 137.125 275.076 137.335 275.106Z" fill="#221814"/>
<path d="M154.695 274.996C154.865 276.096 154.955 276.736 155.065 277.366C155.185 278.056 155.175 278.806 155.455 279.406C155.955 280.456 156.835 280.426 157.385 279.386C157.865 278.476 158.245 277.506 158.765 276.326C159.945 278.166 159.405 279.626 158.605 281.056C157.875 282.366 156.545 282.536 155.415 282.186C154.605 281.936 153.625 280.996 153.455 280.206C153.105 278.636 152.905 276.886 154.695 274.996Z" fill="#221814"/>
<path d="M81.7456 39.1381C81.7377 41.4349 82.9252 43.8959 85.3081 44.8881L84.2299 46.4506C82.5581 45.7396 81.4018 44.3256 80.7612 42.6068C80.1206 44.474 78.9409 46.0365 77.2612 46.8099L76.1206 45.2318C78.4799 44.1771 79.6987 41.5443 79.6987 39.1381V38.2631H76.6831V36.6381H84.7143V38.2631H81.7456V39.1381ZM86.1206 49.4818V35.2631H88.1362V49.4818H86.1206ZM92.2842 36.2162V41.5052C94.0186 41.474 95.8857 41.3412 97.8623 40.9349L98.0811 42.5599C95.7607 43.0365 93.542 43.1537 91.5029 43.1537H90.2842V36.2162H92.2842ZM91.7686 49.2318V44.5287H93.7842V47.6381H101.456V49.2318H91.7686ZM98.9873 45.4818V35.2787H100.987V39.2631H102.909V40.9349H100.987V45.4818H98.9873ZM111.861 36.7318V48.0443H109.502V38.9662H109.44L106.846 40.5912V38.5131L109.643 36.7318H111.861ZM125.65 35.2787V45.7318H123.666V41.0756H120.134V39.5131H123.666V38.4193H120.134V36.8568H123.666V35.2787H125.65ZM114.463 43.8881V36.1693H116.431V42.2474C118.166 42.224 119.806 42.1146 121.572 41.7943L121.775 43.4037C119.642 43.8099 117.728 43.8802 115.603 43.8881H114.463ZM116.197 49.2318V44.7943H118.197V47.6381H125.994V49.2318H116.197ZM140.142 41.9818V43.5443H127.142V41.9818H132.673V40.7631H128.72V35.8881H138.579V37.4349H130.704V39.2006H138.657V40.7631H134.626V41.9818H140.142ZM128.626 46.8881C128.626 45.2006 130.501 44.2631 133.611 44.2631C136.696 44.2631 138.548 45.2006 138.564 46.8881C138.548 48.5521 136.696 49.4974 133.611 49.4974C130.501 49.4974 128.626 48.5521 128.626 46.8881ZM130.657 46.8881C130.65 47.6302 131.642 47.9818 133.611 47.9818C135.54 47.9818 136.556 47.6302 136.564 46.8881C136.556 46.1537 135.54 45.7787 133.611 45.7787C131.642 45.7787 130.65 46.1537 130.657 46.8881ZM151.899 35.2631V39.3412H153.821V40.9974H151.899V45.6224H149.899V35.2631H151.899ZM140.712 39.7943C140.704 37.6771 142.43 36.1771 144.618 36.1849C146.798 36.1771 148.493 37.6771 148.493 39.7943C148.493 41.8802 146.798 43.4037 144.618 43.4037C142.43 43.4037 140.704 41.8802 140.712 39.7943ZM142.68 49.2318V44.5287H144.665V47.6381H152.415V49.2318H142.68ZM142.68 39.7943C142.665 40.9506 143.532 41.6693 144.618 41.6693C145.712 41.6693 146.548 40.9506 146.555 39.7943C146.548 38.6068 145.712 37.9115 144.618 37.9193C143.532 37.9115 142.665 38.6068 142.68 39.7943ZM169.445 35.2631V49.5131H167.461V41.2787H163.57V39.6537H167.461V35.2631H169.445ZM158.164 46.1693V36.7787H160.164V44.5052C161.969 44.474 163.828 44.3177 165.758 43.9506L165.976 45.5756C163.68 46.0521 161.492 46.1693 159.367 46.1693H158.164ZM183.906 43.2162V44.8099H178.343V49.4662H176.374V44.8099H170.89V43.2162H183.906ZM172.421 41.6849V35.9506H182.343V41.6849H172.421ZM174.39 40.1224H180.359V37.5287H174.39V40.1224ZM195.264 36.3724C195.256 38.0521 196.975 39.9037 200.233 40.3099L199.452 41.9193C196.967 41.5599 195.147 40.4115 194.217 38.8724C193.28 40.4037 191.467 41.5599 189.014 41.9193L188.217 40.3099C191.452 39.9037 193.163 38.0521 193.17 36.3724V35.6849H195.264V36.3724ZM187.717 44.6224V42.9974H200.686V44.6224H195.155V49.4818H193.186V44.6224H187.717ZM212.912 36.4974V37.8412C212.904 39.6224 212.904 41.6224 212.334 44.6381L210.334 44.4349C210.881 41.7474 210.904 39.7474 210.912 38.0756H202.537V36.4974H212.912ZM201.193 47.7474V46.1224H205.834V41.2318H207.818V46.1224H214.162V47.7474H201.193ZM226.888 35.2787V44.0287H224.998V40.5287H223.888V43.8724H222.029V35.4662H223.888V38.9193H224.998V35.2787H226.888ZM214.591 38.2006V36.6224H217.107V35.3412H219.091V36.6224H221.576V38.2006H214.591ZM215.029 41.1381C215.021 39.6459 216.326 38.6537 218.107 38.6537C219.912 38.6537 221.209 39.6459 221.216 41.1381C221.209 42.599 219.912 43.6146 218.107 43.6224C216.326 43.6146 215.021 42.599 215.029 41.1381ZM215.466 47.8256C217.31 47.2943 218.138 46.0131 218.138 44.7631V44.4662H220.123V44.7631C220.107 45.8021 220.576 46.8724 221.693 47.5834C222.826 46.8334 223.326 45.7162 223.341 44.7631V44.4662H225.326V44.7631C225.31 46.0834 226.107 47.349 227.998 47.8256L227.076 49.3099C225.701 48.8881 224.795 48.0599 224.295 47.0131C223.841 48.0599 223.021 48.9818 221.732 49.4506C220.412 48.9896 219.576 48.1224 219.115 47.0834C218.607 48.0834 217.709 48.8881 216.404 49.3099L215.466 47.8256ZM216.81 41.1381C216.802 41.8021 217.326 42.1849 218.107 42.1849C218.88 42.1849 219.412 41.8021 219.42 41.1381C219.412 40.4427 218.88 40.0756 218.107 40.0756C217.334 40.0756 216.802 40.4427 216.81 41.1381ZM232.068 36.2631C233.989 36.2631 235.427 37.8412 235.708 40.4037H238.177V35.2631H240.146V49.5131H238.177V41.9974H235.732C235.521 44.7318 234.052 46.4037 232.068 46.4037C229.911 46.4037 228.364 44.4506 228.38 41.3256C228.364 38.224 229.911 36.2631 232.068 36.2631ZM230.286 41.3256C230.278 43.4427 231.005 44.599 232.068 44.5912C233.138 44.599 233.849 43.4427 233.849 41.3256C233.849 39.2162 233.138 38.0599 232.068 38.0599C231.005 38.0599 230.278 39.2162 230.286 41.3256ZM254.637 46.1849V47.8256H241.622V46.1849H244.528V42.7006C243.426 42.0365 242.762 41.0287 242.762 39.7787C242.762 37.474 245.012 35.9584 248.106 35.9506C251.184 35.9584 253.458 37.474 253.466 39.7787C253.458 41.0052 252.817 41.9974 251.747 42.6615V46.1849H254.637ZM244.731 39.7787C244.731 41.1693 246.067 42.0287 248.106 42.0287C250.114 42.0287 251.489 41.1693 251.497 39.7787C251.489 38.349 250.114 37.5209 248.106 37.5287C246.067 37.5209 244.731 38.349 244.731 39.7787ZM246.497 46.1849H249.731V43.4193C249.223 43.5209 248.676 43.5756 248.106 43.5756C247.536 43.5756 246.997 43.5209 246.497 43.4271V46.1849ZM256.942 48.1849C256.207 48.1849 255.614 47.599 255.629 46.8724C255.614 46.1537 256.207 45.5677 256.942 45.5756C257.637 45.5677 258.239 46.1537 258.239 46.8724C258.239 47.599 257.637 48.1849 256.942 48.1849Z" fill="#221814"/>
<path d="M130.568 82.1849V83.7787H117.553V82.1849H122.99V78.9662H124.974V82.1849H130.568ZM117.865 77.7631C121.084 77.2631 122.896 75.099 122.912 73.0912V72.0756H125.037V73.0912C125.029 75.1224 126.865 77.2631 130.115 77.7631L129.271 79.4193C126.771 78.9662 124.912 77.6302 123.974 75.8568C123.045 77.6224 121.193 78.974 118.709 79.4193L117.865 77.7631ZM143.997 77.7162V79.3256H138.497V80.3802C140.966 80.5599 142.435 81.4506 142.451 82.9193C142.435 84.5677 140.568 85.4896 137.497 85.4818C134.38 85.4896 132.513 84.5677 132.513 82.9193C132.513 81.4427 133.99 80.5521 136.513 80.3724V79.3256H131.029V77.7162H143.997ZM131.607 75.6224C134.24 75.3881 135.693 74.4193 136.052 73.4349H132.216V71.8724H142.826V73.4349H138.958C139.302 74.4271 140.747 75.3881 143.451 75.6224L142.747 77.1849C140.06 76.9271 138.255 75.9193 137.497 74.5365C136.747 75.9115 134.958 76.9349 132.263 77.1849L131.607 75.6224ZM134.544 82.9193C134.537 83.6068 135.529 83.9818 137.497 83.9818C139.427 83.9818 140.443 83.6068 140.451 82.9193C140.443 82.2006 139.427 81.8568 137.497 81.8412C135.529 81.8568 134.537 82.2006 134.544 82.9193ZM155.786 71.2787V75.6381H157.708V77.2631H155.786V81.8881H153.786V71.2787H155.786ZM144.505 74.3412V72.7631H147.739V71.2474H149.724V72.7631H152.942V74.3412H144.505ZM145.192 77.5912C145.192 75.9427 146.653 74.8412 148.724 74.8412C150.786 74.8412 152.224 75.9427 152.224 77.5912C152.224 79.2318 150.786 80.3099 148.724 80.3099C146.653 80.3099 145.192 79.2318 145.192 77.5912ZM146.567 85.2318V81.0756H148.552V83.6381H156.302V85.2318H146.567ZM147.145 77.5912C147.138 78.3724 147.77 78.7943 148.724 78.7943C149.685 78.7943 150.333 78.3724 150.333 77.5912C150.333 76.8021 149.685 76.3646 148.724 76.3568C147.77 76.3646 147.138 76.8021 147.145 77.5912ZM161.785 84.0443L161.77 82.3412L165.832 78.6068C166.887 77.599 167.457 76.974 167.457 76.0756C167.457 75.0677 166.699 74.4427 165.66 74.4506C164.598 74.4427 163.902 75.1146 163.91 76.2006H161.676C161.668 73.9896 163.309 72.5756 165.691 72.5756C168.113 72.5756 169.723 73.9584 169.723 75.9193C169.723 77.2084 169.098 78.2631 166.77 80.3724L165.051 82.0443V82.1068H169.879V84.0443H161.785ZM175.589 84.2006C172.754 84.2006 171.043 82.0912 171.043 78.3881C171.043 74.6927 172.769 72.5756 175.589 72.5756C178.41 72.5756 180.136 74.6927 180.136 78.3881C180.136 82.1068 178.418 84.2006 175.589 84.2006ZM173.449 78.3881C173.433 80.9974 174.277 82.2631 175.589 82.2631C176.902 82.2631 177.738 80.9974 177.73 78.3881C177.738 75.8021 176.894 74.5052 175.589 74.4974C174.285 74.5052 173.449 75.8021 173.449 78.3881ZM181.409 84.0443L181.394 82.3412L185.456 78.6068C186.511 77.599 187.081 76.974 187.081 76.0756C187.081 75.0677 186.323 74.4427 185.284 74.4506C184.222 74.4427 183.527 75.1146 183.534 76.2006H181.3C181.292 73.9896 182.933 72.5756 185.316 72.5756C187.737 72.5756 189.347 73.9584 189.347 75.9193C189.347 77.2084 188.722 78.2631 186.394 80.3724L184.675 82.0443V82.1068H189.503V84.0443H181.409ZM195.01 84.2006C192.526 84.2006 190.745 82.8334 190.698 80.8568H193.073C193.112 81.7006 193.932 82.2552 195.026 82.2631C196.151 82.2552 196.956 81.6302 196.948 80.7162C196.956 79.7943 196.135 79.1459 194.807 79.1381H193.76V77.4037H194.807C195.925 77.4037 196.706 76.7943 196.698 75.9037C196.706 75.0365 196.042 74.4427 195.042 74.4506C194.042 74.4427 193.221 75.0052 193.182 75.8724H190.932C190.971 73.9271 192.721 72.5756 195.042 72.5756C197.401 72.5756 198.971 73.974 198.964 75.7631C198.971 77.0287 198.089 77.9271 196.823 78.1537V78.2474C198.487 78.4506 199.401 79.4584 199.385 80.8724C199.401 82.8099 197.565 84.2006 195.01 84.2006ZM212.205 71.2787V81.7318H210.221V77.0756H206.69V75.5131H210.221V74.4193H206.69V72.8568H210.221V71.2787H212.205ZM201.018 79.8881V72.1693H202.987V78.2474C204.721 78.224 206.362 78.1146 208.127 77.7943L208.33 79.4037C206.198 79.8099 204.283 79.8802 202.158 79.8881H201.018ZM202.752 85.2318V80.7943H204.752V83.6381H212.549V85.2318H202.752ZM216.697 82.8881L215.353 87.3412H213.697L214.478 82.8881H216.697ZM97.4441 95.2787V99.6381H99.366V101.263H97.4441V105.888H95.4441V95.2787H97.4441ZM86.1629 98.3412V96.7631H89.3972V95.2474H91.3816V96.7631H94.6004V98.3412H86.1629ZM86.8504 101.591C86.8504 99.9427 88.3113 98.8412 90.3816 98.8412C92.4441 98.8412 93.8816 99.9427 93.8816 101.591C93.8816 103.232 92.4441 104.31 90.3816 104.31C88.3113 104.31 86.8504 103.232 86.8504 101.591ZM88.2254 109.232V105.076H90.2097V107.638H97.9597V109.232H88.2254ZM88.8035 101.591C88.7957 102.372 89.4285 102.794 90.3816 102.794C91.3426 102.794 91.991 102.372 91.991 101.591C91.991 100.802 91.3426 100.365 90.3816 100.357C89.4285 100.365 88.7957 100.802 88.8035 101.591ZM111.623 95.2787V105.763H109.639V100.638H107.014V103.513H100.248V96.2006H102.248V98.3881H105.045V96.2006H107.014V99.0443H109.639V95.2787H111.623ZM102.155 109.232V104.716H104.17V107.638H111.92V109.232H102.155ZM102.248 101.951H105.045V99.9037H102.248V101.951ZM128.404 95.2631V109.482H126.388V95.2631H128.404ZM116.497 105.451C120.169 103.716 121.787 101.466 122.107 98.3099H117.263V96.7474H124.138C124.13 101.06 122.622 104.646 117.544 107.044L116.497 105.451ZM142.927 102.888V104.482H129.911V102.888H135.427V101.857H131.536V97.9506H139.349V97.0756H131.505V95.5287H141.349V99.3881H133.52V100.326H141.614V101.857H137.411V102.888H142.927ZM131.364 106.857V105.294H141.427V109.419H139.411V106.857H131.364ZM150.262 97.4349V99.0131H143.387V97.4349H145.856V95.6537H147.825V97.4349H150.262ZM143.715 103.029C143.715 101.052 145.043 99.6615 146.856 99.6537C148.676 99.6615 149.973 101.052 149.981 103.029C149.973 105.013 148.676 106.419 146.856 106.419C145.043 106.419 143.715 105.013 143.715 103.029ZM145.465 103.029C145.465 104.115 146.028 104.732 146.856 104.732C147.653 104.732 148.223 104.115 148.231 103.029C148.223 101.958 147.653 101.31 146.856 101.31C146.028 101.31 145.465 101.958 145.465 103.029ZM150.793 108.872V95.5443H152.653V101.044H153.809V95.2631H155.7V109.482H153.809V102.638H152.653V108.872H150.793ZM169.895 106.201V107.826H156.879V106.201H162.363V103.576H158.254V96.1693H160.254V98.3724H166.457V96.1693H168.441V103.576H164.348V106.201H169.895ZM160.254 101.982H166.457V99.9662H160.254V101.982ZM181.902 99.1381V100.701H171.964V95.7631H173.949V99.1381H181.902ZM170.339 103.794V102.232H183.355V103.794H170.339ZM171.839 109.169V104.951H173.839V107.576H181.996V109.169H171.839ZM195.816 95.2631V109.482H193.831V102.357H191.003V100.732H193.831V95.2631H195.816ZM183.691 105.451C187.284 103.677 188.777 101.427 189.073 98.3099H184.362V96.7474H191.081C191.073 101.036 189.683 104.552 184.722 107.013L183.691 105.451ZM204.565 96.2631C206.487 96.2631 207.924 97.8412 208.205 100.404H210.674V95.2631H212.643V109.513H210.674V101.997H208.229C208.018 104.732 206.549 106.404 204.565 106.404C202.408 106.404 200.862 104.451 200.877 101.326C200.862 98.224 202.408 96.2631 204.565 96.2631ZM202.783 101.326C202.776 103.443 203.502 104.599 204.565 104.591C205.635 104.599 206.346 103.443 206.346 101.326C206.346 99.2162 205.635 98.0599 204.565 98.0599C203.502 98.0599 202.776 99.2162 202.783 101.326ZM223.65 95.4974V100.779H224.728V95.2631H226.603V109.482H224.728V102.404H223.65V108.841H221.822V95.4974H223.65ZM214.353 106.029V96.9662H217.4V98.5599H216.181V104.349C216.556 104.31 216.955 104.247 217.4 104.138L217.541 105.794C216.51 106.013 215.744 106.036 214.994 106.029H214.353ZM217.947 106.029V96.9662H221.072V98.5599H219.728V104.365C220.189 104.341 220.681 104.271 221.244 104.138L221.369 105.794C220.299 106.021 219.463 106.036 218.588 106.029H217.947ZM240.611 106.185V107.826H227.595V106.185H230.501V102.701C229.4 102.036 228.736 101.029 228.736 99.7787C228.736 97.474 230.986 95.9584 234.079 95.9506C237.158 95.9584 239.431 97.474 239.439 99.7787C239.431 101.005 238.79 101.997 237.72 102.661V106.185H240.611ZM230.704 99.7787C230.704 101.169 232.04 102.029 234.079 102.029C236.087 102.029 237.462 101.169 237.47 99.7787C237.462 98.349 236.087 97.5209 234.079 97.5287C232.04 97.5209 230.704 98.349 230.704 99.7787ZM232.47 106.185H235.704V103.419C235.197 103.521 234.65 103.576 234.079 103.576C233.509 103.576 232.97 103.521 232.47 103.427V106.185ZM243.556 104.482C243.563 102.536 244.087 101.943 245.024 101.357C245.696 100.919 246.22 100.435 246.212 99.7162C246.22 98.9349 245.61 98.4271 244.852 98.4193C244.126 98.4271 243.446 98.9115 243.415 99.8256H241.196C241.235 97.6302 242.868 96.5756 244.868 96.5756C247.048 96.5756 248.587 97.7084 248.587 99.6381C248.587 100.927 247.923 101.74 246.899 102.357C246.017 102.88 245.626 103.388 245.618 104.482V104.654H243.556V104.482ZM243.321 106.872C243.306 106.154 243.899 105.568 244.634 105.576C245.329 105.568 245.931 106.154 245.931 106.872C245.931 107.599 245.329 108.185 244.634 108.185C243.899 108.185 243.306 107.599 243.321 106.872Z" fill="#221814"/>
<defs>
<clipPath id="clip0_267_11">
<rect width="156" height="154" fill="white" transform="translate(129 183)"/>
</clipPath>
</defs>
</svg>
