<svg width="180" height="40" viewBox="0 0 180 40" fill="none" xmlns="http://www.w3.org/2000/svg">
<path d="M165.615 2.58189C166.875 2.58189 167.675 3.44252 168.013 5.16377C168.013 8.14523 165.738 12.4484 161.189 18.0732C157.193 21.4542 154.304 23.2369 152.521 23.4214H152.337C151.23 23.4214 150.554 22.6837 150.308 21.2083C150.308 20.317 151.599 19.3949 154.181 18.442C156.609 16.8437 158.331 15.3683 159.345 14.0159C158.115 14.1389 157.193 14.2004 156.579 14.2004H152.89C151.169 14.0467 150.308 13.309 150.308 11.9873C150.646 10.7578 151.323 10.1431 152.337 10.1431H155.288C156.732 10.1431 159.007 10.0816 162.111 9.95869C162.849 8.57554 163.341 7.46902 163.587 6.63913H163.402C160.206 6.76208 157.685 6.82355 155.841 6.82355H153.628C152.03 6.66987 151.23 6.05513 151.23 4.97935V4.61051C151.23 3.50399 151.968 2.88926 153.443 2.76631H158.423C160.206 2.76631 162.603 2.70483 165.615 2.58189ZM177.234 0.829895C178.217 0.829895 178.832 1.69052 179.078 3.41178V9.31322C179.078 11.8029 179.016 14.4462 178.893 17.2433C179.016 17.8888 179.078 19.0568 179.078 20.7473C178.924 22.3456 178.309 23.1447 177.234 23.1447H176.312C175.451 22.7144 175.021 22.0997 175.021 21.3005V17.7965C175.021 17.274 174.959 16.7822 174.836 16.3212C174.959 15.8294 175.021 15.3376 175.021 14.8458V13.7393H170.779C169.304 13.6164 168.566 13.0016 168.566 11.8951V11.7107C168.566 10.3583 169.611 9.68206 171.701 9.68206H175.021V2.85852C175.021 1.65979 175.758 0.983578 177.234 0.829895ZM166.168 24.0207C167.429 24.0207 168.228 25.1734 168.566 27.4786C169.765 30.7367 172.592 33.4262 177.049 35.547C179.016 35.8236 180 36.6535 180 38.0367C179.693 39.3276 179.016 39.9731 177.971 39.9731C175.482 39.9731 172.039 37.9137 167.644 33.795C166.66 32.5655 166.168 31.7971 166.168 31.4897H165.984C164.017 34.963 160.39 37.7293 155.103 39.7886C154.919 39.9116 154.55 39.9731 153.997 39.9731C153.167 39.9731 152.614 39.3276 152.337 38.0367V37.8522C152.337 36.6535 153.751 35.6238 156.579 34.7632C160.513 32.2735 162.91 29.7839 163.771 27.2942C164.201 25.1119 165 24.0207 166.168 24.0207Z" fill="#221814"/>
<path d="M102.065 3.4577C103.418 3.4577 104.094 4.93306 104.094 7.88378C104.217 11.9718 104.278 15.5372 104.278 18.5801V23.7439C107.874 23.7439 112.669 23.3751 118.663 22.6374C119.124 22.6374 119.677 23.0677 120.323 23.9283V24.8504C120.323 26.4487 117.864 27.2479 112.946 27.2479C110.364 27.4938 107.352 27.6782 103.909 27.8012C101.573 27.8012 100.405 26.6332 100.405 24.2972C100.282 21.5923 100.159 15.1991 100.037 5.11747C100.436 4.01095 101.112 3.4577 102.065 3.4577ZM131.803 0.599182C132.786 1.06023 133.278 1.67497 133.278 2.44339C133.278 5.27116 133.34 10.189 133.463 17.197C133.463 17.6888 133.401 18.7953 133.278 20.5166C133.524 24.5431 133.647 29.5224 133.647 35.4546C133.647 36.4074 132.971 37.0836 131.618 37.4832C130.481 37.4832 129.805 36.6226 129.59 34.9013V33.9792C129.59 30.4138 129.528 25.4959 129.405 19.2256H125.533V29.1843C125.533 30.3216 125.594 31.9199 125.717 33.9792C125.225 35.2087 124.549 35.8234 123.688 35.8234C122.336 35.8234 121.66 34.5325 121.66 31.9506C121.537 30.6289 121.475 28.5388 121.475 25.6803C121.475 24.3279 121.537 23.4673 121.66 23.0984C121.537 21.4387 121.475 20.0248 121.475 18.8568V3.5499C121.475 1.9516 122.152 1.15244 123.504 1.15244C124.856 1.3676 125.533 2.04381 125.533 3.18106V15.1684H125.717C126.055 15.1684 127.285 15.2298 129.405 15.3528V14.6151C129.405 12.064 129.344 8.19114 129.221 2.99664C129.221 1.45981 130.082 0.660657 131.803 0.599182Z" fill="#FF5C0A"/>
<path d="M51.6694 1.79791C53.0218 1.79791 53.698 2.59707 53.698 4.19538V6.77726L53.8824 7.1461L56.0955 6.96168H59.415C61.6281 6.96168 62.7346 7.69936 62.7346 9.17472C62.4272 10.4042 61.751 11.0189 60.706 11.0189H46.5056C45.522 11.0189 44.2311 11.0804 42.6328 11.2033C41.5877 11.2033 40.9115 10.4657 40.6042 8.9903C40.6042 7.91452 41.4033 7.29978 43.0016 7.1461H49.2719C49.5178 7.1461 49.6408 7.02315 49.6408 6.77726V4.19538C49.6408 2.59707 50.317 1.79791 51.6694 1.79791ZM51.485 13.0475C55.5115 13.0475 58.4007 15.1376 60.1527 19.3178C60.2756 19.7789 60.3371 20.2707 60.3371 20.7932V21.3464C60.3371 25.7418 57.8167 28.631 52.7759 30.0142L51.6694 30.1986C47.6121 30.1986 44.7229 28.17 43.0016 24.1128L42.8172 22.8218V22.453C42.8172 18.0576 44.477 15.1684 47.7965 13.7852C49.2104 13.2934 50.4399 13.0475 51.485 13.0475ZM46.8744 21.8997V22.6374C46.8744 24.205 48.1039 25.3115 50.5629 25.957L51.8538 26.1414C53.3906 26.1414 54.8045 25.0963 56.0955 23.0062L56.2799 21.162V20.7932C55.6344 18.3343 53.7287 17.1048 50.5629 17.1048C48.1039 17.5658 46.8744 19.1641 46.8744 21.8997ZM73.2004 0.599182C74.184 1.06023 74.6758 1.67497 74.6758 2.44338C74.6758 5.27116 74.7373 10.189 74.8602 17.197C74.8602 17.6888 74.7987 18.7953 74.6758 20.5166C74.9217 24.5431 75.0446 29.5224 75.0446 35.4546C75.0446 36.4074 74.3684 37.0836 73.016 37.4832C71.8787 37.4832 71.2025 36.6226 70.9874 34.9013V33.9792C70.9874 30.4138 70.9259 25.4959 70.803 19.2256H66.9301V29.1843C66.9301 30.3216 66.9916 31.9199 67.1146 33.9792C66.6228 35.2087 65.9466 35.8234 65.0859 35.8234C63.7335 35.8234 63.0573 34.5325 63.0573 31.9506C62.9344 30.6289 62.8729 28.5388 62.8729 25.6803C62.8729 24.3279 62.9344 23.4673 63.0573 23.0984C62.9344 21.4387 62.8729 20.0248 62.8729 18.8568V3.5499C62.8729 1.9516 63.5491 1.15244 64.9015 1.15244C66.2539 1.3676 66.9301 2.04381 66.9301 3.18106V15.1684H67.1146C67.4527 15.1684 68.6821 15.2298 70.803 15.3528V14.6151C70.803 12.064 70.7415 8.19114 70.6185 2.99664C70.6185 1.45981 71.4792 0.660657 73.2004 0.599182Z" fill="#221814"/>
<path d="M14.6614 0C22.6529 0.0307381 27.2635 1.99789 28.4929 5.90144C28.6159 6.57765 28.6773 7.13091 28.6773 7.56123C28.6773 11.434 25.0504 13.8315 17.7965 14.7536H17.0589C8.08375 14.7536 3.59619 12.4176 3.59619 7.74565C3.59619 4.14945 6.23955 1.69052 11.5263 0.368841C13.1246 0.122947 14.1696 0 14.6614 0ZM7.65344 7.56123V7.74565C7.65344 9.71279 10.973 10.6964 17.6121 10.6964C20.5936 10.6964 22.9911 9.71279 24.8045 7.74565V7.56123C24.8045 5.83997 22.3456 4.67198 17.4277 4.05724C17.3048 4.05724 17.2433 4.11872 17.2433 4.24166C16.3212 4.11872 15.7065 3.99577 15.3991 3.87282C10.2353 4.48756 7.65344 5.71703 7.65344 7.56123ZM16.0446 11.5724H16.9667C17.8273 12.0642 18.2576 12.8018 18.2576 13.7854V16.9205H19.733C21.5772 16.9205 24.5894 17.0435 28.7695 17.2894L30.6138 17.105C31.7203 17.4738 32.2735 18.0885 32.2735 18.9492V19.318C31.9969 20.5475 31.3822 21.1622 30.4293 21.1622C29.2306 21.1622 22.8374 21.0393 11.2496 20.7934C6.33176 20.9163 3.50398 20.9778 2.7663 20.9778C0.922101 20.7626 0 20.0864 0 18.9492V18.7647C0.245894 17.5353 0.860628 16.9205 1.8442 16.9205C4.08798 16.9205 8.26817 16.8591 14.3848 16.7361L14.2004 16.3673V14.8919C14.2004 12.6789 14.8151 11.5724 16.0446 11.5724ZM5.67092 23.1908H18.0271C24.4203 23.1908 27.6169 23.4982 27.6169 24.1129C27.9858 25.0658 28.1702 26.6026 28.1702 28.7234C28.1702 31.6742 26.8792 33.1495 24.2974 33.1495C21.2852 33.2725 15.7526 33.3954 7.69954 33.5184V35.6392H15.9985C18.15 35.6392 20.3631 35.7007 22.6376 35.8236C23.1908 35.7007 24.5433 35.6392 26.6948 35.6392C27.8628 35.6392 28.4776 36.4383 28.539 38.0367C28.1702 39.1432 27.371 39.6964 26.1416 39.6964H6.03976C4.44145 39.4198 3.6423 38.8051 3.6423 37.8522L3.82672 36.5613V36.1925C3.82672 35.6085 3.76525 34.84 3.6423 33.8872C3.6423 30.9365 4.68735 29.4611 6.77744 29.4611C7.26923 29.4611 7.51512 29.5226 7.51512 29.6455C7.63807 29.6455 8.12986 29.5841 8.99048 29.4611C16.7976 29.3382 21.4081 29.2767 22.822 29.2767L24.1129 29.0923V27.2481C18.4266 27.1251 14.0006 27.0637 10.8347 27.0637H6.22418C5.94755 27.0637 5.70166 27.1251 5.4865 27.2481C4.65661 27.2481 3.9804 26.7563 3.45788 25.7727V25.035C3.45788 23.9285 4.19556 23.3138 5.67092 23.1908Z" fill="#221814"/>
</svg>
