<svg width="270" height="86" viewBox="0 0 270 86" fill="none" xmlns="http://www.w3.org/2000/svg">
<g clip-path="url(#clip0_401_31)">
<path d="M2.04219 71.5564C2.62662 70.9432 2.54581 70.3446 2.07742 69.7607C1.05209 68.5006 1.4322 66.9039 1.12157 65.4766C1.08614 65.3286 1.17206 65.0343 1.29812 64.9728C2.96399 64.1397 2.63665 62.3487 3.2606 61.0025C5.02774 57.1964 4.88352 53.019 5.70046 49.0337C6.054 47.3261 6.70291 45.6923 6.92986 43.9133C7.13441 42.2531 7.1931 40.6043 7.17991 38.9493C7.16834 37.9704 7.18544 37.0786 7.54427 36.144C8.29005 34.2289 8.80244 32.2212 9.70087 30.3556C9.93628 29.869 9.9331 29.3497 9.83511 28.81C9.4968 26.7283 9.91022 24.7482 10.4007 22.7144C11.2693 19.1079 12.7197 15.6122 12.748 11.812C12.7582 10.0262 13.3524 8.32736 14.2029 6.73529C14.4201 6.31956 14.7623 5.85432 14.7279 5.41674C14.6298 3.76642 15.6337 4.02262 16.5735 4.32154C17.8884 4.74961 19.1173 5.19436 20.6134 4.92592C21.4099 4.78987 22.3982 5.50345 23.2427 5.92689C25.0004 6.81594 26.7993 7.09289 28.6704 6.39829C29.5695 6.05385 30.3212 6.15536 31.0308 6.88095C31.8071 7.67269 32.8177 7.98984 33.9195 7.95274C37.2608 7.84455 40.5131 8.34431 43.7576 9.07277C46.1378 9.60544 48.6529 9.55829 51.0008 10.1847C53.4795 10.8346 56.1134 11.0875 58.3515 12.5615C59.5273 13.3397 60.911 13.5323 62.3576 13.4165C63.5375 13.3137 64.7169 13.0781 65.9328 13.2562C66.934 13.4035 67.7654 12.7272 68.5373 12.1786C71.483 10.0925 74.805 9.78945 78.2688 10.0782C79.7665 10.2083 81.2167 9.63405 82.5534 9.25519C84.9918 8.56157 87.4918 8.54933 89.9157 8.02344C94.1248 7.0973 98.474 6.91972 102.587 5.42993C104.045 4.90467 105.623 5.64528 107.104 5.96706C107.838 6.12743 108.428 6.15446 109.164 6.01321C111.422 5.59362 113.445 6.07111 113.683 9.17014C113.863 11.407 113.852 13.4705 113.305 15.6079C113.029 16.6946 113.526 17.788 113.748 18.8455C114.488 22.4107 115.291 25.9572 116.179 29.487C116.53 30.8695 117.092 32.1859 117.368 33.5981C117.769 35.649 118.208 37.679 118.108 39.8071C118.058 40.8047 118.187 41.8179 118.281 42.816C118.423 44.3856 118.906 45.9124 118.584 47.5263C118.497 47.9774 118.559 48.514 118.714 48.95C119.948 52.4011 119.958 56.0357 120.421 59.6009C120.742 62.0191 121.246 64.4169 121.715 66.7996C121.96 68.016 121.674 68.9449 120.655 69.6894C120.05 70.1317 119.501 70.6152 119.113 71.33C118.753 71.9989 118.01 72.3449 117.12 72.0381C116.135 71.6991 115.135 71.6727 114.186 72.1817C114.02 72.276 113.791 72.413 113.663 72.3656C111.56 71.5553 109.493 72.5588 107.415 72.4387C104.976 72.2994 102.843 73.3696 100.637 74.1679C100.001 74.4024 99.3793 74.614 98.6807 74.4567C98.2306 74.3573 97.8279 74.4068 97.5685 74.8913C97.4961 75.0299 97.2007 75.2336 97.1559 75.1935C95.5769 74.0543 94.2872 75.8376 92.7499 75.6076C91.2136 75.3655 89.7509 76.0835 88.2538 76.3639C86.193 76.7402 84.1061 77.1385 82.0349 77.3569C79.8418 77.589 77.9175 78.617 75.789 78.9392C75.1775 79.0309 74.5706 79.2076 73.9491 79.2743C72.6702 79.4047 71.8252 78.8484 71.4891 77.5758C71.3442 77.02 71.2243 76.4543 71.0544 75.9083C70.9684 75.6474 70.8788 75.2895 70.6725 75.1629C69.3159 74.3811 68.9913 73.8097 69.125 72.1312C69.2207 71.0289 69.2446 69.9203 69.4591 68.8404C70.0303 66.0169 69.3595 63.3148 68.7987 60.5982C68.7742 60.4633 68.7648 60.2935 68.6903 60.1783C66.6834 57.155 67.0643 53.6027 66.8801 50.3031C66.7167 47.3192 66.1283 44.5036 65.4971 41.6239C64.8748 38.7812 64.9641 35.8072 64.3309 32.9514C64.0958 31.9049 63.6982 30.5062 62.7063 30.5287C61.9322 30.546 61.9298 32.1031 61.9096 33.0309C61.798 37.512 61.0697 41.8671 59.909 46.1968C59.1732 48.9698 59.075 51.9068 58.0918 54.6101C57.6168 55.9088 57.4101 57.3154 56.582 58.511C55.9877 59.3769 55.7044 60.4146 55.6227 61.494C55.3293 65.4282 54.3931 69.2582 53.7085 73.1101C53.1634 76.1894 50.4323 78.5839 46.9722 77.5591C43.4891 76.5202 40.1064 75.0192 36.4775 74.5471C33.7681 74.1911 31.0592 73.6902 28.2175 74.3005C26.7782 74.6101 24.9721 74.417 23.4576 73.6457C21.9541 72.8873 20.3668 72.6771 18.7051 72.907C17.508 73.0686 16.304 72.8916 15.1168 72.8005C13.7129 72.7028 12.3465 72.7289 11.0181 73.2896C9.91588 73.7492 8.77919 73.7712 7.64923 73.2988C7.60234 73.2827 7.54243 73.2775 7.50545 73.2863C5.62393 74.3784 4.51368 73.1231 3.3352 71.9584C3.06845 71.6938 2.55116 71.673 2.04739 71.4964L2.04219 71.5564ZM45.4538 14.4231C45.0245 14.3617 44.3218 14.2524 43.6039 14.178C42.6933 14.0989 41.8114 14.3845 41.775 15.3591C41.6477 18.354 41.8491 21.3171 43.8289 23.8189C44.1879 24.2726 44.6375 24.5169 45.2042 24.3851C46.3248 24.1323 46.4993 24.7631 46.19 25.5451C45.8353 26.4318 45.6229 27.4877 44.5816 27.9405C42.1468 29.0087 39.7142 30.0529 37.2893 31.1461C36.6991 31.4087 36.1813 31.8104 35.6655 31.0775C35.1607 30.3576 35.557 29.8247 36.0024 29.2839C36.9582 28.1476 38.2907 27.539 39.5555 26.8763C40.5801 26.3375 40.7186 25.5769 40.3694 24.5929C40.1251 23.9319 39.6322 23.4907 39.1154 23.0474C37.8786 21.9984 37.209 20.6727 37.3167 19.0161C37.376 18.0554 37.4832 17.099 37.5294 16.1493C37.5918 14.3198 37.1656 13.9447 35.372 13.6079C32.3078 13.0279 29.2159 12.6266 26.2856 11.4787C24.8732 10.9215 24.1804 11.3925 24.177 12.9615C24.1694 15.4115 24.4077 17.8104 25.2165 20.1743C26.4827 23.9421 27.451 27.8048 28.0766 31.7222C28.54 34.5873 28.5538 37.4858 26.3672 39.8672C26.1807 40.0683 26.1177 40.3767 26.0448 40.6601C25.1309 43.8161 23.9476 46.8762 22.6717 49.892C22.1571 51.0908 21.8353 52.2942 21.5802 53.5637C21.1277 55.8543 21.3655 58.398 19.4195 60.233C19.17 60.4648 19.4076 60.7873 19.5186 61.0384C20.5258 63.2022 20.9422 65.4959 21.2097 67.8369C21.2619 68.3485 21.4411 68.7866 21.9699 68.9532C25.6681 70.1557 29.3909 71.2154 33.3562 70.8717C35.0347 70.7277 36.7001 70.5947 38.2942 71.4213C40.7209 72.6702 43.3892 73.0831 46.0445 73.5068C47.3901 73.7203 48.5845 73.1721 49.4049 72.2052C50.3737 71.058 51.3519 69.8029 51.0762 68.113C50.949 67.3535 51.5688 66.6106 50.8545 65.8001C50.2168 65.0807 51.4222 64.5456 51.3653 63.6715C51.2323 61.7284 52.0468 59.8555 52.4738 57.9973C53.0903 55.3467 53.774 52.6174 55.0652 50.122C55.5568 49.1869 55.9693 48.0517 55.8483 46.9426C55.6132 44.7855 57.1367 42.95 56.6921 40.7022C56.3075 38.7373 58.3822 37.2274 58.0861 35.077C57.8708 33.5252 58.6114 31.9477 58.4393 30.3151C58.2969 29.0351 58.4812 27.7474 58.9619 26.5216C59.8639 24.1976 60.5784 21.809 60.7001 19.2965C60.7448 18.5036 60.6233 17.817 59.7679 17.3806C57.5475 16.2582 55.0782 15.7781 52.7277 15.3205C50.472 14.8831 48.1205 14.4374 45.4777 14.4252L45.4538 14.4231ZM110.478 16.0385C110.44 14.9487 110.441 13.4156 110.332 11.8851C110.261 10.9011 109.802 10.0645 108.684 10.0156C104.762 9.85611 100.821 9.50176 96.9695 10.7608C95.9505 11.0948 94.8806 11.4606 93.9189 11.6909C92.9453 11.9203 92.1327 12.1032 91.3774 12.7378C91.2211 12.8691 90.9174 12.891 90.6877 12.8952C88.1914 13.0043 85.7232 13.3453 83.2519 13.7222C79.0308 14.3696 74.7764 14.8452 71.004 17.1372C70.2393 17.6019 69.3496 17.8385 68.3957 17.8402C66.5 17.8445 65.4129 18.8245 65.2766 20.6718C65.0644 23.6714 65.3637 26.6188 66.8086 29.3036C68.6901 32.7989 69.6229 36.5136 69.8489 40.4446C70.018 43.5014 69.8115 46.5739 70.4172 49.6083C70.7971 51.4883 71.104 51.7082 72.8412 50.7484C74.008 50.1013 75.0331 49.14 76.3438 48.7831C78.4092 48.214 80.2168 47.1396 82.0254 46.0533C83.6818 45.0503 83.7131 44.9685 81.9876 43.9857C81.1135 43.4872 80.7825 42.1547 79.6516 42.2496C78.4727 42.3404 78.1446 43.6157 77.3951 44.3232C76.7768 44.9093 75.9642 45.0922 75.2806 44.6224C74.5971 44.1526 74.1652 43.427 74.5719 42.4966C75.0693 41.3567 75.475 40.1606 76.5673 39.3983C77.6586 38.6481 77.7408 37.7015 77.0463 36.6634C76.5336 35.8945 76.3517 35.0699 76.5366 34.1926C76.8677 32.6037 77.2098 31.0278 76.9799 29.3661C76.9137 28.8774 77.1314 28.3169 77.3178 27.8381C79.0026 23.5902 81.7773 20.4148 86.2192 18.8932C87.4882 18.4602 88.6868 17.8641 90.025 17.6061C94.3237 16.7602 98.2199 17.6297 101.769 20.1351C102.292 20.5064 102.826 20.8908 103.467 20.4636C104.492 19.78 105.635 19.819 106.798 19.7751C109.243 19.6977 110.27 18.7125 110.459 15.9885L110.478 16.0385ZM22.1577 22.311C21.9877 20.6545 21.5499 18.4676 21.6174 16.3005C21.6839 14.1454 20.3667 12.0753 21.4032 9.87162C21.6537 9.35014 21.1046 9.00065 20.5076 9.20231C19.2517 9.6244 18.2296 10.272 18.2183 11.7921C18.2206 13.1565 17.9832 14.5 17.3957 15.7045C15.729 19.0485 15.2606 22.7743 13.8513 26.2132C12.9638 28.3695 13.174 30.8142 12.9013 33.1204C12.4906 36.5977 12.0221 40.0459 11.1473 43.4466C10.9297 44.2848 10.7959 45.1303 10.5782 45.9686C9.86845 48.7197 10.0172 51.5937 9.3554 54.349C8.92268 56.1343 9.29625 56.6979 11.1842 56.9223C12.4271 57.0664 13.6623 57.1616 14.8068 57.7439C15.8118 58.2658 16.4744 57.8646 16.7806 56.8409C16.9535 56.2403 17.0665 55.6344 17.2044 55.0186C18.0334 51.0344 18.7914 47.032 20.8076 43.4164C21.4649 42.2422 21.9815 41.0195 21.9465 39.6161C21.9219 38.6482 22.4579 37.898 23.0965 37.217C23.6559 36.6137 24.2763 36.0037 24.3382 35.1519C24.5238 32.319 24.6027 29.4648 22.9495 26.9551C22.0961 25.6617 21.9121 24.3057 22.1697 22.3121L22.1577 22.311ZM79.794 29.2121C79.5401 32.1356 79.7705 33.9302 80.6387 36.4442C80.7841 36.8552 80.9055 37.2641 80.9899 37.6819C81.447 40.0636 83.9832 42.2757 86.3956 42.1593C90.1787 41.9688 93.9315 41.5704 97.6076 40.5255C100.529 39.6928 101.843 37.7667 102.196 34.9484C102.339 33.8622 102.316 32.7375 102.78 31.7034C103.123 30.9485 103.017 30.2271 102.818 29.4613C102.222 27.152 101.019 25.1523 99.8958 23.0749C98.6771 20.8444 96.8381 20.0569 94.4673 19.9717C90.316 19.8164 86.5262 20.5013 83.254 23.4283C81.3433 25.1335 79.6359 26.7236 79.7961 29.1881L79.794 29.2121ZM111.801 36.2534C111.021 36.3425 110.744 36.8859 110.449 37.3673C109.445 39.0547 108.35 40.6859 107.565 42.5009C107.279 43.1521 107.179 43.747 107.263 44.4425C107.765 48.3974 107.4 52.1805 104.995 55.545C104.444 56.3301 103.916 57.1292 103.332 57.8753C102.926 58.3832 102.66 58.9396 102.665 59.5799C102.66 62.1387 102.191 64.621 101.518 67.0857C101.325 67.7811 101.222 68.5448 101.876 69.0845C102.495 69.597 103.171 69.3177 103.785 69.0572C105.678 68.2558 107.603 67.9159 109.682 68.0241C111.448 68.1171 113.22 68.0054 114.981 67.6151C117.615 67.023 118.105 66.5343 117.74 63.7864C117.38 61.1114 117.589 58.4374 117.423 55.7551C117.368 54.8571 117.284 54.0168 116.24 53.9502C115.147 53.8795 115.067 54.8021 114.911 55.6335C114.481 57.9382 113.956 60.2345 113.219 62.4642C112.989 63.1686 112.656 63.8036 111.681 63.6344C110.372 63.4121 110.092 62.8808 110.686 61.4596C112.444 57.206 113.417 52.6789 115.034 48.3768C115.316 47.6287 115.329 46.7848 114.406 46.427C113.437 46.0531 112.794 46.6491 112.515 47.4941C111.686 49.9452 110.541 52.2963 110.018 54.8344C109.494 57.3964 108.326 59.7215 107.463 62.1575C107.27 62.7081 106.922 63.2453 106.227 63.1849C105.508 63.1225 105.222 62.5182 105.035 61.8983C104.864 61.3644 105.04 60.8606 105.134 60.3376C105.506 58.2814 106.533 56.4632 107.185 54.5159C108.509 50.5264 109.449 46.3827 111.905 42.8417C112.29 42.2957 112.532 41.6044 112.301 40.9204C111.791 39.4275 112.121 37.8505 111.801 36.2534ZM89.2316 71.4993C90.4594 71.4007 92.0259 71.573 93.2698 70.5945C94.4746 69.6489 95.582 68.5741 96.6993 67.5243C97.3046 66.9491 97.9083 66.2531 97.5498 65.3769C96.7239 63.3495 96.7955 61.1344 96.1296 59.0726C95.5199 57.1968 95.1396 57.1276 93.4409 58.1993C90.9765 59.7478 88.7435 61.6906 85.993 62.7796C84.8559 63.2241 84.3689 63.9665 84.9077 65.2688C85.4365 66.5461 86.2795 67.6816 86.4563 69.1215C86.67 70.8301 87.2895 71.3427 89.2316 71.4993ZM89.7261 47.7361C89.5911 47.7606 89.3374 47.7627 89.1244 47.8529C86.9402 48.6772 84.5965 49.1135 82.7025 50.627C81.729 51.4117 80.6184 51.9671 79.4245 52.3704C77.6815 52.9796 77.5388 53.5104 78.6475 54.9226C79.6796 56.2436 80.7508 57.5317 81.7178 58.9074C82.2763 59.7044 82.7467 59.7091 83.4906 59.2063C86.3899 57.2368 89.445 55.5586 92.8097 54.4866C93.5296 54.2594 93.6749 53.8375 93.3346 53.1681C92.5906 51.7273 91.8726 50.2645 91.1296 48.8117C90.8607 48.2934 90.5137 47.8408 89.762 47.7393L89.7261 47.7361ZM104.812 47.5012C104.523 45.8342 104.868 43.7999 103.131 42.3935C102.455 41.8399 101.749 41.6336 101.066 42.2625C100.017 43.2216 98.7816 43.5489 97.4204 43.7929C96.452 43.9623 95.5284 44.4494 94.5903 44.8267C94.0152 45.0544 93.7928 45.5301 93.9595 46.1119C94.1451 46.7558 94.2644 47.4663 94.6411 47.994C96.0604 50.0005 97.2905 52.0992 98.0904 54.4262C98.4474 55.4592 99.1084 55.4924 99.8351 54.7709C100.786 53.8273 101.818 52.9271 102.588 51.8471C103.483 50.5728 104.613 49.3792 104.811 47.5131L104.812 47.5012ZM6.60599 70.2989C9.42838 69.7714 12.5316 70.0409 15.5442 69.4092C16.5037 69.2028 17.2647 68.6412 17.3542 67.6107C17.4958 65.9812 17.0127 64.4544 15.5753 63.6294C14.437 62.9752 13.494 62.1569 12.5021 61.3464C10.8907 60.0234 7.68853 60.6145 7.21627 62.8551C7.06996 63.5667 6.69027 64.1856 6.3684 64.8337C5.81319 65.9444 5.17516 67.0358 4.97004 68.2856C4.79147 69.3686 5.09318 70.2037 6.60391 70.3228L6.60599 70.2989ZM73.4529 71.2274C73.2521 74.3729 74.1367 75.0292 77.1794 74.05C77.9493 73.803 78.7589 73.656 79.5486 73.459C83.916 72.3776 84.0295 72.1823 82.807 67.6336C82.7783 67.5466 82.7376 67.4585 82.71 67.3596C82.3104 66.2625 81.7993 65.8922 80.7096 66.7633C79.0219 68.1257 77.0403 68.9797 74.9035 69.3978C73.847 69.6078 73.4783 70.2397 73.4659 71.2165L73.4529 71.2274ZM71.6547 57.3212C72.3545 59.6877 72.6466 62.4414 72.9886 65.1752C73.0819 65.9077 73.556 66.0092 74.1394 65.6856C75.6474 64.8629 77.2289 64.1673 78.5582 63.0393C79.3015 62.4037 79.4812 61.864 78.7075 61.1811C76.982 59.643 75.753 57.8099 75.2385 55.5319C75.1322 55.0881 74.9707 54.724 74.4175 54.7001C73.2281 54.633 71.7816 55.8594 71.6667 57.3222L71.6547 57.3212ZM104.343 25.6583C104.295 26.2094 104.475 27.058 105.302 27.5523C106.14 28.0476 106.74 27.3875 107.325 26.9072C108.105 26.2747 108.852 25.5911 109.823 25.2529C110.408 25.0502 111.106 24.9418 111.104 24.1208C111.092 23.2868 110.663 22.67 109.91 22.3029C107.858 21.3279 104.665 23.0666 104.343 25.6583ZM109.047 32.1028C110.455 32.1527 111.527 31.6301 112.344 30.6991C112.839 30.1385 112.942 29.3748 112.482 28.695C112.063 28.0913 111.446 28.1101 110.803 28.2837C110.16 28.4572 109.507 28.6177 108.855 28.7543C107.87 28.9706 107.524 29.6285 107.6 30.5527C107.676 31.4888 108.234 32.0081 109.059 32.1039L109.047 32.1028Z" fill="#221814"/>
<path d="M244.68 84.0464C240.243 83.7093 235.984 82.5668 231.815 81.0821C227.412 79.5166 222.891 78.472 218.302 77.663C213.985 76.9138 209.987 74.9852 205.658 74.235C203.66 73.8924 201.747 73.2675 199.835 72.6186C197.513 71.8374 197.203 71.0983 197.448 68.6931C197.62 66.9937 197.975 65.4069 198.747 63.8805C199.853 61.707 199.993 59.2685 200.366 56.9107C201.17 51.9706 202.858 47.2642 204.133 42.4496C204.62 40.5966 205.817 38.9138 206.728 37.1821C207.955 34.8623 209.403 32.646 209.757 29.9606C209.797 29.6381 209.9 29.2849 210.057 29.0088C212.616 24.704 212.936 19.903 213.271 15.0791C213.47 12.2353 213.837 9.39402 214.18 6.56268C214.32 5.36764 215.32 4.97162 216.289 4.65739C218.4 3.97162 220.517 4.20373 222.104 5.66949C223.624 7.06909 225.403 7.29603 227.197 7.76573C232.97 9.26907 238.833 10.1525 244.742 10.9192C247.894 11.3257 251.089 12.3397 254.197 13.2494C256.658 13.9701 259.181 14.2496 261.654 14.8266C262.872 15.1135 264.092 15.3884 265.243 15.8868C268.697 17.406 268.985 18.5416 267.761 21.3689C265.526 26.5348 264.768 32.0583 262.996 37.3127C262.608 38.45 262.126 39.5429 261.599 40.6078C259.261 45.2939 258.897 50.4533 257.979 55.4679C256.785 61.9917 255.145 68.3562 251.814 74.1874C250.347 76.7641 249.063 79.4534 248.787 82.4957C248.688 83.6339 247.94 84.1846 246.828 84.1967C246.115 84.2072 245.389 84.0838 244.682 84.0224L244.68 84.0464ZM259.95 35.5512C260.297 33.7826 261.111 32.4651 261.27 30.7767C261.514 28.2506 262.098 25.6938 263.558 23.4786C264.072 22.7024 264.281 21.8272 264.314 20.8884C264.367 19.722 263.837 19.0121 262.671 18.959C259.437 18.7989 256.561 17.4505 253.602 16.3485C251.72 15.6418 249.715 15.2383 247.721 16.2361C247.127 16.5347 246.456 16.7541 245.774 16.5499C243.457 15.8417 241.214 16.2384 238.994 16.9148C233.577 18.5448 228.096 19.94 222.529 20.9293C220.591 21.2801 218.681 21.7298 216.771 22.1796C216.253 22.3036 215.522 22.5178 215.515 23.0122C215.497 24.749 214.516 26.1848 214.205 27.8117C214.117 28.2749 214.159 28.7614 214.654 28.901C217.282 29.6363 219.778 31.2051 222.695 29.9977C223.935 29.4777 225.233 29.1317 226.568 28.9096C227.328 28.7824 228.032 28.8798 228.619 29.3413C229.796 30.2523 230.907 31.218 231.737 32.4973C233.226 34.8117 233.104 37.3362 232.81 39.882C232.407 43.4083 234.352 45.895 236.475 48.2765C237.058 48.9308 237.809 48.9114 238.135 47.9378C238.331 47.3392 238.667 46.9458 239.221 46.6921C239.9 46.3768 240.181 45.7855 239.886 45.1443C239.211 43.6008 239.061 41.8614 238.282 40.4055C236.952 37.9239 236.718 35.1994 236.128 32.5406C236.033 32.0978 236.261 31.7071 236.381 31.295C236.856 29.7186 238.186 28.8563 239.224 27.7513C241.234 25.596 243.301 23.4818 245.21 21.2332C246.152 20.1199 247.553 20.2536 248.609 19.4882C251.634 17.3245 255.245 18.5556 256.268 22.2057C257.006 24.829 257.681 27.4832 257.95 30.2227C258.128 32.0731 258.613 33.8536 259.898 35.595L259.95 35.5512ZM253.331 55.8852C253.793 55.9856 253.887 55.7403 254.009 55.4491C254.694 53.8185 255.117 52.141 255.367 50.376C255.749 47.6447 255.685 44.766 257.024 42.2747C258.003 40.4524 257.331 39.1626 256.138 37.888C255.784 37.5072 255.664 37.0863 255.598 36.5977C255.036 32.0823 253.65 27.7487 252.757 23.3011C252.571 22.3795 252.103 22.2061 251.34 22.7917C248.743 24.7632 246.146 26.7228 244.187 29.4016C243.229 30.7067 242.312 32.0878 241.05 33.1371C240.307 33.7607 240.207 34.3556 240.575 35.2688C241.538 37.6583 242.567 39.993 242.658 42.693C242.717 44.521 243.599 46.179 245.448 47.1243C246.258 47.5327 247 48.1645 247.451 48.9521C248.888 51.4431 251.136 53.2197 252.873 55.4591C253.014 55.6403 253.22 55.7789 253.343 55.8862L253.331 55.8852ZM214.297 49.1389C214.313 50.758 214.31 52.3151 214.865 53.8482C215.304 55.0572 215.829 56.3704 215.735 57.5936C215.482 60.65 216.433 63.4609 217.125 66.3338C217.374 67.3574 217.97 68.1455 219.183 67.7922C220.372 67.4487 220.705 66.536 220.368 65.4082C220.032 64.2804 219.936 63.1615 220.061 62.0013C220.135 61.2835 220.015 60.5849 219.749 59.8858C218.348 56.1425 220.062 50.3037 223.235 47.8268C224.867 46.5561 226.452 45.2572 228.051 43.9474C229.17 43.0184 229.718 41.8468 229.966 40.3834C230.142 39.3244 228.834 37.9914 230.484 37.1932C230.484 37.1932 230.453 36.9973 230.383 36.9671C229.348 36.3822 229.434 35.2549 229.115 34.3339C228.884 33.6619 228.427 33.3567 227.793 33.5672C225.221 34.4182 222.401 34.7769 220.283 36.6452C216.519 39.952 215.175 44.4467 214.297 49.1389ZM241.812 51.4683C239.429 51.2372 237.973 51.8834 237.573 53.5749C237.093 55.6217 236.61 57.7045 236.502 59.7835C236.383 62.1272 237.183 63.4764 239.222 63.907C239.839 64.033 240.349 64.4153 240.904 64.7049C243.666 66.1158 245.483 68.4104 246.996 71.0045C247.658 72.1364 248.982 72.3238 249.502 71.198C250.677 68.6562 252.296 65.9961 251.288 63.1441C250.457 60.7661 249.827 58.285 248.67 56.0357C248.082 54.886 247.393 53.788 246.537 52.7962C245.736 51.8695 244.806 51.3299 243.509 51.5192C242.947 51.6031 242.365 51.4922 241.788 51.4662L241.812 51.4683ZM233.522 56.0117C233.59 55.3658 233.929 54.6588 233.535 54.0572C232.681 52.7638 232.14 51.3526 231.664 49.8867C231.377 49.0168 230.767 48.5293 229.804 49.3389C228.527 50.4231 227.173 51.4162 225.884 52.4993C223.512 54.5026 222.105 59.1729 223.012 61.7989C224.075 64.8489 225.636 67.7248 226.362 70.9025C226.537 71.6661 226.873 71.8281 227.548 71.2831C229.765 69.52 231.85 67.6127 233.759 65.5089C234.228 64.9822 234.295 64.4811 234.125 63.8023C233.49 61.2482 232.781 58.6999 233.52 56.0357L233.522 56.0117ZM241.52 80.4038C241.855 80.433 242.19 80.4741 242.526 80.4912C243.525 80.5297 244.649 80.7963 245.207 79.6496C245.751 78.5259 246.128 77.2428 245.955 76.0447C245.281 71.5678 242.79 69.2509 238.482 68.2611C237.866 68.1231 237.344 68.2951 236.888 68.69C235.571 69.807 234.378 71.0313 233.173 72.2666C231.952 73.5368 231.562 75.519 229.515 76.1501C228.585 76.4434 229.236 77.1399 229.89 77.4018C233.616 78.9809 237.483 80.0411 241.533 80.3929L241.52 80.4038ZM230.784 14.9824C231.812 15.0959 232.645 15.0958 232.908 14.1529C233.203 13.1162 232.473 12.6302 231.635 12.4125C229.817 11.9408 227.993 11.5289 226.168 11.141C224.047 10.6791 221.924 10.2413 219.997 9.21677C218.082 8.19333 216.757 8.85089 216.578 11.0566C216.416 12.9257 216.701 14.7854 217.11 16.6076C217.232 17.1494 217.581 17.3004 218.068 17.2462C220.362 16.9745 222.665 16.5831 224.769 15.7155C226.859 14.8589 228.812 14.1955 230.784 14.9824ZM205.057 53.9138C204.85 55.0427 204.379 56.1607 204.738 57.3145C205.896 61.0729 206.575 64.9346 207.376 68.7707C207.769 70.6398 208.76 71.4622 210.648 71.6866C211.998 71.8521 212.124 71.6458 211.81 70.2664C210.951 66.5339 210.066 62.8234 209.342 59.0664C208.831 56.4748 207.96 53.9848 207.287 51.4516C207.131 50.8827 206.84 50.3384 206.138 50.3619C205.46 50.3875 205.327 50.9434 205.267 51.4935C205.185 52.3072 205.127 53.111 205.056 53.9258L205.057 53.9138ZM211.045 54.1924C211.342 52.4436 211.24 50.6963 210.819 49.0059C210.371 47.2166 210.385 45.5277 211.053 43.8111C211.644 42.293 212.119 40.7166 211.997 39.0642C211.949 38.3599 211.911 37.403 211.153 37.2405C210.453 37.0952 210.087 37.9809 209.82 38.5493C208.851 40.6743 208.092 42.8779 207.708 45.2107C207.511 46.3766 207.725 47.2403 208.724 47.9669C209.122 48.2549 209.764 48.5039 209.626 49.2644C209.321 51.1091 210.326 52.5968 211.033 54.1913L211.045 54.1924ZM215.246 69.4783C214.833 72.0138 215.222 72.6753 217.16 73.1575C218.791 73.5647 220.444 73.8531 222.039 74.3901C222.449 74.5343 223.066 74.938 223.332 74.3696C223.656 73.6976 223.03 73.1241 222.73 72.5428C222.514 72.1135 222.191 71.8078 221.701 72.1636C220.632 72.9399 219.595 72.4998 218.568 72.0967C217.318 71.614 216.151 71.0176 215.259 69.4674L215.246 69.4783ZM203.536 68.9321C203.487 68.5174 203.46 67.9959 203.348 67.4792C203.24 66.9145 203.536 66.0106 202.708 65.9508C201.977 65.8873 201.674 66.7302 201.43 67.3247C201.245 67.7795 201.194 68.3666 201.297 68.8583C201.448 69.6199 202.125 69.884 202.822 69.9204C203.363 69.9432 203.531 69.5353 203.547 68.9331L203.536 68.9321Z" fill="#221814"/>
<path d="M179.261 73.4877C176.922 73.4535 174.628 73.3266 172.319 73.3555C167.814 73.3867 163.486 72.2021 159.206 70.8887C156.314 69.9977 153.371 68.8488 150.368 69.095C147.451 69.3245 144.456 69.4749 141.598 70.2769C139.568 70.8491 136.944 69.2329 136.673 67.0726C136.538 65.9865 136.647 64.8732 136.634 63.7735C136.567 58.6975 136.164 53.6163 136.868 48.559C137.296 45.4453 137.903 42.3472 138.271 39.2163C138.805 34.7357 140.644 30.5252 141.033 26.0441C141.491 20.7722 142.781 15.5121 141.446 10.169C141.186 9.13235 141.383 7.97845 141.419 6.87093C141.486 4.98148 142.735 3.53262 144.729 3.64546C148.5 3.86438 152.01 2.5153 155.703 2.24455C157.573 2.11724 159.328 2.3421 161.111 2.66594C167.789 3.89778 174.499 4.61337 181.304 4.37146C184.38 4.26434 187.432 4.71047 190.315 5.84216C192.544 6.72388 194.961 6.55953 197.224 7.19067C199.11 7.71662 199.64 8.28178 199.483 10.2358C199.388 11.3262 199.87 12.3096 199.863 13.3593C199.827 16 199.181 18.5756 198.575 21.1063C198.138 22.9396 197.85 24.7254 197.736 26.5987C197.539 29.841 197.352 33.0964 196.617 36.2799C196.021 38.8357 195.698 41.4394 194.97 43.9837C194.557 45.4085 194.949 47.0119 194.863 48.5497C194.514 55.497 194.069 62.424 192.643 69.2536C192.001 72.3366 190.757 73.4479 187.561 73.6894C184.778 73.9064 181.992 73.8817 179.261 73.4877ZM184.287 69.554C185.408 69.5669 186.786 70.5196 187.597 69.6605C189.007 68.1652 190.476 66.5424 190.201 64.1523C190.015 62.5307 189.748 60.8897 189.863 59.2821C190.375 52.4093 190.218 45.4663 191.653 38.6736C191.874 37.6546 191.472 37.1369 190.475 36.9416C186.193 36.0747 182.67 33.5475 178.905 31.5787C177.832 31.0147 176.79 30.5017 175.604 30.2538C174.31 29.9966 173.578 30.5124 173.015 31.707C171.088 35.8252 169.021 39.883 166.357 43.5991C164.956 45.5538 163.694 47.569 162.66 49.7487C162.114 50.8844 162.373 51.5225 163.425 52.0605C164.916 52.8178 166.479 53.1708 168.15 53.1108C170.076 53.0366 171.427 54.4456 170.733 56.172C170.088 57.7698 169.914 59.4931 169.175 61.0466C168.481 62.5074 168.782 63.3544 170.354 63.7325C172.221 64.1964 173.777 65.1886 175.399 66.1142C178.171 67.6949 180.826 69.6518 184.264 69.54L184.287 69.554ZM167.322 67.9237C167.355 67.8299 167.387 67.7362 167.419 67.6424C166.675 67.3122 165.943 66.983 165.198 66.6648C163.221 65.805 161.46 64.6742 160.385 62.7338C158.998 60.223 157.799 57.62 156.877 54.8962C156.645 54.2242 156.642 53.572 156.927 52.9327C157.625 51.424 158.254 49.8851 158.882 48.3462C160.614 44.1144 163.392 40.4806 165.802 36.6457C167.175 34.4592 169.26 32.6847 169.974 30.1632C170.494 28.3493 171.975 27.2828 172.716 25.6933C172.909 25.2875 173.303 25.189 173.696 25.2593C175.682 25.6008 177.601 26.021 179.434 27.0252C183.294 29.1351 187.022 31.5352 191.354 32.6599C192.559 32.9698 193.057 32.6509 193.415 31.4506C193.874 29.9211 193.077 28.3912 193.677 26.9101C194.09 25.9078 193.671 25.1712 192.971 24.4706C191.938 23.4393 190.6 22.8523 189.444 21.9913C186.52 19.7938 183.414 17.8943 180.053 16.4193C178.028 15.5433 176.738 15.8055 175.127 17.2591C173.829 18.4381 172.917 19.9041 171.801 21.2196C169.288 24.1642 166.025 26.428 164.082 29.893C163.796 30.4113 163.285 30.874 162.772 31.2158C161.746 31.9113 160.991 32.8236 160.382 33.8572C159.605 35.1539 158.527 36.1709 157.426 37.1738C156.966 37.6046 156.6 38.0678 156.231 38.5669C154.71 40.644 153.365 42.9295 151.5 44.6629C148.11 47.8332 145.566 51.8254 141.798 54.6248C141.385 54.9389 141.329 55.4411 141.227 55.9152C140.664 58.51 140.089 61.1038 139.56 63.7138C139.322 64.9245 140.103 65.8011 141.369 65.8265C141.657 65.8395 141.94 65.7796 142.223 65.7197C143.831 65.4127 145.411 65.0067 147.035 64.7976C149.172 64.5244 151.356 64.2554 153.458 64.9329C155.36 65.5448 157.248 66.1916 159.221 66.5441C161.908 67.0189 164.595 67.4937 167.283 67.9565L167.322 67.9237ZM142.517 36.6153C142.954 36.4481 143.124 36.4387 143.217 36.3381C146.01 33.2367 149.258 30.5853 151.893 27.3495C154.581 24.0579 157.024 20.5398 160.573 18.0352C160.959 17.7669 161.226 17.3314 161.569 16.999C163.626 14.9926 164.553 12.1034 166.882 10.3018C167.335 9.95477 167.689 9.49058 168.066 9.04045C168.308 8.75964 168.613 8.44809 168.432 8.02198C168.242 7.57087 167.795 7.71313 167.428 7.63294C165.368 7.16431 163.253 7.33072 161.163 6.9319C157.648 6.26442 154.075 5.97828 150.646 7.79307C149.102 8.61267 147.354 9.41457 145.479 8.21349C144.518 7.59888 144.501 8.35789 144.547 9.07417C144.771 12.4738 144.633 15.8662 144.41 19.2752C144.267 21.472 144.449 23.6849 144.523 25.8885C144.545 26.4699 144.473 27.0189 144.352 27.5878C143.735 30.5161 143.155 33.4474 142.517 36.6153ZM142.192 47.5848C142.578 47.5941 142.849 47.3883 143.099 47.1565C143.757 46.5255 144.437 45.9207 145.028 45.2356C149.08 40.5535 153.075 35.8422 157.149 31.1862C159.039 29.0324 161.267 27.1375 162.951 24.8452C165.935 20.7946 169.734 17.5029 172.963 13.6789C173.461 13.0943 173.562 12.7651 172.975 12.2916C172.299 11.7379 171.636 11.5838 170.927 12.2465C168.426 14.6249 165.817 16.873 163.998 19.878C162.815 21.8274 161.206 23.4019 159.232 24.5825C158.43 25.0561 157.727 25.647 157.271 26.4524C154.217 31.8731 149.643 36.027 145.475 40.5059C143.759 42.3367 142.385 44.2575 141.857 46.7226C141.758 47.1608 141.671 47.4671 142.192 47.5848ZM196.247 12.8763C196.266 11.9725 195.849 11.4896 195.167 11.4183C193.672 11.2523 192.303 10.6143 190.853 10.3555C186.894 9.64954 182.856 9.44367 178.902 8.67778C177.845 8.47733 176.31 8.7786 176.063 9.67464C175.76 10.8072 177.144 11.2655 178.179 11.5847C180.719 12.3606 182.971 13.8117 185.214 15.093C187.849 16.5894 190.231 18.6312 192.729 20.4417C193.251 20.8251 193.652 20.9323 193.968 20.2233C195.034 17.817 194.841 15.0357 196.246 12.8883L196.247 12.8763ZM161.502 55.2978C160.709 55.1083 160.868 55.6412 160.852 55.9657C160.734 57.887 162.369 60.878 164.474 61.6644C165.07 61.8852 165.358 61.7654 165.428 61.1074C165.535 60.0062 165.773 58.9403 166.235 57.9302C166.384 57.6051 166.431 57.1987 166.058 57.0456C164.519 56.417 162.963 55.8473 161.503 55.2859L161.502 55.2978Z" fill="#221814"/>
<path d="M35.8707 50.1209C35.5842 50.0839 35.2956 50.0709 35.0122 49.998C34.5053 49.8574 33.6478 50.0002 33.7785 49.1907C33.904 48.441 33.2495 47.0804 35.0259 47.1985C35.8428 47.2453 36.8888 47.155 37.1273 46.0772C37.4163 44.8347 38.2788 43.5214 36.9446 42.3431C36.1818 41.6733 36.4412 40.9111 36.9178 40.2886C37.7907 39.133 38.8747 38.189 40.2082 37.5684C40.7745 37.3037 41.3397 37.3286 41.8216 37.7568C42.3603 38.2261 42.439 38.8486 42.1562 39.4639C41.8141 40.2068 41.4938 40.9757 40.9802 41.6071C40.2098 42.5543 40.0161 43.6722 39.7745 44.786C39.6761 45.2242 39.6376 45.6675 40.1362 45.9039C40.5649 46.1102 41.0025 46.0757 41.3541 45.7803C41.6797 45.5068 41.9974 45.1843 42.1985 44.8155C42.887 43.5594 43.7534 44.0089 44.5994 44.5532C45.0569 44.8464 45.2726 45.4205 44.8199 45.7675C43.7453 46.6037 43.1172 47.9978 42.0145 48.6022C40.1512 49.6234 38.1305 50.5103 35.8577 50.1318L35.8707 50.1209Z" fill="#221814"/>
<path d="M33.6361 42.4904C33.4232 43.6912 32.8997 44.8529 32.0861 45.8808C31.5976 46.5024 30.9386 46.7228 30.1613 46.4983C29.3721 46.2729 29.0105 45.7103 28.8724 44.9377C28.5534 43.0509 30.2757 39.4823 31.9468 38.5893C32.8073 38.1328 33.4414 38.4776 33.5326 39.5117C33.6192 40.4608 33.6078 41.4256 33.6361 42.4904Z" fill="#221814"/>
<path d="M49.9698 34.5652C48.951 36.2876 48.5204 38.3266 46.8291 39.5921C46.4296 39.8833 45.9488 40.2762 45.3867 39.9376C44.8026 39.573 44.6119 38.9891 44.6572 38.329C44.7935 36.7594 45.7733 35.6253 46.7171 34.488C47.0541 34.0826 47.4578 33.7435 47.8604 33.4163C48.2902 33.0552 48.7886 32.4587 49.332 32.7352C49.991 33.0701 49.7114 33.9271 49.9558 34.5882L49.9698 34.5652Z" fill="#221814"/>
<path d="M88.6059 35.8927C88.6059 35.8927 88.51 35.8844 88.4621 35.8802C86.6028 35.7429 84.5238 35.6347 84.051 33.4328C83.5742 31.2788 84.6992 29.4449 86.3103 27.9913C89.8591 24.7987 92.7936 25.6209 96.6181 28.1502C98.8213 29.6091 98.3924 33.1573 96.1244 34.5297C93.7694 35.9307 91.2408 36.1336 88.6178 35.8937L88.6059 35.8927ZM89.4067 32.5096C90.4705 32.4934 91.5811 32.4933 92.6829 32.4562C93.4221 32.4238 93.9399 32.0221 94.2159 31.3459C94.4305 30.8213 94.3903 30.3108 94.0313 29.8571C92.846 28.3538 89.5594 28.2494 88.276 29.6831C87.7936 30.2328 87.3431 30.8335 87.6729 31.6227C87.983 32.3618 88.6769 32.4342 89.3937 32.5206L89.4067 32.5096Z" fill="#221814"/>
</g>
<defs>
<clipPath id="clip0_401_31">
<rect width="262.304" height="88" fill="white" transform="translate(8.00003 -14) rotate(4.96373)"/>
</clipPath>
</defs>
</svg>
