<svg width="24" height="24" viewBox="0 0 24 24" fill="none" xmlns="http://www.w3.org/2000/svg">
<path d="M12.7269 3.687C12.8171 3.59153 12.8876 3.47923 12.9344 3.3565C12.9812 3.23377 13.0034 3.10302 12.9997 2.97172C12.996 2.84042 12.9664 2.71113 12.9128 2.59125C12.8591 2.47136 12.7823 2.36322 12.6869 2.273C12.5914 2.18279 12.4791 2.11226 12.3563 2.06544C12.2336 2.01863 12.1029 1.99644 11.9716 2.00016C11.8403 2.00387 11.711 2.03341 11.5911 2.08709C11.4712 2.14077 11.3631 2.21753 11.2729 2.313L2.77285 11.313C2.59732 11.4987 2.49951 11.7445 2.49951 12C2.49951 12.2555 2.59732 12.5013 2.77285 12.687L11.2729 21.688C11.3625 21.7856 11.4706 21.8643 11.5909 21.9198C11.7112 21.9752 11.8414 22.0062 11.9738 22.0109C12.1062 22.0156 12.2382 21.9939 12.3621 21.9472C12.4861 21.9004 12.5995 21.8295 12.6959 21.7386C12.7922 21.6476 12.8695 21.5384 12.9232 21.4173C12.977 21.2963 13.0062 21.1657 13.009 21.0333C13.0119 20.9008 12.9885 20.7691 12.94 20.6458C12.8916 20.5225 12.8191 20.4101 12.7269 20.315L4.87485 12L12.7269 3.687Z" fill="black"/>
</svg>
