<svg width="160" height="235" viewBox="0 0 160 235" fill="none" xmlns="http://www.w3.org/2000/svg">
<g id="Group 14">
<path id="Subtract" fill-rule="evenodd" clip-rule="evenodd" d="M150 0C150 2.20914 148.209 4 146 4C143.791 4 142 2.20914 142 0H138C138 2.20914 136.209 4 134 4C131.791 4 130 2.20914 130 0H126C126 2.20914 124.209 4 122 4C119.791 4 118 2.20914 118 0H114C114 2.20914 112.209 4 110 4C107.791 4 106 2.20914 106 0H102C102 2.20914 100.209 4 98 4C95.7909 4 94 2.20914 94 0H90C90 2.20914 88.2091 4 86 4C83.7909 4 82 2.20914 82 0H78C78 2.20914 76.2091 4 74 4C71.7909 4 70 2.20914 70 0H66C66 2.20914 64.2091 4 62 4C59.7909 4 58 2.20914 58 0H54C54 2.20914 52.2091 4 50 4C47.7909 4 46 2.20914 46 0H42C42 2.20914 40.2091 4 38 4C35.7909 4 34 2.20914 34 0H30C30 2.20914 28.2091 4 26 4C23.7909 4 22 2.20914 22 0H18C18 2.20914 16.2091 4 14 4C11.7909 4 10 2.20914 10 0H0V4C2.20914 4 4 5.79086 4 8C4 10.2091 2.20914 12 0 12V16C2.20914 16 4 17.7909 4 20C4 22.2091 2.20914 24 0 24V28C2.20914 28 4 29.7909 4 32C4 34.2091 2.20914 36 0 36V40C2.20914 40 4 41.7909 4 44C4 46.2091 2.20914 48 0 48V52C2.20914 52 4 53.7909 4 56C4 58.2091 2.20914 60 0 60V64C2.20914 64 4 65.7909 4 68C4 70.2091 2.20914 72 0 72V76C2.20914 76 4 77.7909 4 80C4 82.2091 2.20914 84 0 84V88C2.20914 88 4 89.7909 4 92C4 94.2091 2.20914 96 0 96V100C2.20914 100 4 101.791 4 104C4 106.209 2.20914 108 0 108V112C2.20914 112 4 113.791 4 116C4 118.209 2.20914 120 0 120V124C2.20914 124 4 125.791 4 128C4 130.209 2.20914 132 0 132V136C2.20914 136 4 137.791 4 140C4 142.209 2.20914 144 0 144V148C2.20914 148 4 149.791 4 152C4 154.209 2.20914 156 0 156V160C2.20914 160 4 161.791 4 164C4 166.209 2.20914 168 0 168V172C2.20914 172 4 173.791 4 176C4 178.209 2.20914 180 0 180V184C2.20914 184 4 185.791 4 188C4 190.209 2.20914 192 0 192V196C2.20914 196 4 197.791 4 200C4 202.209 2.20914 204 0 204V208C2.20914 208 4 209.791 4 212C4 214.209 2.20914 216 0 216V220C2.20914 220 4 221.791 4 224C4 226.209 2.20914 228 0 228V235H10C10 232.791 11.7909 231 14 231C16.2091 231 18 232.791 18 235H22C22 232.791 23.7909 231 26 231C28.2091 231 30 232.791 30 235H34C34 232.791 35.7909 231 38 231C40.2091 231 42 232.791 42 235H46C46 232.791 47.7909 231 50 231C52.2091 231 54 232.791 54 235H58C58 232.791 59.7909 231 62 231C64.2091 231 66 232.791 66 235H70C70 232.791 71.7909 231 74 231C76.2091 231 78 232.791 78 235H82C82 232.791 83.7909 231 86 231C88.2091 231 90 232.791 90 235H94C94 232.791 95.7909 231 98 231C100.209 231 102 232.791 102 235H106C106 232.791 107.791 231 110 231C112.209 231 114 232.791 114 235H118C118 232.791 119.791 231 122 231C124.209 231 126 232.791 126 235H130C130 232.791 131.791 231 134 231C136.209 231 138 232.791 138 235H142C142 232.791 143.791 231 146 231C148.209 231 150 232.791 150 235H159.5V227.969C157.527 227.723 156 226.04 156 224C156 221.96 157.527 220.277 159.5 220.031V215.969C157.527 215.723 156 214.04 156 212C156 209.96 157.527 208.277 159.5 208.031V203.969C157.527 203.723 156 202.04 156 200C156 197.96 157.527 196.277 159.5 196.031V191.969C157.527 191.723 156 190.04 156 188C156 185.96 157.527 184.277 159.5 184.031V179.969C157.527 179.723 156 178.04 156 176C156 173.96 157.527 172.277 159.5 172.031V167.969C157.527 167.723 156 166.04 156 164C156 161.96 157.527 160.277 159.5 160.031V155.969C157.527 155.723 156 154.04 156 152C156 149.96 157.527 148.277 159.5 148.031V143.969C157.527 143.723 156 142.04 156 140C156 137.96 157.527 136.277 159.5 136.031V131.969C157.527 131.723 156 130.04 156 128C156 125.96 157.527 124.277 159.5 124.031V119.969C157.527 119.723 156 118.04 156 116C156 113.96 157.527 112.277 159.5 112.031V107.969C157.527 107.723 156 106.04 156 104C156 101.96 157.527 100.277 159.5 100.031V95.9691C157.527 95.723 156 94.0398 156 92C156 89.9602 157.527 88.277 159.5 88.0309V83.9691C157.527 83.723 156 82.0398 156 80C156 77.9602 157.527 76.277 159.5 76.0309V71.9691C157.527 71.723 156 70.0398 156 68C156 65.9602 157.527 64.277 159.5 64.0309V59.9691C157.527 59.723 156 58.0398 156 56C156 53.9602 157.527 52.277 159.5 52.0309V47.9691C157.527 47.723 156 46.0398 156 44C156 41.9602 157.527 40.277 159.5 40.0309V35.9691C157.527 35.723 156 34.0398 156 32C156 29.9602 157.527 28.277 159.5 28.0309V23.9691C157.527 23.723 156 22.0398 156 20C156 17.9602 157.527 16.277 159.5 16.0309V11.9691C157.527 11.723 156 10.0398 156 8C156 5.96019 157.527 4.277 159.5 4.03095V0H150Z" fill="white"/>
</g>
</svg>
